<ttFont>
    <TTGlyph name=".notdef" xMin="193" yMin="0" xMax="1034" yMax="1462">
      <contour>
        <pt x="193" y="1462" on="1"/>
        <pt x="1034" y="1462" on="1"/>
        <pt x="1034" y="0" on="1"/>
        <pt x="193" y="0" on="1"/>
      </contour>
      <contour>
        <pt x="297" y="104" on="1"/>
        <pt x="930" y="104" on="1"/>
        <pt x="930" y="1358" on="1"/>
        <pt x="297" y="1358" on="1"/>
      </contour>
    </TTGlyph>
    <TTGlyph name="afii299" xMin="-36" yMin="183" xMax="430" yMax="1667">
      <contour>
        <pt x="430" y="1452" on="1"/>
        <pt x="213" y="1238" on="1"/>
        <pt x="164" y="1287" on="1"/>
        <pt x="301" y="1417" on="1"/>
        <pt x="35" y="1417" on="1"/>
        <pt x="35" y="183" on="1"/>
        <pt x="-36" y="183" on="1"/>
        <pt x="-36" y="1488" on="1"/>
        <pt x="301" y="1488" on="1"/>
        <pt x="164" y="1618" on="1"/>
        <pt x="213" y="1667" on="1"/>
      </contour>
    </TTGlyph>
    <TTGlyph name="afii300" xMin="-431" yMin="183" xMax="35" yMax="1667">
      <contour>
        <pt x="35" y="183" on="1"/>
        <pt x="-36" y="183" on="1"/>
        <pt x="-36" y="1417" on="1"/>
        <pt x="-302" y="1417" on="1"/>
        <pt x="-165" y="1287" on="1"/>
        <pt x="-214" y="1238" on="1"/>
        <pt x="-431" y="1452" on="1"/>
        <pt x="-214" y="1667" on="1"/>
        <pt x="-165" y="1618" on="1"/>
        <pt x="-302" y="1488" on="1"/>
        <pt x="35" y="1488" on="1"/>
      </contour>
    </TTGlyph>
    <TTGlyph name="afii301" xMin="-219" yMin="183" xMax="219" yMax="1667">
      <contour>
        <pt x="36" y="183" on="1"/>
        <pt x="-36" y="183" on="1"/>
        <pt x="-36" y="1368" on="1"/>
        <pt x="-170" y="1232" on="1"/>
        <pt x="-219" y="1281" on="1"/>
        <pt x="-48" y="1450" on="1"/>
        <pt x="-219" y="1618" on="1"/>
        <pt x="-170" y="1667" on="1"/>
        <pt x="0" y="1496" on="1"/>
        <pt x="170" y="1667" on="1"/>
        <pt x="219" y="1618" on="1"/>
        <pt x="48" y="1450" on="1"/>
        <pt x="219" y="1281" on="1"/>
        <pt x="170" y="1232" on="1"/>
        <pt x="36" y="1368" on="1"/>
      </contour>
    </TTGlyph>
    <TTGlyph name="afii57381" xMin="70" yMin="153" xMax="752" yMax="1312">
      <contour>
        <pt x="181" y="153" on="1"/>
        <pt x="134" y="191" on="0"/>
        <pt x="108" y="253" on="1"/>
        <pt x="188" y="423" on="0"/>
        <pt x="515" y="1069" on="0"/>
        <pt x="648" y="1312" on="1"/>
        <pt x="672" y="1295" on="0"/>
        <pt x="704" y="1235" on="0"/>
        <pt x="705" y="1205" on="1"/>
        <pt x="705" y="1185" on="0"/>
        <pt x="698" y="1171" on="1"/>
        <pt x="567" y="924" on="0"/>
        <pt x="255" y="308" on="0"/>
      </contour>
      <contour>
        <pt x="70" y="1049" on="1"/>
        <pt x="99" y="1099" on="0"/>
        <pt x="149" y="1196" on="0"/>
        <pt x="181" y="1244" on="1"/>
        <pt x="283" y="1185" on="0"/>
        <pt x="369" y="1110" on="0"/>
        <pt x="369" y="1094" on="1"/>
        <pt x="369" y="1065" on="0"/>
        <pt x="266" y="919" on="1"/>
        <pt x="149" y="1005" on="0"/>
      </contour>
      <contour>
        <pt x="452" y="379" on="1"/>
        <pt x="481" y="429" on="0"/>
        <pt x="532" y="526" on="0"/>
        <pt x="564" y="574" on="1"/>
        <pt x="666" y="515" on="0"/>
        <pt x="752" y="440" on="0"/>
        <pt x="752" y="424" on="1"/>
        <pt x="752" y="396" on="0"/>
        <pt x="649" y="248" on="1"/>
        <pt x="549" y="325" on="0"/>
      </contour>
    </TTGlyph>
    <TTGlyph name="afii57388" xMin="81" yMin="154" xMax="346" yMax="695">
      <contour>
        <pt x="346" y="649" on="1"/>
        <pt x="297" y="595" on="0"/>
        <pt x="232" y="425" on="0"/>
        <pt x="232" y="371" on="1"/>
        <pt x="232" y="343" on="0"/>
        <pt x="293" y="308" on="0"/>
        <pt x="346" y="291" on="1"/>
        <pt x="337" y="230" on="0"/>
        <pt x="260" y="154" on="0"/>
        <pt x="209" y="154" on="1"/>
        <pt x="171" y="154" on="0"/>
        <pt x="113" y="192" on="0"/>
        <pt x="81" y="258" on="0"/>
        <pt x="81" y="289" on="1"/>
        <pt x="81" y="366" on="0"/>
        <pt x="203" y="602" on="0"/>
        <pt x="290" y="695" on="1"/>
      </contour>
    </TTGlyph>
    <TTGlyph name="afii57403" xMin="90" yMin="141" xMax="355" yMax="1177">
      <contour>
        <pt x="355" y="1131" on="1"/>
        <pt x="306" y="1077" on="0"/>
        <pt x="241" y="907" on="0"/>
        <pt x="241" y="853" on="1"/>
        <pt x="241" y="825" on="0"/>
        <pt x="302" y="790" on="0"/>
        <pt x="355" y="773" on="1"/>
        <pt x="346" y="712" on="0"/>
        <pt x="269" y="636" on="0"/>
        <pt x="218" y="636" on="1"/>
        <pt x="180" y="636" on="0"/>
        <pt x="122" y="674" on="0"/>
        <pt x="90" y="740" on="0"/>
        <pt x="90" y="771" on="1"/>
        <pt x="90" y="848" on="0"/>
        <pt x="212" y="1084" on="0"/>
        <pt x="299" y="1177" on="1"/>
      </contour>
      <contour>
        <pt x="94" y="248" on="1"/>
        <pt x="117" y="289" on="0"/>
        <pt x="159" y="369" on="0"/>
        <pt x="185" y="407" on="1"/>
        <pt x="341" y="316" on="0"/>
        <pt x="341" y="286" on="1"/>
        <pt x="341" y="263" on="0"/>
        <pt x="257" y="141" on="1"/>
        <pt x="157" y="210" on="0"/>
      </contour>
    </TTGlyph>
    <TTGlyph name="afii57407" xMin="113" yMin="131" xMax="764" yMax="1426">
      <contour>
        <pt x="412" y="525" on="1"/>
        <pt x="426" y="609" on="0"/>
        <pt x="426" y="637" on="1"/>
        <pt x="426" y="677" on="0"/>
        <pt x="362" y="741" on="0"/>
        <pt x="270" y="792" on="1"/>
        <pt x="191" y="835" on="0"/>
        <pt x="113" y="946" on="0"/>
        <pt x="113" y="1019" on="1"/>
        <pt x="113" y="1114" on="0"/>
        <pt x="221" y="1309" on="0"/>
        <pt x="398" y="1426" on="0"/>
        <pt x="498" y="1426" on="1"/>
        <pt x="648" y="1426" on="0"/>
        <pt x="736" y="1332" on="1"/>
        <pt x="764" y="1302" on="0"/>
        <pt x="764" y="1265" on="1"/>
        <pt x="764" y="1206" on="0"/>
        <pt x="702" y="1152" on="1"/>
        <pt x="641" y="1209" on="0"/>
        <pt x="546" y="1251" on="0"/>
        <pt x="475" y="1251" on="1"/>
        <pt x="381" y="1251" on="0"/>
        <pt x="220" y="1127" on="0"/>
        <pt x="186" y="1026" on="1"/>
        <pt x="215" y="1008" on="0"/>
        <pt x="254" y="991" on="1"/>
        <pt x="437" y="908" on="0"/>
        <pt x="559" y="782" on="0"/>
        <pt x="559" y="702" on="1"/>
        <pt x="559" y="616" on="0"/>
        <pt x="489" y="476" on="1"/>
      </contour>
      <contour>
        <pt x="282" y="238" on="1"/>
        <pt x="306" y="279" on="0"/>
        <pt x="347" y="359" on="0"/>
        <pt x="373" y="397" on="1"/>
        <pt x="457" y="349" on="0"/>
        <pt x="529" y="288" on="0"/>
        <pt x="529" y="277" on="1"/>
        <pt x="529" y="255" on="0"/>
        <pt x="445" y="131" on="1"/>
        <pt x="399" y="164" on="1"/>
        <pt x="352" y="198" on="0"/>
      </contour>
    </TTGlyph>
    <TTGlyph name="afii61664" xMin="-36" yMin="183" xMax="36" yMax="1667">
      <contour>
        <pt x="36" y="1667" on="1"/>
        <pt x="36" y="183" on="1"/>
        <pt x="-36" y="183" on="1"/>
        <pt x="-36" y="1667" on="1"/>
      </contour>
    </TTGlyph>
    <TTGlyph name="glyph00075" xMin="180" yMin="0" xMax="612" yMax="1462">
      <contour>
        <pt x="362" y="1462" on="1"/>
        <pt x="362" y="160" on="1"/>
        <pt x="612" y="160" on="1"/>
        <pt x="612" y="0" on="1"/>
        <pt x="180" y="0" on="1"/>
        <pt x="180" y="1462" on="1"/>
      </contour>
    </TTGlyph>
    <TTGlyph name="glyph00076" xMin="-70" yMin="0" xMax="612" yMax="1462">
      <contour>
        <pt x="31" y="0" on="1"/>
        <pt x="14" y="0" on="0"/>
        <pt x="-51" y="20" on="0"/>
        <pt x="-70" y="33" on="1"/>
        <pt x="-70" y="160" on="1"/>
        <pt x="180" y="160" on="1"/>
        <pt x="180" y="1462" on="1"/>
        <pt x="362" y="1462" on="1"/>
        <pt x="362" y="276" on="1"/>
        <pt x="415" y="160" on="0"/>
        <pt x="573" y="160" on="1"/>
        <pt x="612" y="160" on="1"/>
        <pt x="612" y="0" on="1"/>
        <pt x="543" y="0" on="1"/>
        <pt x="479" y="0" on="0"/>
        <pt x="387" y="45" on="0"/>
        <pt x="334" y="115" on="1"/>
        <pt x="275" y="0" on="0"/>
        <pt x="113" y="0" on="1"/>
      </contour>
    </TTGlyph>
    <TTGlyph name="glyph00077" xMin="-70" yMin="0" xMax="362" yMax="1462">
      <contour>
        <pt x="31" y="0" on="1"/>
        <pt x="14" y="0" on="0"/>
        <pt x="-51" y="20" on="0"/>
        <pt x="-70" y="33" on="1"/>
        <pt x="-70" y="160" on="1"/>
        <pt x="180" y="160" on="1"/>
        <pt x="180" y="1462" on="1"/>
        <pt x="362" y="1462" on="1"/>
        <pt x="362" y="240" on="1"/>
        <pt x="362" y="126" on="0"/>
        <pt x="230" y="0" on="0"/>
        <pt x="113" y="0" on="1"/>
      </contour>
    </TTGlyph>
    <TTGlyph name="glyph00078" xMin="141" yMin="0" xMax="1421" yMax="1094">
      <contour>
        <pt x="1421" y="0" on="1"/>
        <pt x="1280" y="0" on="1"/>
        <pt x="1199" y="0" on="0"/>
        <pt x="1096" y="47" on="0"/>
        <pt x="1026" y="127" on="1"/>
        <pt x="880" y="0" on="0"/>
        <pt x="674" y="0" on="1"/>
        <pt x="430" y="0" on="0"/>
        <pt x="141" y="302" on="0"/>
        <pt x="141" y="549" on="1"/>
        <pt x="141" y="702" on="0"/>
        <pt x="281" y="953" on="0"/>
        <pt x="530" y="1094" on="0"/>
        <pt x="680" y="1094" on="1"/>
        <pt x="835" y="1094" on="0"/>
        <pt x="1078" y="958" on="0"/>
        <pt x="1210" y="714" on="0"/>
        <pt x="1210" y="563" on="1"/>
        <pt x="1210" y="361" on="0"/>
        <pt x="1104" y="213" on="1"/>
        <pt x="1166" y="160" on="0"/>
        <pt x="1272" y="160" on="1"/>
        <pt x="1421" y="160" on="1"/>
      </contour>
      <contour>
        <pt x="328" y="539" on="1"/>
        <pt x="328" y="430" on="0"/>
        <pt x="412" y="257" on="0"/>
        <pt x="568" y="160" on="0"/>
        <pt x="678" y="160" on="1"/>
        <pt x="779" y="160" on="0"/>
        <pt x="937" y="260" on="0"/>
        <pt x="1024" y="441" on="0"/>
        <pt x="1024" y="551" on="1"/>
        <pt x="1024" y="725" on="0"/>
        <pt x="837" y="936" on="0"/>
        <pt x="676" y="936" on="1"/>
        <pt x="520" y="936" on="0"/>
        <pt x="328" y="713" on="0"/>
      </contour>
    </TTGlyph>
    <TTGlyph name="glyph00079" xMin="-70" yMin="0" xMax="1421" yMax="1094">
      <contour>
        <pt x="1421" y="0" on="1"/>
        <pt x="1280" y="0" on="1"/>
        <pt x="1199" y="0" on="0"/>
        <pt x="1096" y="47" on="0"/>
        <pt x="1026" y="127" on="1"/>
        <pt x="880" y="0" on="0"/>
        <pt x="674" y="0" on="1"/>
        <pt x="31" y="0" on="1"/>
        <pt x="14" y="0" on="0"/>
        <pt x="-51" y="20" on="0"/>
        <pt x="-70" y="33" on="1"/>
        <pt x="-70" y="160" on="1"/>
        <pt x="276" y="160" on="1"/>
        <pt x="141" y="307" on="0"/>
        <pt x="141" y="549" on="1"/>
        <pt x="141" y="702" on="0"/>
        <pt x="281" y="953" on="0"/>
        <pt x="530" y="1094" on="0"/>
        <pt x="680" y="1094" on="1"/>
        <pt x="835" y="1094" on="0"/>
        <pt x="1078" y="958" on="0"/>
        <pt x="1210" y="714" on="0"/>
        <pt x="1210" y="563" on="1"/>
        <pt x="1210" y="361" on="0"/>
        <pt x="1104" y="213" on="1"/>
        <pt x="1166" y="160" on="0"/>
        <pt x="1272" y="160" on="1"/>
        <pt x="1421" y="160" on="1"/>
      </contour>
      <contour>
        <pt x="328" y="539" on="1"/>
        <pt x="328" y="430" on="0"/>
        <pt x="412" y="257" on="0"/>
        <pt x="568" y="160" on="0"/>
        <pt x="678" y="160" on="1"/>
        <pt x="779" y="160" on="0"/>
        <pt x="937" y="260" on="0"/>
        <pt x="1024" y="441" on="0"/>
        <pt x="1024" y="551" on="1"/>
        <pt x="1024" y="725" on="0"/>
        <pt x="837" y="936" on="0"/>
        <pt x="676" y="936" on="1"/>
        <pt x="520" y="936" on="0"/>
        <pt x="328" y="713" on="0"/>
      </contour>
    </TTGlyph>
    <TTGlyph name="glyph00080" xMin="-70" yMin="0" xMax="1210" yMax="1094">
      <contour>
        <pt x="1210" y="563" on="1"/>
        <pt x="1210" y="402" on="0"/>
        <pt x="1075" y="145" on="0"/>
        <pt x="827" y="0" on="0"/>
        <pt x="674" y="0" on="1"/>
        <pt x="31" y="0" on="1"/>
        <pt x="14" y="0" on="0"/>
        <pt x="-51" y="20" on="0"/>
        <pt x="-70" y="33" on="1"/>
        <pt x="-70" y="160" on="1"/>
        <pt x="276" y="160" on="1"/>
        <pt x="141" y="307" on="0"/>
        <pt x="141" y="549" on="1"/>
        <pt x="141" y="702" on="0"/>
        <pt x="281" y="953" on="0"/>
        <pt x="530" y="1094" on="0"/>
        <pt x="680" y="1094" on="1"/>
        <pt x="835" y="1094" on="0"/>
        <pt x="1078" y="958" on="0"/>
        <pt x="1210" y="714" on="0"/>
      </contour>
      <contour>
        <pt x="328" y="539" on="1"/>
        <pt x="328" y="430" on="0"/>
        <pt x="412" y="257" on="0"/>
        <pt x="568" y="160" on="0"/>
        <pt x="678" y="160" on="1"/>
        <pt x="779" y="160" on="0"/>
        <pt x="937" y="260" on="0"/>
        <pt x="1024" y="441" on="0"/>
        <pt x="1024" y="551" on="1"/>
        <pt x="1024" y="725" on="0"/>
        <pt x="837" y="936" on="0"/>
        <pt x="676" y="936" on="1"/>
        <pt x="520" y="936" on="0"/>
        <pt x="328" y="713" on="0"/>
      </contour>
    </TTGlyph>
    <TTGlyph name="glyph00081" xMin="8" yMin="0" xMax="965" yMax="1462">
      <contour>
        <pt x="965" y="0" on="1"/>
        <pt x="356" y="0" on="1"/>
        <pt x="356" y="717" on="1"/>
        <pt x="8" y="1462" on="1"/>
        <pt x="188" y="1462" on="1"/>
        <pt x="365" y="1079" on="1"/>
        <pt x="416" y="965" on="0"/>
        <pt x="446" y="883" on="1"/>
        <pt x="462" y="927" on="0"/>
        <pt x="503" y="1023" on="0"/>
        <pt x="707" y="1462" on="1"/>
        <pt x="887" y="1462" on="1"/>
        <pt x="539" y="717" on="1"/>
        <pt x="539" y="160" on="1"/>
        <pt x="965" y="160" on="1"/>
      </contour>
    </TTGlyph>
    <TTGlyph name="glyph00082" xMin="-70" yMin="0" xMax="965" yMax="1462">
      <contour>
        <pt x="965" y="0" on="1"/>
        <pt x="758" y="0" on="1"/>
        <pt x="681" y="0" on="0"/>
        <pt x="574" y="47" on="0"/>
        <pt x="512" y="117" on="1"/>
        <pt x="452" y="0" on="0"/>
        <pt x="289" y="0" on="1"/>
        <pt x="31" y="0" on="1"/>
        <pt x="14" y="0" on="0"/>
        <pt x="-51" y="20" on="0"/>
        <pt x="-70" y="33" on="1"/>
        <pt x="-70" y="160" on="1"/>
        <pt x="356" y="160" on="1"/>
        <pt x="356" y="717" on="1"/>
        <pt x="8" y="1462" on="1"/>
        <pt x="188" y="1462" on="1"/>
        <pt x="365" y="1079" on="1"/>
        <pt x="416" y="965" on="0"/>
        <pt x="446" y="883" on="1"/>
        <pt x="462" y="927" on="0"/>
        <pt x="503" y="1023" on="0"/>
        <pt x="707" y="1462" on="1"/>
        <pt x="887" y="1462" on="1"/>
        <pt x="539" y="717" on="1"/>
        <pt x="539" y="276" on="1"/>
        <pt x="590" y="160" on="0"/>
        <pt x="750" y="160" on="1"/>
        <pt x="965" y="160" on="1"/>
      </contour>
    </TTGlyph>
    <TTGlyph name="glyph00083" xMin="-70" yMin="0" xMax="887" yMax="1462">
      <contour>
        <pt x="31" y="0" on="1"/>
        <pt x="14" y="0" on="0"/>
        <pt x="-51" y="20" on="0"/>
        <pt x="-70" y="33" on="1"/>
        <pt x="-70" y="160" on="1"/>
        <pt x="356" y="160" on="1"/>
        <pt x="356" y="717" on="1"/>
        <pt x="8" y="1462" on="1"/>
        <pt x="188" y="1462" on="1"/>
        <pt x="365" y="1079" on="1"/>
        <pt x="416" y="965" on="0"/>
        <pt x="446" y="883" on="1"/>
        <pt x="462" y="927" on="0"/>
        <pt x="503" y="1023" on="0"/>
        <pt x="707" y="1462" on="1"/>
        <pt x="887" y="1462" on="1"/>
        <pt x="539" y="717" on="1"/>
        <pt x="539" y="240" on="1"/>
        <pt x="539" y="125" on="0"/>
        <pt x="405" y="0" on="0"/>
        <pt x="289" y="0" on="1"/>
      </contour>
    </TTGlyph>
    <TTGlyph name="glyph00084" xMin="63" yMin="0" xMax="1337" yMax="1051">
      <contour>
        <pt x="543" y="1051" on="1"/>
        <pt x="725" y="1051" on="1"/>
        <pt x="1130" y="160" on="1"/>
        <pt x="1337" y="160" on="1"/>
        <pt x="1337" y="0" on="1"/>
        <pt x="1008" y="0" on="1"/>
        <pt x="851" y="347" on="0"/>
        <pt x="680" y="724" on="0"/>
        <pt x="633" y="866" on="1"/>
        <pt x="571" y="690" on="0"/>
        <pt x="502" y="539" on="1"/>
        <pt x="260" y="0" on="1"/>
        <pt x="63" y="0" on="1"/>
      </contour>
    </TTGlyph>
    <TTGlyph name="glyph00085" xMin="-70" yMin="0" xMax="1337" yMax="1051">
      <contour>
        <pt x="-70" y="33" on="1"/>
        <pt x="-70" y="160" on="1"/>
        <pt x="135" y="160" on="1"/>
        <pt x="543" y="1051" on="1"/>
        <pt x="725" y="1051" on="1"/>
        <pt x="1130" y="160" on="1"/>
        <pt x="1337" y="160" on="1"/>
        <pt x="1337" y="0" on="1"/>
        <pt x="1008" y="0" on="1"/>
        <pt x="851" y="347" on="0"/>
        <pt x="680" y="724" on="0"/>
        <pt x="633" y="866" on="1"/>
        <pt x="571" y="690" on="0"/>
        <pt x="502" y="539" on="1"/>
        <pt x="260" y="0" on="1"/>
        <pt x="31" y="0" on="1"/>
        <pt x="14" y="0" on="0"/>
        <pt x="-51" y="20" on="0"/>
      </contour>
    </TTGlyph>
    <TTGlyph name="glyph00086" xMin="-70" yMin="0" xMax="1204" yMax="1051">
      <contour>
        <pt x="31" y="0" on="1"/>
        <pt x="14" y="0" on="0"/>
        <pt x="-51" y="20" on="0"/>
        <pt x="-70" y="33" on="1"/>
        <pt x="-70" y="160" on="1"/>
        <pt x="135" y="160" on="1"/>
        <pt x="543" y="1051" on="1"/>
        <pt x="725" y="1051" on="1"/>
        <pt x="1204" y="0" on="1"/>
        <pt x="1008" y="0" on="1"/>
        <pt x="851" y="347" on="0"/>
        <pt x="680" y="724" on="0"/>
        <pt x="633" y="866" on="1"/>
        <pt x="571" y="690" on="0"/>
        <pt x="502" y="539" on="1"/>
        <pt x="260" y="0" on="1"/>
      </contour>
    </TTGlyph>
    <TTGlyph name="glyph00087" xMin="180" yMin="0" xMax="1282" yMax="1051">
      <contour>
        <pt x="362" y="1051" on="1"/>
        <pt x="362" y="160" on="1"/>
        <pt x="852" y="160" on="1"/>
        <pt x="852" y="1051" on="1"/>
        <pt x="1034" y="1051" on="1"/>
        <pt x="1034" y="272" on="1"/>
        <pt x="1085" y="160" on="0"/>
        <pt x="1243" y="160" on="1"/>
        <pt x="1282" y="160" on="1"/>
        <pt x="1282" y="0" on="1"/>
        <pt x="1212" y="0" on="1"/>
        <pt x="1149" y="0" on="0"/>
        <pt x="1057" y="45" on="0"/>
        <pt x="1004" y="115" on="1"/>
        <pt x="945" y="0" on="0"/>
        <pt x="782" y="0" on="1"/>
        <pt x="180" y="0" on="1"/>
        <pt x="180" y="1051" on="1"/>
      </contour>
    </TTGlyph>
    <TTGlyph name="glyph00088" xMin="-70" yMin="0" xMax="1282" yMax="1051">
      <contour>
        <pt x="362" y="1051" on="1"/>
        <pt x="362" y="276" on="1"/>
        <pt x="415" y="160" on="0"/>
        <pt x="573" y="160" on="1"/>
        <pt x="852" y="160" on="1"/>
        <pt x="852" y="1051" on="1"/>
        <pt x="1034" y="1051" on="1"/>
        <pt x="1034" y="272" on="1"/>
        <pt x="1085" y="160" on="0"/>
        <pt x="1243" y="160" on="1"/>
        <pt x="1282" y="160" on="1"/>
        <pt x="1282" y="0" on="1"/>
        <pt x="1212" y="0" on="1"/>
        <pt x="1149" y="0" on="0"/>
        <pt x="1057" y="45" on="0"/>
        <pt x="1004" y="115" on="1"/>
        <pt x="945" y="0" on="0"/>
        <pt x="782" y="0" on="1"/>
        <pt x="543" y="0" on="1"/>
        <pt x="479" y="0" on="0"/>
        <pt x="387" y="45" on="0"/>
        <pt x="334" y="115" on="1"/>
        <pt x="275" y="0" on="0"/>
        <pt x="113" y="0" on="1"/>
        <pt x="31" y="0" on="1"/>
        <pt x="14" y="0" on="0"/>
        <pt x="-51" y="20" on="0"/>
        <pt x="-70" y="33" on="1"/>
        <pt x="-70" y="160" on="1"/>
        <pt x="180" y="160" on="1"/>
        <pt x="180" y="1051" on="1"/>
      </contour>
    </TTGlyph>
    <TTGlyph name="glyph00089" xMin="-70" yMin="0" xMax="1034" yMax="1051">
      <contour>
        <pt x="852" y="1051" on="1"/>
        <pt x="1034" y="1051" on="1"/>
        <pt x="1034" y="240" on="1"/>
        <pt x="1034" y="126" on="0"/>
        <pt x="902" y="0" on="0"/>
        <pt x="784" y="0" on="1"/>
        <pt x="543" y="0" on="1"/>
        <pt x="479" y="0" on="0"/>
        <pt x="387" y="45" on="0"/>
        <pt x="334" y="115" on="1"/>
        <pt x="275" y="0" on="0"/>
        <pt x="113" y="0" on="1"/>
        <pt x="31" y="0" on="1"/>
        <pt x="14" y="0" on="0"/>
        <pt x="-51" y="20" on="0"/>
        <pt x="-70" y="33" on="1"/>
        <pt x="-70" y="160" on="1"/>
        <pt x="180" y="160" on="1"/>
        <pt x="180" y="1051" on="1"/>
        <pt x="362" y="1051" on="1"/>
        <pt x="362" y="276" on="1"/>
        <pt x="415" y="160" on="0"/>
        <pt x="573" y="160" on="1"/>
        <pt x="852" y="160" on="1"/>
      </contour>
    </TTGlyph>
    <TTGlyph name="glyph00090" xMin="100" yMin="0" xMax="1198" yMax="1051">
      <contour>
        <pt x="948" y="276" on="1"/>
        <pt x="1001" y="160" on="0"/>
        <pt x="1159" y="160" on="1"/>
        <pt x="1198" y="160" on="1"/>
        <pt x="1198" y="0" on="1"/>
        <pt x="1128" y="0" on="1"/>
        <pt x="1065" y="0" on="0"/>
        <pt x="973" y="45" on="0"/>
        <pt x="920" y="115" on="1"/>
        <pt x="861" y="0" on="0"/>
        <pt x="698" y="0" on="1"/>
        <pt x="100" y="0" on="1"/>
        <pt x="100" y="160" on="1"/>
        <pt x="766" y="160" on="1"/>
        <pt x="766" y="891" on="1"/>
        <pt x="100" y="891" on="1"/>
        <pt x="100" y="1051" on="1"/>
        <pt x="948" y="1051" on="1"/>
      </contour>
    </TTGlyph>
    <TTGlyph name="glyph00091" xMin="-70" yMin="0" xMax="1198" yMax="1051">
      <contour>
        <pt x="31" y="0" on="1"/>
        <pt x="14" y="0" on="0"/>
        <pt x="-51" y="20" on="0"/>
        <pt x="-70" y="33" on="1"/>
        <pt x="-70" y="160" on="1"/>
        <pt x="766" y="160" on="1"/>
        <pt x="766" y="891" on="1"/>
        <pt x="100" y="891" on="1"/>
        <pt x="100" y="1051" on="1"/>
        <pt x="948" y="1051" on="1"/>
        <pt x="948" y="276" on="1"/>
        <pt x="1001" y="160" on="0"/>
        <pt x="1159" y="160" on="1"/>
        <pt x="1198" y="160" on="1"/>
        <pt x="1198" y="0" on="1"/>
        <pt x="1128" y="0" on="1"/>
        <pt x="1065" y="0" on="0"/>
        <pt x="973" y="45" on="0"/>
        <pt x="920" y="115" on="1"/>
        <pt x="861" y="0" on="0"/>
        <pt x="698" y="0" on="1"/>
      </contour>
    </TTGlyph>
    <TTGlyph name="glyph00092" xMin="-70" yMin="0" xMax="948" yMax="1051">
      <contour>
        <pt x="948" y="240" on="1"/>
        <pt x="948" y="126" on="0"/>
        <pt x="816" y="0" on="0"/>
        <pt x="698" y="0" on="1"/>
        <pt x="31" y="0" on="1"/>
        <pt x="14" y="0" on="0"/>
        <pt x="-51" y="20" on="0"/>
        <pt x="-70" y="33" on="1"/>
        <pt x="-70" y="160" on="1"/>
        <pt x="766" y="160" on="1"/>
        <pt x="766" y="891" on="1"/>
        <pt x="100" y="891" on="1"/>
        <pt x="100" y="1051" on="1"/>
        <pt x="948" y="1051" on="1"/>
      </contour>
    </TTGlyph>
    <TTGlyph name="glyph00093" xMin="127" yMin="0" xMax="1391" yMax="1462">
      <contour>
        <pt x="1391" y="0" on="1"/>
        <pt x="569" y="0" on="1"/>
        <pt x="569" y="625" on="1"/>
        <pt x="362" y="645" on="0"/>
        <pt x="127" y="862" on="0"/>
        <pt x="127" y="1038" on="1"/>
        <pt x="127" y="1166" on="0"/>
        <pt x="255" y="1358" on="0"/>
        <pt x="499" y="1462" on="0"/>
        <pt x="664" y="1462" on="1"/>
        <pt x="911" y="1462" on="0"/>
        <pt x="1194" y="1237" on="0"/>
        <pt x="1194" y="1038" on="1"/>
        <pt x="1194" y="863" on="0"/>
        <pt x="959" y="641" on="0"/>
        <pt x="752" y="623" on="1"/>
        <pt x="752" y="160" on="1"/>
        <pt x="1391" y="160" on="1"/>
      </contour>
      <contour>
        <pt x="662" y="1303" on="1"/>
        <pt x="498" y="1303" on="0"/>
        <pt x="309" y="1160" on="0"/>
        <pt x="309" y="1040" on="1"/>
        <pt x="309" y="919" on="0"/>
        <pt x="500" y="780" on="0"/>
        <pt x="670" y="780" on="1"/>
        <pt x="825" y="780" on="0"/>
        <pt x="1012" y="923" on="0"/>
        <pt x="1012" y="1038" on="1"/>
        <pt x="1012" y="1161" on="0"/>
        <pt x="823" y="1303" on="0"/>
      </contour>
    </TTGlyph>
    <TTGlyph name="glyph00094" xMin="-70" yMin="0" xMax="1391" yMax="1462">
      <contour>
        <pt x="31" y="0" on="1"/>
        <pt x="14" y="0" on="0"/>
        <pt x="-51" y="20" on="0"/>
        <pt x="-70" y="33" on="1"/>
        <pt x="-70" y="160" on="1"/>
        <pt x="569" y="160" on="1"/>
        <pt x="569" y="625" on="1"/>
        <pt x="362" y="645" on="0"/>
        <pt x="127" y="862" on="0"/>
        <pt x="127" y="1038" on="1"/>
        <pt x="127" y="1166" on="0"/>
        <pt x="255" y="1358" on="0"/>
        <pt x="499" y="1462" on="0"/>
        <pt x="664" y="1462" on="1"/>
        <pt x="911" y="1462" on="0"/>
        <pt x="1194" y="1237" on="0"/>
        <pt x="1194" y="1038" on="1"/>
        <pt x="1194" y="863" on="0"/>
        <pt x="959" y="641" on="0"/>
        <pt x="752" y="623" on="1"/>
        <pt x="752" y="272" on="1"/>
        <pt x="803" y="160" on="0"/>
        <pt x="961" y="160" on="1"/>
        <pt x="1391" y="160" on="1"/>
        <pt x="1391" y="0" on="1"/>
        <pt x="969" y="0" on="1"/>
        <pt x="894" y="0" on="0"/>
        <pt x="787" y="46" on="0"/>
        <pt x="725" y="115" on="1"/>
        <pt x="666" y="0" on="0"/>
        <pt x="502" y="0" on="1"/>
      </contour>
      <contour>
        <pt x="662" y="1303" on="1"/>
        <pt x="498" y="1303" on="0"/>
        <pt x="309" y="1160" on="0"/>
        <pt x="309" y="1040" on="1"/>
        <pt x="309" y="919" on="0"/>
        <pt x="500" y="780" on="0"/>
        <pt x="670" y="780" on="1"/>
        <pt x="825" y="780" on="0"/>
        <pt x="1012" y="923" on="0"/>
        <pt x="1012" y="1038" on="1"/>
        <pt x="1012" y="1161" on="0"/>
        <pt x="823" y="1303" on="0"/>
      </contour>
    </TTGlyph>
    <TTGlyph name="glyph00095" xMin="-70" yMin="0" xMax="1194" yMax="1462">
      <contour>
        <pt x="31" y="0" on="1"/>
        <pt x="14" y="0" on="0"/>
        <pt x="-51" y="20" on="0"/>
        <pt x="-70" y="33" on="1"/>
        <pt x="-70" y="160" on="1"/>
        <pt x="569" y="160" on="1"/>
        <pt x="569" y="625" on="1"/>
        <pt x="362" y="645" on="0"/>
        <pt x="127" y="862" on="0"/>
        <pt x="127" y="1038" on="1"/>
        <pt x="127" y="1166" on="0"/>
        <pt x="255" y="1358" on="0"/>
        <pt x="499" y="1462" on="0"/>
        <pt x="664" y="1462" on="1"/>
        <pt x="911" y="1462" on="0"/>
        <pt x="1194" y="1237" on="0"/>
        <pt x="1194" y="1038" on="1"/>
        <pt x="1194" y="863" on="0"/>
        <pt x="959" y="641" on="0"/>
        <pt x="752" y="623" on="1"/>
        <pt x="752" y="240" on="1"/>
        <pt x="752" y="125" on="0"/>
        <pt x="618" y="0" on="0"/>
        <pt x="502" y="0" on="1"/>
      </contour>
      <contour>
        <pt x="662" y="1303" on="1"/>
        <pt x="498" y="1303" on="0"/>
        <pt x="309" y="1160" on="0"/>
        <pt x="309" y="1040" on="1"/>
        <pt x="309" y="919" on="0"/>
        <pt x="500" y="780" on="0"/>
        <pt x="670" y="780" on="1"/>
        <pt x="825" y="780" on="0"/>
        <pt x="1012" y="923" on="0"/>
        <pt x="1012" y="1038" on="1"/>
        <pt x="1012" y="1161" on="0"/>
        <pt x="823" y="1303" on="0"/>
      </contour>
    </TTGlyph>
    <TTGlyph name="glyph00096" xMin="102" yMin="0" xMax="1135" yMax="1370">
      <contour>
        <pt x="1135" y="0" on="1"/>
        <pt x="102" y="0" on="1"/>
        <pt x="102" y="160" on="1"/>
        <pt x="1135" y="160" on="1"/>
      </contour>
      <contour>
        <pt x="430" y="750" on="1"/>
        <pt x="416" y="772" on="1"/>
        <pt x="439" y="884" on="0"/>
        <pt x="533" y="1209" on="0"/>
        <pt x="592" y="1370" on="1"/>
        <pt x="725" y="1370" on="1"/>
        <pt x="694" y="1223" on="0"/>
        <pt x="634" y="858" on="0"/>
        <pt x="623" y="750" on="1"/>
      </contour>
    </TTGlyph>
    <TTGlyph name="glyph00097" xMin="-70" yMin="0" xMax="1135" yMax="1370">
      <contour>
        <pt x="31" y="0" on="1"/>
        <pt x="14" y="0" on="0"/>
        <pt x="-51" y="20" on="0"/>
        <pt x="-70" y="33" on="1"/>
        <pt x="-70" y="160" on="1"/>
        <pt x="1135" y="160" on="1"/>
        <pt x="1135" y="0" on="1"/>
      </contour>
      <contour>
        <pt x="430" y="750" on="1"/>
        <pt x="416" y="772" on="1"/>
        <pt x="439" y="884" on="0"/>
        <pt x="533" y="1209" on="0"/>
        <pt x="592" y="1370" on="1"/>
        <pt x="725" y="1370" on="1"/>
        <pt x="694" y="1223" on="0"/>
        <pt x="634" y="858" on="0"/>
        <pt x="623" y="750" on="1"/>
      </contour>
    </TTGlyph>
    <TTGlyph name="glyph00098" xMin="-70" yMin="0" xMax="965" yMax="1370">
      <contour>
        <pt x="31" y="0" on="1"/>
        <pt x="14" y="0" on="0"/>
        <pt x="-51" y="20" on="0"/>
        <pt x="-70" y="33" on="1"/>
        <pt x="-70" y="160" on="1"/>
        <pt x="965" y="160" on="1"/>
        <pt x="965" y="0" on="1"/>
      </contour>
      <contour>
        <pt x="430" y="750" on="1"/>
        <pt x="416" y="772" on="1"/>
        <pt x="439" y="884" on="0"/>
        <pt x="533" y="1209" on="0"/>
        <pt x="592" y="1370" on="1"/>
        <pt x="725" y="1370" on="1"/>
        <pt x="694" y="1223" on="0"/>
        <pt x="634" y="858" on="0"/>
        <pt x="623" y="750" on="1"/>
      </contour>
    </TTGlyph>
    <TTGlyph name="glyph00099" xMin="94" yMin="0" xMax="1473" yMax="1462">
      <contour>
        <pt x="1473" y="0" on="1"/>
        <pt x="1040" y="0" on="1"/>
        <pt x="1040" y="770" on="1"/>
        <pt x="795" y="770" on="1"/>
        <pt x="795" y="500" on="1"/>
        <pt x="612" y="500" on="1"/>
        <pt x="612" y="772" on="1"/>
        <pt x="481" y="772" on="1"/>
        <pt x="300" y="772" on="0"/>
        <pt x="94" y="957" on="0"/>
        <pt x="94" y="1126" on="1"/>
        <pt x="94" y="1279" on="0"/>
        <pt x="292" y="1462" on="0"/>
        <pt x="451" y="1462" on="1"/>
        <pt x="612" y="1462" on="0"/>
        <pt x="795" y="1270" on="0"/>
        <pt x="795" y="1096" on="1"/>
        <pt x="795" y="932" on="1"/>
        <pt x="1223" y="932" on="1"/>
        <pt x="1223" y="160" on="1"/>
        <pt x="1473" y="160" on="1"/>
      </contour>
      <contour>
        <pt x="276" y="1122" on="1"/>
        <pt x="276" y="1034" on="0"/>
        <pt x="387" y="932" on="0"/>
        <pt x="494" y="932" on="1"/>
        <pt x="612" y="932" on="1"/>
        <pt x="612" y="1114" on="1"/>
        <pt x="612" y="1204" on="0"/>
        <pt x="523" y="1303" on="0"/>
        <pt x="444" y="1303" on="1"/>
        <pt x="367" y="1303" on="0"/>
        <pt x="276" y="1206" on="0"/>
      </contour>
    </TTGlyph>
    <TTGlyph name="glyph00100" xMin="-70" yMin="0" xMax="1473" yMax="1462">
      <contour>
        <pt x="31" y="0" on="1"/>
        <pt x="14" y="0" on="0"/>
        <pt x="-51" y="20" on="0"/>
        <pt x="-70" y="33" on="1"/>
        <pt x="-70" y="160" on="1"/>
        <pt x="1040" y="160" on="1"/>
        <pt x="1040" y="770" on="1"/>
        <pt x="795" y="770" on="1"/>
        <pt x="795" y="500" on="1"/>
        <pt x="612" y="500" on="1"/>
        <pt x="612" y="772" on="1"/>
        <pt x="481" y="772" on="1"/>
        <pt x="300" y="772" on="0"/>
        <pt x="94" y="957" on="0"/>
        <pt x="94" y="1126" on="1"/>
        <pt x="94" y="1279" on="0"/>
        <pt x="292" y="1462" on="0"/>
        <pt x="451" y="1462" on="1"/>
        <pt x="612" y="1462" on="0"/>
        <pt x="795" y="1270" on="0"/>
        <pt x="795" y="1096" on="1"/>
        <pt x="795" y="932" on="1"/>
        <pt x="1223" y="932" on="1"/>
        <pt x="1223" y="276" on="1"/>
        <pt x="1274" y="160" on="0"/>
        <pt x="1434" y="160" on="1"/>
        <pt x="1473" y="160" on="1"/>
        <pt x="1473" y="0" on="1"/>
        <pt x="1403" y="0" on="1"/>
        <pt x="1339" y="0" on="0"/>
        <pt x="1247" y="45" on="0"/>
        <pt x="1194" y="115" on="1"/>
        <pt x="1135" y="0" on="0"/>
        <pt x="973" y="0" on="1"/>
      </contour>
      <contour>
        <pt x="276" y="1122" on="1"/>
        <pt x="276" y="1034" on="0"/>
        <pt x="387" y="932" on="0"/>
        <pt x="494" y="932" on="1"/>
        <pt x="612" y="932" on="1"/>
        <pt x="612" y="1114" on="1"/>
        <pt x="612" y="1204" on="0"/>
        <pt x="523" y="1303" on="0"/>
        <pt x="444" y="1303" on="1"/>
        <pt x="367" y="1303" on="0"/>
        <pt x="276" y="1206" on="0"/>
      </contour>
    </TTGlyph>
    <TTGlyph name="glyph00101" xMin="-70" yMin="0" xMax="1223" yMax="1462">
      <contour>
        <pt x="31" y="0" on="1"/>
        <pt x="14" y="0" on="0"/>
        <pt x="-51" y="20" on="0"/>
        <pt x="-70" y="33" on="1"/>
        <pt x="-70" y="160" on="1"/>
        <pt x="1040" y="160" on="1"/>
        <pt x="1040" y="770" on="1"/>
        <pt x="795" y="770" on="1"/>
        <pt x="795" y="500" on="1"/>
        <pt x="612" y="500" on="1"/>
        <pt x="612" y="772" on="1"/>
        <pt x="481" y="772" on="1"/>
        <pt x="300" y="772" on="0"/>
        <pt x="94" y="957" on="0"/>
        <pt x="94" y="1126" on="1"/>
        <pt x="94" y="1279" on="0"/>
        <pt x="292" y="1462" on="0"/>
        <pt x="451" y="1462" on="1"/>
        <pt x="612" y="1462" on="0"/>
        <pt x="795" y="1270" on="0"/>
        <pt x="795" y="1096" on="1"/>
        <pt x="795" y="932" on="1"/>
        <pt x="1223" y="932" on="1"/>
        <pt x="1223" y="240" on="1"/>
        <pt x="1223" y="125" on="0"/>
        <pt x="1089" y="0" on="0"/>
        <pt x="973" y="0" on="1"/>
      </contour>
      <contour>
        <pt x="276" y="1122" on="1"/>
        <pt x="276" y="1034" on="0"/>
        <pt x="387" y="932" on="0"/>
        <pt x="494" y="932" on="1"/>
        <pt x="612" y="932" on="1"/>
        <pt x="612" y="1114" on="1"/>
        <pt x="612" y="1204" on="0"/>
        <pt x="523" y="1303" on="0"/>
        <pt x="444" y="1303" on="1"/>
        <pt x="367" y="1303" on="0"/>
        <pt x="276" y="1206" on="0"/>
      </contour>
    </TTGlyph>
    <TTGlyph name="glyph00102" xMin="180" yMin="0" xMax="928" yMax="1462">
      <contour>
        <pt x="719" y="721" on="1"/>
        <pt x="362" y="721" on="1"/>
        <pt x="362" y="160" on="1"/>
        <pt x="928" y="160" on="1"/>
        <pt x="928" y="0" on="1"/>
        <pt x="180" y="0" on="1"/>
        <pt x="180" y="1462" on="1"/>
        <pt x="719" y="1462" on="1"/>
        <pt x="719" y="1303" on="1"/>
        <pt x="362" y="1303" on="1"/>
        <pt x="362" y="881" on="1"/>
        <pt x="719" y="881" on="1"/>
      </contour>
    </TTGlyph>
    <TTGlyph name="glyph00103" xMin="-70" yMin="0" xMax="928" yMax="1462">
      <contour>
        <pt x="31" y="0" on="1"/>
        <pt x="14" y="0" on="0"/>
        <pt x="-51" y="20" on="0"/>
        <pt x="-70" y="33" on="1"/>
        <pt x="-70" y="160" on="1"/>
        <pt x="180" y="160" on="1"/>
        <pt x="180" y="1462" on="1"/>
        <pt x="719" y="1462" on="1"/>
        <pt x="719" y="1303" on="1"/>
        <pt x="362" y="1303" on="1"/>
        <pt x="362" y="881" on="1"/>
        <pt x="719" y="881" on="1"/>
        <pt x="719" y="721" on="1"/>
        <pt x="362" y="721" on="1"/>
        <pt x="362" y="276" on="1"/>
        <pt x="415" y="160" on="0"/>
        <pt x="573" y="160" on="1"/>
        <pt x="928" y="160" on="1"/>
        <pt x="928" y="0" on="1"/>
        <pt x="582" y="0" on="1"/>
        <pt x="505" y="0" on="0"/>
        <pt x="398" y="47" on="0"/>
        <pt x="336" y="117" on="1"/>
        <pt x="276" y="0" on="0"/>
        <pt x="113" y="0" on="1"/>
      </contour>
    </TTGlyph>
    <TTGlyph name="glyph00104" xMin="-70" yMin="0" xMax="719" yMax="1462">
      <contour>
        <pt x="31" y="0" on="1"/>
        <pt x="14" y="0" on="0"/>
        <pt x="-51" y="20" on="0"/>
        <pt x="-70" y="33" on="1"/>
        <pt x="-70" y="160" on="1"/>
        <pt x="180" y="160" on="1"/>
        <pt x="180" y="1462" on="1"/>
        <pt x="719" y="1462" on="1"/>
        <pt x="719" y="1303" on="1"/>
        <pt x="362" y="1303" on="1"/>
        <pt x="362" y="881" on="1"/>
        <pt x="719" y="881" on="1"/>
        <pt x="719" y="721" on="1"/>
        <pt x="362" y="721" on="1"/>
        <pt x="362" y="240" on="1"/>
        <pt x="362" y="126" on="0"/>
        <pt x="230" y="0" on="0"/>
        <pt x="113" y="0" on="1"/>
      </contour>
    </TTGlyph>
    <TTGlyph name="glyph00105" xMin="139" yMin="0" xMax="928" yMax="1462">
      <contour>
        <pt x="139" y="1462" on="1"/>
        <pt x="678" y="1462" on="1"/>
        <pt x="678" y="160" on="1"/>
        <pt x="928" y="160" on="1"/>
        <pt x="928" y="0" on="1"/>
        <pt x="496" y="0" on="1"/>
        <pt x="496" y="721" on="1"/>
        <pt x="139" y="721" on="1"/>
        <pt x="139" y="881" on="1"/>
        <pt x="496" y="881" on="1"/>
        <pt x="496" y="1303" on="1"/>
        <pt x="139" y="1303" on="1"/>
      </contour>
    </TTGlyph>
    <TTGlyph name="glyph00106" xMin="-70" yMin="0" xMax="928" yMax="1462">
      <contour>
        <pt x="139" y="1462" on="1"/>
        <pt x="678" y="1462" on="1"/>
        <pt x="678" y="276" on="1"/>
        <pt x="731" y="160" on="0"/>
        <pt x="889" y="160" on="1"/>
        <pt x="928" y="160" on="1"/>
        <pt x="928" y="0" on="1"/>
        <pt x="858" y="0" on="1"/>
        <pt x="793" y="0" on="0"/>
        <pt x="700" y="47" on="0"/>
        <pt x="649" y="115" on="1"/>
        <pt x="590" y="0" on="0"/>
        <pt x="428" y="0" on="1"/>
        <pt x="31" y="0" on="1"/>
        <pt x="14" y="0" on="0"/>
        <pt x="-51" y="20" on="0"/>
        <pt x="-70" y="33" on="1"/>
        <pt x="-70" y="160" on="1"/>
        <pt x="496" y="160" on="1"/>
        <pt x="496" y="721" on="1"/>
        <pt x="139" y="721" on="1"/>
        <pt x="139" y="881" on="1"/>
        <pt x="496" y="881" on="1"/>
        <pt x="496" y="1303" on="1"/>
        <pt x="139" y="1303" on="1"/>
      </contour>
    </TTGlyph>
    <TTGlyph name="glyph00107" xMin="-70" yMin="0" xMax="678" yMax="1462">
      <contour>
        <pt x="139" y="1462" on="1"/>
        <pt x="678" y="1462" on="1"/>
        <pt x="678" y="240" on="1"/>
        <pt x="678" y="125" on="0"/>
        <pt x="544" y="0" on="0"/>
        <pt x="428" y="0" on="1"/>
        <pt x="31" y="0" on="1"/>
        <pt x="14" y="0" on="0"/>
        <pt x="-51" y="20" on="0"/>
        <pt x="-70" y="33" on="1"/>
        <pt x="-70" y="160" on="1"/>
        <pt x="496" y="160" on="1"/>
        <pt x="496" y="721" on="1"/>
        <pt x="139" y="721" on="1"/>
        <pt x="139" y="881" on="1"/>
        <pt x="496" y="881" on="1"/>
        <pt x="496" y="1303" on="1"/>
        <pt x="139" y="1303" on="1"/>
      </contour>
    </TTGlyph>
    <TTGlyph name="glyph00108" xMin="180" yMin="0" xMax="1225" yMax="1462">
      <contour>
        <pt x="1225" y="0" on="1"/>
        <pt x="1085" y="0" on="1"/>
        <pt x="1022" y="0" on="0"/>
        <pt x="932" y="45" on="0"/>
        <pt x="877" y="117" on="1"/>
        <pt x="754" y="0" on="0"/>
        <pt x="553" y="0" on="1"/>
        <pt x="180" y="0" on="1"/>
        <pt x="180" y="1462" on="1"/>
        <pt x="362" y="1462" on="1"/>
        <pt x="362" y="883" on="1"/>
        <pt x="547" y="883" on="1"/>
        <pt x="774" y="883" on="0"/>
        <pt x="1010" y="653" on="0"/>
        <pt x="1010" y="440" on="1"/>
        <pt x="1010" y="314" on="0"/>
        <pt x="950" y="211" on="1"/>
        <pt x="1007" y="160" on="0"/>
        <pt x="1116" y="160" on="1"/>
        <pt x="1225" y="160" on="1"/>
      </contour>
      <contour>
        <pt x="362" y="723" on="1"/>
        <pt x="362" y="160" on="1"/>
        <pt x="559" y="160" on="1"/>
        <pt x="684" y="160" on="0"/>
        <pt x="823" y="309" on="0"/>
        <pt x="823" y="440" on="1"/>
        <pt x="823" y="572" on="0"/>
        <pt x="680" y="723" on="0"/>
        <pt x="545" y="723" on="1"/>
      </contour>
    </TTGlyph>
    <TTGlyph name="glyph00109" xMin="-70" yMin="0" xMax="1225" yMax="1462">
      <contour>
        <pt x="31" y="0" on="1"/>
        <pt x="14" y="0" on="0"/>
        <pt x="-51" y="20" on="0"/>
        <pt x="-70" y="33" on="1"/>
        <pt x="-70" y="160" on="1"/>
        <pt x="180" y="160" on="1"/>
        <pt x="180" y="1462" on="1"/>
        <pt x="362" y="1462" on="1"/>
        <pt x="362" y="883" on="1"/>
        <pt x="547" y="883" on="1"/>
        <pt x="774" y="883" on="0"/>
        <pt x="1010" y="653" on="0"/>
        <pt x="1010" y="440" on="1"/>
        <pt x="1010" y="314" on="0"/>
        <pt x="950" y="211" on="1"/>
        <pt x="1007" y="160" on="0"/>
        <pt x="1116" y="160" on="1"/>
        <pt x="1225" y="160" on="1"/>
        <pt x="1225" y="0" on="1"/>
        <pt x="1124" y="0" on="1"/>
        <pt x="1050" y="0" on="0"/>
        <pt x="946" y="44" on="0"/>
        <pt x="877" y="117" on="1"/>
        <pt x="753" y="0" on="0"/>
        <pt x="553" y="0" on="1"/>
      </contour>
      <contour>
        <pt x="362" y="723" on="1"/>
        <pt x="362" y="160" on="1"/>
        <pt x="559" y="160" on="1"/>
        <pt x="684" y="160" on="0"/>
        <pt x="823" y="309" on="0"/>
        <pt x="823" y="440" on="1"/>
        <pt x="823" y="572" on="0"/>
        <pt x="680" y="723" on="0"/>
        <pt x="545" y="723" on="1"/>
      </contour>
    </TTGlyph>
    <TTGlyph name="glyph00110" xMin="-70" yMin="0" xMax="1010" yMax="1462">
      <contour>
        <pt x="31" y="0" on="1"/>
        <pt x="14" y="0" on="0"/>
        <pt x="-51" y="20" on="0"/>
        <pt x="-70" y="33" on="1"/>
        <pt x="-70" y="160" on="1"/>
        <pt x="180" y="160" on="1"/>
        <pt x="180" y="1462" on="1"/>
        <pt x="362" y="1462" on="1"/>
        <pt x="362" y="883" on="1"/>
        <pt x="547" y="883" on="1"/>
        <pt x="774" y="883" on="0"/>
        <pt x="1010" y="653" on="0"/>
        <pt x="1010" y="440" on="1"/>
        <pt x="1010" y="317" on="0"/>
        <pt x="898" y="114" on="0"/>
        <pt x="692" y="0" on="0"/>
        <pt x="553" y="0" on="1"/>
      </contour>
      <contour>
        <pt x="362" y="723" on="1"/>
        <pt x="362" y="160" on="1"/>
        <pt x="559" y="160" on="1"/>
        <pt x="684" y="160" on="0"/>
        <pt x="823" y="309" on="0"/>
        <pt x="823" y="440" on="1"/>
        <pt x="823" y="572" on="0"/>
        <pt x="680" y="723" on="0"/>
        <pt x="545" y="723" on="1"/>
      </contour>
    </TTGlyph>
    <TTGlyph name="glyph00111" xMin="80" yMin="0" xMax="1067" yMax="1462">
      <contour>
        <pt x="1067" y="0" on="1"/>
        <pt x="592" y="0" on="1"/>
        <pt x="592" y="254" on="1"/>
        <pt x="592" y="483" on="0"/>
        <pt x="503" y="809" on="0"/>
        <pt x="296" y="1108" on="0"/>
        <pt x="80" y="1303" on="1"/>
        <pt x="80" y="1462" on="1"/>
        <pt x="895" y="1462" on="1"/>
        <pt x="895" y="1303" on="1"/>
        <pt x="299" y="1303" on="1"/>
        <pt x="774" y="882" on="0"/>
        <pt x="774" y="254" on="1"/>
        <pt x="774" y="160" on="1"/>
        <pt x="1067" y="160" on="1"/>
      </contour>
    </TTGlyph>
    <TTGlyph name="glyph00112" xMin="-70" yMin="0" xMax="1067" yMax="1462">
      <contour>
        <pt x="31" y="0" on="1"/>
        <pt x="14" y="0" on="0"/>
        <pt x="-51" y="20" on="0"/>
        <pt x="-70" y="33" on="1"/>
        <pt x="-70" y="160" on="1"/>
        <pt x="592" y="160" on="1"/>
        <pt x="592" y="254" on="1"/>
        <pt x="592" y="483" on="0"/>
        <pt x="503" y="809" on="0"/>
        <pt x="296" y="1108" on="0"/>
        <pt x="80" y="1303" on="1"/>
        <pt x="80" y="1462" on="1"/>
        <pt x="895" y="1462" on="1"/>
        <pt x="895" y="1303" on="1"/>
        <pt x="299" y="1303" on="1"/>
        <pt x="764" y="890" on="0"/>
        <pt x="774" y="276" on="1"/>
        <pt x="827" y="160" on="0"/>
        <pt x="985" y="160" on="1"/>
        <pt x="1067" y="160" on="1"/>
        <pt x="1067" y="0" on="1"/>
        <pt x="954" y="0" on="1"/>
        <pt x="889" y="0" on="0"/>
        <pt x="796" y="47" on="0"/>
        <pt x="745" y="115" on="1"/>
        <pt x="688" y="0" on="0"/>
        <pt x="524" y="0" on="1"/>
      </contour>
    </TTGlyph>
    <TTGlyph name="glyph00113" xMin="-70" yMin="0" xMax="895" yMax="1462">
      <contour>
        <pt x="31" y="0" on="1"/>
        <pt x="14" y="0" on="0"/>
        <pt x="-51" y="20" on="0"/>
        <pt x="-70" y="33" on="1"/>
        <pt x="-70" y="160" on="1"/>
        <pt x="592" y="160" on="1"/>
        <pt x="592" y="254" on="1"/>
        <pt x="592" y="483" on="0"/>
        <pt x="503" y="809" on="0"/>
        <pt x="296" y="1108" on="0"/>
        <pt x="80" y="1303" on="1"/>
        <pt x="80" y="1462" on="1"/>
        <pt x="895" y="1462" on="1"/>
        <pt x="895" y="1303" on="1"/>
        <pt x="299" y="1303" on="1"/>
        <pt x="774" y="882" on="0"/>
        <pt x="774" y="254" on="1"/>
        <pt x="774" y="240" on="1"/>
        <pt x="774" y="126" on="0"/>
        <pt x="642" y="0" on="0"/>
        <pt x="524" y="0" on="1"/>
      </contour>
    </TTGlyph>
    <TTGlyph name="glyph00114" xMin="72" yMin="0" xMax="842" yMax="1462">
      <contour>
        <pt x="410" y="1016" on="1"/>
        <pt x="410" y="1131" on="0"/>
        <pt x="414" y="1239" on="1"/>
        <pt x="408" y="1223" on="0"/>
        <pt x="384" y="1172" on="0"/>
        <pt x="348" y="1099" on="0"/>
        <pt x="215" y="864" on="1"/>
        <pt x="72" y="942" on="1"/>
        <pt x="367" y="1462" on="1"/>
        <pt x="592" y="1462" on="1"/>
        <pt x="592" y="160" on="1"/>
        <pt x="842" y="160" on="1"/>
        <pt x="842" y="0" on="1"/>
        <pt x="410" y="0" on="1"/>
      </contour>
    </TTGlyph>
    <TTGlyph name="glyph00115" xMin="-70" yMin="0" xMax="842" yMax="1462">
      <contour>
        <pt x="31" y="0" on="1"/>
        <pt x="14" y="0" on="0"/>
        <pt x="-51" y="20" on="0"/>
        <pt x="-70" y="33" on="1"/>
        <pt x="-70" y="160" on="1"/>
        <pt x="410" y="160" on="1"/>
        <pt x="410" y="1016" on="1"/>
        <pt x="410" y="1131" on="0"/>
        <pt x="414" y="1239" on="1"/>
        <pt x="408" y="1223" on="0"/>
        <pt x="384" y="1172" on="0"/>
        <pt x="348" y="1099" on="0"/>
        <pt x="215" y="864" on="1"/>
        <pt x="72" y="942" on="1"/>
        <pt x="367" y="1462" on="1"/>
        <pt x="592" y="1462" on="1"/>
        <pt x="592" y="276" on="1"/>
        <pt x="645" y="160" on="0"/>
        <pt x="803" y="160" on="1"/>
        <pt x="842" y="160" on="1"/>
        <pt x="842" y="0" on="1"/>
        <pt x="772" y="0" on="1"/>
        <pt x="707" y="0" on="0"/>
        <pt x="614" y="47" on="0"/>
        <pt x="563" y="115" on="1"/>
        <pt x="504" y="0" on="0"/>
        <pt x="342" y="0" on="1"/>
      </contour>
    </TTGlyph>
    <TTGlyph name="glyph00116" xMin="-70" yMin="0" xMax="592" yMax="1462">
      <contour>
        <pt x="31" y="0" on="1"/>
        <pt x="14" y="0" on="0"/>
        <pt x="-51" y="20" on="0"/>
        <pt x="-70" y="33" on="1"/>
        <pt x="-70" y="160" on="1"/>
        <pt x="410" y="160" on="1"/>
        <pt x="410" y="1016" on="1"/>
        <pt x="410" y="1131" on="0"/>
        <pt x="414" y="1239" on="1"/>
        <pt x="408" y="1223" on="0"/>
        <pt x="384" y="1172" on="0"/>
        <pt x="348" y="1099" on="0"/>
        <pt x="215" y="864" on="1"/>
        <pt x="72" y="942" on="1"/>
        <pt x="367" y="1462" on="1"/>
        <pt x="592" y="1462" on="1"/>
        <pt x="592" y="240" on="1"/>
        <pt x="592" y="125" on="0"/>
        <pt x="458" y="0" on="0"/>
        <pt x="342" y="0" on="1"/>
      </contour>
    </TTGlyph>
    <TTGlyph name="glyph00117" xMin="180" yMin="0" xMax="1735" yMax="1065">
      <contour>
        <pt x="180" y="0" on="1"/>
        <pt x="180" y="489" on="1"/>
        <pt x="180" y="726" on="0"/>
        <pt x="352" y="952" on="0"/>
        <pt x="506" y="952" on="1"/>
        <pt x="591" y="952" on="0"/>
        <pt x="716" y="884" on="0"/>
        <pt x="745" y="831" on="1"/>
        <pt x="761" y="883" on="0"/>
        <pt x="819" y="969" on="0"/>
        <pt x="900" y="1031" on="0"/>
        <pt x="1003" y="1065" on="0"/>
        <pt x="1065" y="1065" on="1"/>
        <pt x="1153" y="1065" on="0"/>
        <pt x="1293" y="1010" on="0"/>
        <pt x="1390" y="897" on="0"/>
        <pt x="1442" y="725" on="0"/>
        <pt x="1442" y="608" on="1"/>
        <pt x="1442" y="276" on="1"/>
        <pt x="1495" y="160" on="0"/>
        <pt x="1653" y="160" on="1"/>
        <pt x="1735" y="160" on="1"/>
        <pt x="1735" y="0" on="1"/>
        <pt x="1622" y="0" on="1"/>
        <pt x="1583" y="0" on="0"/>
        <pt x="1525" y="15" on="0"/>
        <pt x="1477" y="43" on="0"/>
        <pt x="1435" y="86" on="0"/>
        <pt x="1413" y="115" on="1"/>
        <pt x="1382" y="55" on="0"/>
        <pt x="1266" y="0" on="0"/>
        <pt x="1192" y="0" on="1"/>
      </contour>
      <contour>
        <pt x="860" y="160" on="1"/>
        <pt x="1260" y="160" on="1"/>
        <pt x="1260" y="631" on="1"/>
        <pt x="1260" y="760" on="0"/>
        <pt x="1167" y="905" on="0"/>
        <pt x="1063" y="905" on="1"/>
        <pt x="1011" y="905" on="0"/>
        <pt x="934" y="864" on="0"/>
        <pt x="884" y="788" on="0"/>
        <pt x="860" y="682" on="0"/>
        <pt x="860" y="616" on="1"/>
      </contour>
      <contour>
        <pt x="362" y="160" on="1"/>
        <pt x="678" y="160" on="1"/>
        <pt x="678" y="516" on="1"/>
        <pt x="678" y="580" on="0"/>
        <pt x="663" y="682" on="0"/>
        <pt x="626" y="754" on="0"/>
        <pt x="565" y="793" on="0"/>
        <pt x="520" y="793" on="1"/>
        <pt x="471" y="793" on="0"/>
        <pt x="409" y="749" on="0"/>
        <pt x="375" y="671" on="0"/>
        <pt x="362" y="564" on="0"/>
        <pt x="362" y="502" on="1"/>
      </contour>
    </TTGlyph>
    <TTGlyph name="glyph00118" xMin="-70" yMin="0" xMax="1735" yMax="1065">
      <contour>
        <pt x="31" y="0" on="1"/>
        <pt x="22" y="0" on="0"/>
        <pt x="-6" y="6" on="0"/>
        <pt x="-35" y="15" on="0"/>
        <pt x="-61" y="27" on="0"/>
        <pt x="-70" y="33" on="1"/>
        <pt x="-70" y="160" on="1"/>
        <pt x="180" y="160" on="1"/>
        <pt x="180" y="489" on="1"/>
        <pt x="180" y="726" on="0"/>
        <pt x="352" y="952" on="0"/>
        <pt x="506" y="952" on="1"/>
        <pt x="591" y="952" on="0"/>
        <pt x="716" y="884" on="0"/>
        <pt x="745" y="831" on="1"/>
        <pt x="761" y="883" on="0"/>
        <pt x="819" y="969" on="0"/>
        <pt x="900" y="1031" on="0"/>
        <pt x="1003" y="1065" on="0"/>
        <pt x="1065" y="1065" on="1"/>
        <pt x="1153" y="1065" on="0"/>
        <pt x="1293" y="1010" on="0"/>
        <pt x="1390" y="897" on="0"/>
        <pt x="1442" y="725" on="0"/>
        <pt x="1442" y="608" on="1"/>
        <pt x="1442" y="276" on="1"/>
        <pt x="1495" y="160" on="0"/>
        <pt x="1653" y="160" on="1"/>
        <pt x="1735" y="160" on="1"/>
        <pt x="1735" y="0" on="1"/>
        <pt x="1622" y="0" on="1"/>
        <pt x="1583" y="0" on="0"/>
        <pt x="1525" y="15" on="0"/>
        <pt x="1477" y="43" on="0"/>
        <pt x="1435" y="86" on="0"/>
        <pt x="1413" y="115" on="1"/>
        <pt x="1382" y="55" on="0"/>
        <pt x="1266" y="0" on="0"/>
        <pt x="1192" y="0" on="1"/>
      </contour>
      <contour>
        <pt x="860" y="160" on="1"/>
        <pt x="1260" y="160" on="1"/>
        <pt x="1260" y="631" on="1"/>
        <pt x="1260" y="760" on="0"/>
        <pt x="1167" y="905" on="0"/>
        <pt x="1063" y="905" on="1"/>
        <pt x="1011" y="905" on="0"/>
        <pt x="934" y="864" on="0"/>
        <pt x="884" y="788" on="0"/>
        <pt x="860" y="682" on="0"/>
        <pt x="860" y="616" on="1"/>
      </contour>
      <contour>
        <pt x="362" y="160" on="1"/>
        <pt x="678" y="160" on="1"/>
        <pt x="678" y="516" on="1"/>
        <pt x="678" y="580" on="0"/>
        <pt x="663" y="682" on="0"/>
        <pt x="626" y="754" on="0"/>
        <pt x="565" y="793" on="0"/>
        <pt x="520" y="793" on="1"/>
        <pt x="471" y="793" on="0"/>
        <pt x="409" y="749" on="0"/>
        <pt x="375" y="671" on="0"/>
        <pt x="362" y="564" on="0"/>
        <pt x="362" y="502" on="1"/>
      </contour>
    </TTGlyph>
    <TTGlyph name="glyph00119" xMin="-70" yMin="0" xMax="1442" yMax="1065">
      <contour>
        <pt x="31" y="0" on="1"/>
        <pt x="22" y="0" on="0"/>
        <pt x="-6" y="6" on="0"/>
        <pt x="-35" y="15" on="0"/>
        <pt x="-61" y="27" on="0"/>
        <pt x="-70" y="33" on="1"/>
        <pt x="-70" y="160" on="1"/>
        <pt x="180" y="160" on="1"/>
        <pt x="180" y="489" on="1"/>
        <pt x="180" y="726" on="0"/>
        <pt x="352" y="952" on="0"/>
        <pt x="506" y="952" on="1"/>
        <pt x="591" y="952" on="0"/>
        <pt x="716" y="884" on="0"/>
        <pt x="745" y="831" on="1"/>
        <pt x="761" y="883" on="0"/>
        <pt x="819" y="969" on="0"/>
        <pt x="900" y="1031" on="0"/>
        <pt x="1003" y="1065" on="0"/>
        <pt x="1065" y="1065" on="1"/>
        <pt x="1153" y="1065" on="0"/>
        <pt x="1293" y="1010" on="0"/>
        <pt x="1390" y="897" on="0"/>
        <pt x="1442" y="725" on="0"/>
        <pt x="1442" y="608" on="1"/>
        <pt x="1442" y="240" on="1"/>
        <pt x="1442" y="178" on="0"/>
        <pt x="1404" y="87" on="0"/>
        <pt x="1336" y="28" on="0"/>
        <pt x="1245" y="0" on="0"/>
        <pt x="1192" y="0" on="1"/>
      </contour>
      <contour>
        <pt x="860" y="160" on="1"/>
        <pt x="1260" y="160" on="1"/>
        <pt x="1260" y="631" on="1"/>
        <pt x="1260" y="760" on="0"/>
        <pt x="1167" y="905" on="0"/>
        <pt x="1063" y="905" on="1"/>
        <pt x="1011" y="905" on="0"/>
        <pt x="934" y="864" on="0"/>
        <pt x="884" y="788" on="0"/>
        <pt x="860" y="682" on="0"/>
        <pt x="860" y="616" on="1"/>
      </contour>
      <contour>
        <pt x="362" y="160" on="1"/>
        <pt x="678" y="160" on="1"/>
        <pt x="678" y="516" on="1"/>
        <pt x="678" y="580" on="0"/>
        <pt x="663" y="682" on="0"/>
        <pt x="626" y="754" on="0"/>
        <pt x="565" y="793" on="0"/>
        <pt x="520" y="793" on="1"/>
        <pt x="471" y="793" on="0"/>
        <pt x="409" y="749" on="0"/>
        <pt x="375" y="671" on="0"/>
        <pt x="362" y="564" on="0"/>
        <pt x="362" y="502" on="1"/>
      </contour>
    </TTGlyph>
    <TTGlyph name="glyph00120" xMin="80" yMin="0" xMax="870" yMax="1462">
      <contour>
        <pt x="492" y="1462" on="1"/>
        <pt x="492" y="1051" on="1"/>
        <pt x="721" y="1051" on="1"/>
        <pt x="721" y="891" on="1"/>
        <pt x="492" y="891" on="1"/>
        <pt x="492" y="160" on="1"/>
        <pt x="870" y="160" on="1"/>
        <pt x="870" y="0" on="1"/>
        <pt x="309" y="0" on="1"/>
        <pt x="309" y="891" on="1"/>
        <pt x="80" y="891" on="1"/>
        <pt x="80" y="1051" on="1"/>
        <pt x="309" y="1051" on="1"/>
        <pt x="309" y="1462" on="1"/>
      </contour>
    </TTGlyph>
    <TTGlyph name="glyph00121" xMin="-70" yMin="0" xMax="870" yMax="1462">
      <contour>
        <pt x="80" y="1051" on="1"/>
        <pt x="309" y="1051" on="1"/>
        <pt x="309" y="1462" on="1"/>
        <pt x="492" y="1462" on="1"/>
        <pt x="492" y="1051" on="1"/>
        <pt x="721" y="1051" on="1"/>
        <pt x="721" y="891" on="1"/>
        <pt x="492" y="891" on="1"/>
        <pt x="492" y="276" on="1"/>
        <pt x="544" y="160" on="0"/>
        <pt x="702" y="160" on="1"/>
        <pt x="870" y="160" on="1"/>
        <pt x="870" y="0" on="1"/>
        <pt x="672" y="0" on="1"/>
        <pt x="608" y="0" on="0"/>
        <pt x="516" y="45" on="0"/>
        <pt x="463" y="115" on="1"/>
        <pt x="404" y="0" on="0"/>
        <pt x="242" y="0" on="1"/>
        <pt x="31" y="0" on="1"/>
        <pt x="14" y="0" on="0"/>
        <pt x="-51" y="20" on="0"/>
        <pt x="-70" y="33" on="1"/>
        <pt x="-70" y="160" on="1"/>
        <pt x="309" y="160" on="1"/>
        <pt x="309" y="891" on="1"/>
        <pt x="80" y="891" on="1"/>
      </contour>
    </TTGlyph>
    <TTGlyph name="glyph00122" xMin="-70" yMin="0" xMax="721" yMax="1462">
      <contour>
        <pt x="80" y="1051" on="1"/>
        <pt x="309" y="1051" on="1"/>
        <pt x="309" y="1462" on="1"/>
        <pt x="492" y="1462" on="1"/>
        <pt x="492" y="1051" on="1"/>
        <pt x="721" y="1051" on="1"/>
        <pt x="721" y="891" on="1"/>
        <pt x="492" y="891" on="1"/>
        <pt x="492" y="240" on="1"/>
        <pt x="492" y="125" on="0"/>
        <pt x="358" y="0" on="0"/>
        <pt x="242" y="0" on="1"/>
        <pt x="31" y="0" on="1"/>
        <pt x="14" y="0" on="0"/>
        <pt x="-51" y="20" on="0"/>
        <pt x="-70" y="33" on="1"/>
        <pt x="-70" y="160" on="1"/>
        <pt x="309" y="160" on="1"/>
        <pt x="309" y="891" on="1"/>
        <pt x="80" y="891" on="1"/>
      </contour>
    </TTGlyph>
    <TTGlyph name="glyph00123" xMin="80" yMin="0" xMax="1401" yMax="1462">
      <contour>
        <pt x="80" y="1051" on="1"/>
        <pt x="309" y="1051" on="1"/>
        <pt x="309" y="1462" on="1"/>
        <pt x="492" y="1462" on="1"/>
        <pt x="492" y="1051" on="1"/>
        <pt x="840" y="1051" on="1"/>
        <pt x="840" y="1462" on="1"/>
        <pt x="1022" y="1462" on="1"/>
        <pt x="1022" y="1051" on="1"/>
        <pt x="1251" y="1051" on="1"/>
        <pt x="1251" y="891" on="1"/>
        <pt x="1022" y="891" on="1"/>
        <pt x="1022" y="276" on="1"/>
        <pt x="1075" y="160" on="0"/>
        <pt x="1233" y="160" on="1"/>
        <pt x="1401" y="160" on="1"/>
        <pt x="1401" y="0" on="1"/>
        <pt x="1202" y="0" on="1"/>
        <pt x="1137" y="0" on="0"/>
        <pt x="1044" y="47" on="0"/>
        <pt x="993" y="115" on="1"/>
        <pt x="934" y="0" on="0"/>
        <pt x="772" y="0" on="1"/>
        <pt x="309" y="0" on="1"/>
        <pt x="309" y="891" on="1"/>
        <pt x="80" y="891" on="1"/>
      </contour>
      <contour>
        <pt x="492" y="891" on="1"/>
        <pt x="492" y="160" on="1"/>
        <pt x="840" y="160" on="1"/>
        <pt x="840" y="891" on="1"/>
      </contour>
    </TTGlyph>
    <TTGlyph name="glyph00124" xMin="-70" yMin="0" xMax="1401" yMax="1462">
      <contour>
        <pt x="80" y="1051" on="1"/>
        <pt x="309" y="1051" on="1"/>
        <pt x="309" y="1462" on="1"/>
        <pt x="492" y="1462" on="1"/>
        <pt x="492" y="1051" on="1"/>
        <pt x="840" y="1051" on="1"/>
        <pt x="840" y="1462" on="1"/>
        <pt x="1022" y="1462" on="1"/>
        <pt x="1022" y="1051" on="1"/>
        <pt x="1251" y="1051" on="1"/>
        <pt x="1251" y="891" on="1"/>
        <pt x="1022" y="891" on="1"/>
        <pt x="1022" y="276" on="1"/>
        <pt x="1075" y="160" on="0"/>
        <pt x="1233" y="160" on="1"/>
        <pt x="1401" y="160" on="1"/>
        <pt x="1401" y="0" on="1"/>
        <pt x="1202" y="0" on="1"/>
        <pt x="1137" y="0" on="0"/>
        <pt x="1044" y="47" on="0"/>
        <pt x="993" y="115" on="1"/>
        <pt x="934" y="0" on="0"/>
        <pt x="772" y="0" on="1"/>
        <pt x="672" y="0" on="1"/>
        <pt x="608" y="0" on="0"/>
        <pt x="516" y="45" on="0"/>
        <pt x="463" y="115" on="1"/>
        <pt x="404" y="0" on="0"/>
        <pt x="242" y="0" on="1"/>
        <pt x="31" y="0" on="1"/>
        <pt x="14" y="0" on="0"/>
        <pt x="-51" y="20" on="0"/>
        <pt x="-70" y="33" on="1"/>
        <pt x="-70" y="160" on="1"/>
        <pt x="309" y="160" on="1"/>
        <pt x="309" y="891" on="1"/>
        <pt x="80" y="891" on="1"/>
      </contour>
      <contour>
        <pt x="840" y="891" on="1"/>
        <pt x="492" y="891" on="1"/>
        <pt x="492" y="276" on="1"/>
        <pt x="540" y="166" on="0"/>
        <pt x="686" y="160" on="1"/>
        <pt x="840" y="160" on="1"/>
      </contour>
    </TTGlyph>
    <TTGlyph name="glyph00125" xMin="-70" yMin="0" xMax="1251" yMax="1462">
      <contour>
        <pt x="80" y="1051" on="1"/>
        <pt x="309" y="1051" on="1"/>
        <pt x="309" y="1462" on="1"/>
        <pt x="492" y="1462" on="1"/>
        <pt x="492" y="1051" on="1"/>
        <pt x="840" y="1051" on="1"/>
        <pt x="840" y="1462" on="1"/>
        <pt x="1022" y="1462" on="1"/>
        <pt x="1022" y="1051" on="1"/>
        <pt x="1251" y="1051" on="1"/>
        <pt x="1251" y="891" on="1"/>
        <pt x="1022" y="891" on="1"/>
        <pt x="1022" y="240" on="1"/>
        <pt x="1022" y="125" on="0"/>
        <pt x="888" y="0" on="0"/>
        <pt x="772" y="0" on="1"/>
        <pt x="672" y="0" on="1"/>
        <pt x="608" y="0" on="0"/>
        <pt x="516" y="45" on="0"/>
        <pt x="463" y="115" on="1"/>
        <pt x="404" y="0" on="0"/>
        <pt x="242" y="0" on="1"/>
        <pt x="31" y="0" on="1"/>
        <pt x="14" y="0" on="0"/>
        <pt x="-51" y="20" on="0"/>
        <pt x="-70" y="33" on="1"/>
        <pt x="-70" y="160" on="1"/>
        <pt x="309" y="160" on="1"/>
        <pt x="309" y="891" on="1"/>
        <pt x="80" y="891" on="1"/>
      </contour>
      <contour>
        <pt x="492" y="276" on="1"/>
        <pt x="544" y="160" on="0"/>
        <pt x="702" y="160" on="1"/>
        <pt x="840" y="160" on="1"/>
        <pt x="840" y="891" on="1"/>
        <pt x="492" y="891" on="1"/>
      </contour>
    </TTGlyph>
    <TTGlyph name="glyph00126" xMin="180" yMin="0" xMax="1520" yMax="1051">
      <contour>
        <pt x="1270" y="1051" on="1"/>
        <pt x="1270" y="276" on="1"/>
        <pt x="1323" y="160" on="0"/>
        <pt x="1481" y="160" on="1"/>
        <pt x="1520" y="160" on="1"/>
        <pt x="1520" y="0" on="1"/>
        <pt x="1450" y="0" on="1"/>
        <pt x="1385" y="0" on="0"/>
        <pt x="1292" y="47" on="0"/>
        <pt x="1241" y="115" on="1"/>
        <pt x="1182" y="0" on="0"/>
        <pt x="1020" y="0" on="1"/>
        <pt x="180" y="0" on="1"/>
        <pt x="180" y="739" on="1"/>
        <pt x="180" y="897" on="0"/>
        <pt x="342" y="1051" on="0"/>
        <pt x="510" y="1051" on="1"/>
      </contour>
      <contour>
        <pt x="362" y="160" on="1"/>
        <pt x="1087" y="160" on="1"/>
        <pt x="1087" y="891" on="1"/>
        <pt x="496" y="891" on="1"/>
        <pt x="429" y="891" on="0"/>
        <pt x="362" y="814" on="0"/>
        <pt x="362" y="725" on="1"/>
      </contour>
    </TTGlyph>
    <TTGlyph name="glyph00127" xMin="-70" yMin="0" xMax="1520" yMax="1051">
      <contour>
        <pt x="1270" y="1051" on="1"/>
        <pt x="1270" y="276" on="1"/>
        <pt x="1323" y="160" on="0"/>
        <pt x="1481" y="160" on="1"/>
        <pt x="1520" y="160" on="1"/>
        <pt x="1520" y="0" on="1"/>
        <pt x="1450" y="0" on="1"/>
        <pt x="1385" y="0" on="0"/>
        <pt x="1292" y="47" on="0"/>
        <pt x="1241" y="115" on="1"/>
        <pt x="1182" y="0" on="0"/>
        <pt x="1020" y="0" on="1"/>
        <pt x="31" y="0" on="1"/>
        <pt x="14" y="0" on="0"/>
        <pt x="-51" y="20" on="0"/>
        <pt x="-70" y="33" on="1"/>
        <pt x="-70" y="160" on="1"/>
        <pt x="180" y="160" on="1"/>
        <pt x="180" y="739" on="1"/>
        <pt x="180" y="897" on="0"/>
        <pt x="342" y="1051" on="0"/>
        <pt x="510" y="1051" on="1"/>
      </contour>
      <contour>
        <pt x="362" y="160" on="1"/>
        <pt x="1087" y="160" on="1"/>
        <pt x="1087" y="891" on="1"/>
        <pt x="496" y="891" on="1"/>
        <pt x="429" y="891" on="0"/>
        <pt x="362" y="814" on="0"/>
        <pt x="362" y="725" on="1"/>
      </contour>
    </TTGlyph>
    <TTGlyph name="glyph00128" xMin="-70" yMin="0" xMax="1270" yMax="1051">
      <contour>
        <pt x="1270" y="240" on="1"/>
        <pt x="1270" y="125" on="0"/>
        <pt x="1136" y="0" on="0"/>
        <pt x="1020" y="0" on="1"/>
        <pt x="31" y="0" on="1"/>
        <pt x="14" y="0" on="0"/>
        <pt x="-51" y="20" on="0"/>
        <pt x="-70" y="33" on="1"/>
        <pt x="-70" y="160" on="1"/>
        <pt x="180" y="160" on="1"/>
        <pt x="180" y="739" on="1"/>
        <pt x="180" y="897" on="0"/>
        <pt x="342" y="1051" on="0"/>
        <pt x="510" y="1051" on="1"/>
        <pt x="1270" y="1051" on="1"/>
      </contour>
      <contour>
        <pt x="362" y="160" on="1"/>
        <pt x="1087" y="160" on="1"/>
        <pt x="1087" y="891" on="1"/>
        <pt x="496" y="891" on="1"/>
        <pt x="429" y="891" on="0"/>
        <pt x="362" y="814" on="0"/>
        <pt x="362" y="725" on="1"/>
      </contour>
    </TTGlyph>
    <TTGlyph name="glyph00129" xMin="80" yMin="0" xMax="1249" yMax="1462">
      <contour>
        <pt x="729" y="160" on="1"/>
        <pt x="1249" y="160" on="1"/>
        <pt x="1249" y="0" on="1"/>
        <pt x="500" y="0" on="1"/>
        <pt x="80" y="1372" on="1"/>
        <pt x="80" y="1462" on="1"/>
        <pt x="1100" y="1462" on="1"/>
        <pt x="1100" y="1372" on="1"/>
      </contour>
      <contour>
        <pt x="893" y="1303" on="1"/>
        <pt x="291" y="1303" on="1"/>
        <pt x="522" y="530" on="1"/>
        <pt x="580" y="341" on="0"/>
        <pt x="594" y="252" on="1"/>
        <pt x="628" y="424" on="0"/>
        <pt x="659" y="526" on="1"/>
      </contour>
    </TTGlyph>
    <TTGlyph name="glyph00130" xMin="-70" yMin="0" xMax="1249" yMax="1462">
      <contour>
        <pt x="31" y="0" on="1"/>
        <pt x="14" y="0" on="0"/>
        <pt x="-51" y="20" on="0"/>
        <pt x="-70" y="33" on="1"/>
        <pt x="-70" y="160" on="1"/>
        <pt x="451" y="160" on="1"/>
        <pt x="80" y="1372" on="1"/>
        <pt x="80" y="1462" on="1"/>
        <pt x="1100" y="1462" on="1"/>
        <pt x="1100" y="1372" on="1"/>
        <pt x="760" y="256" on="1"/>
        <pt x="814" y="160" on="0"/>
        <pt x="961" y="160" on="1"/>
        <pt x="1249" y="160" on="1"/>
        <pt x="1249" y="0" on="1"/>
        <pt x="969" y="0" on="1"/>
        <pt x="889" y="0" on="0"/>
        <pt x="784" y="48" on="0"/>
        <pt x="719" y="123" on="1"/>
        <pt x="690" y="58" on="0"/>
        <pt x="566" y="0" on="0"/>
        <pt x="489" y="0" on="1"/>
      </contour>
      <contour>
        <pt x="893" y="1303" on="1"/>
        <pt x="291" y="1303" on="1"/>
        <pt x="522" y="530" on="1"/>
        <pt x="580" y="341" on="0"/>
        <pt x="594" y="252" on="1"/>
        <pt x="628" y="424" on="0"/>
        <pt x="659" y="526" on="1"/>
      </contour>
    </TTGlyph>
    <TTGlyph name="glyph00131" xMin="-70" yMin="0" xMax="1100" yMax="1462">
      <contour>
        <pt x="31" y="0" on="1"/>
        <pt x="14" y="0" on="0"/>
        <pt x="-51" y="20" on="0"/>
        <pt x="-70" y="33" on="1"/>
        <pt x="-70" y="160" on="1"/>
        <pt x="451" y="160" on="1"/>
        <pt x="80" y="1372" on="1"/>
        <pt x="80" y="1462" on="1"/>
        <pt x="1100" y="1462" on="1"/>
        <pt x="1100" y="1372" on="1"/>
        <pt x="733" y="164" on="1"/>
        <pt x="712" y="83" on="0"/>
        <pt x="586" y="0" on="0"/>
        <pt x="489" y="0" on="1"/>
      </contour>
      <contour>
        <pt x="893" y="1303" on="1"/>
        <pt x="291" y="1303" on="1"/>
        <pt x="522" y="530" on="1"/>
        <pt x="580" y="341" on="0"/>
        <pt x="594" y="252" on="1"/>
        <pt x="628" y="424" on="0"/>
        <pt x="659" y="526" on="1"/>
      </contour>
    </TTGlyph>
    <TTGlyph name="glyph00132" xMin="180" yMin="0" xMax="1571" yMax="1462">
      <contour>
        <pt x="739" y="932" on="1"/>
        <pt x="739" y="1100" on="1"/>
        <pt x="739" y="1270" on="0"/>
        <pt x="917" y="1462" on="0"/>
        <pt x="1079" y="1462" on="1"/>
        <pt x="1222" y="1462" on="0"/>
        <pt x="1401" y="1274" on="0"/>
        <pt x="1401" y="1126" on="1"/>
        <pt x="1401" y="961" on="0"/>
        <pt x="1188" y="772" on="0"/>
        <pt x="997" y="772" on="1"/>
        <pt x="922" y="772" on="1"/>
        <pt x="922" y="311" on="1"/>
        <pt x="920" y="270" on="1"/>
        <pt x="972" y="160" on="0"/>
        <pt x="1128" y="160" on="1"/>
        <pt x="1571" y="160" on="1"/>
        <pt x="1571" y="0" on="1"/>
        <pt x="1137" y="0" on="1"/>
        <pt x="1081" y="0" on="0"/>
        <pt x="1000" y="23" on="0"/>
        <pt x="932" y="71" on="0"/>
        <pt x="881" y="129" on="1"/>
        <pt x="806" y="0" on="0"/>
        <pt x="592" y="0" on="1"/>
        <pt x="180" y="0" on="1"/>
        <pt x="180" y="621" on="1"/>
        <pt x="180" y="778" on="0"/>
        <pt x="342" y="932" on="0"/>
        <pt x="510" y="932" on="1"/>
      </contour>
      <contour>
        <pt x="362" y="160" on="1"/>
        <pt x="606" y="160" on="1"/>
        <pt x="675" y="160" on="0"/>
        <pt x="739" y="240" on="0"/>
        <pt x="739" y="326" on="1"/>
        <pt x="739" y="772" on="1"/>
        <pt x="496" y="772" on="1"/>
        <pt x="429" y="772" on="0"/>
        <pt x="362" y="695" on="0"/>
        <pt x="362" y="606" on="1"/>
      </contour>
      <contour>
        <pt x="922" y="932" on="1"/>
        <pt x="1004" y="932" on="1"/>
        <pt x="1219" y="932" on="0"/>
        <pt x="1219" y="1130" on="1"/>
        <pt x="1219" y="1211" on="0"/>
        <pt x="1140" y="1303" on="0"/>
        <pt x="1069" y="1303" on="1"/>
        <pt x="922" y="1303" on="0"/>
        <pt x="922" y="1116" on="1"/>
      </contour>
    </TTGlyph>
    <TTGlyph name="glyph00133" xMin="-70" yMin="0" xMax="1571" yMax="1462">
      <contour>
        <pt x="739" y="932" on="1"/>
        <pt x="739" y="1100" on="1"/>
        <pt x="739" y="1270" on="0"/>
        <pt x="917" y="1462" on="0"/>
        <pt x="1079" y="1462" on="1"/>
        <pt x="1222" y="1462" on="0"/>
        <pt x="1401" y="1274" on="0"/>
        <pt x="1401" y="1126" on="1"/>
        <pt x="1401" y="961" on="0"/>
        <pt x="1188" y="772" on="0"/>
        <pt x="997" y="772" on="1"/>
        <pt x="922" y="772" on="1"/>
        <pt x="922" y="311" on="1"/>
        <pt x="920" y="270" on="1"/>
        <pt x="972" y="160" on="0"/>
        <pt x="1128" y="160" on="1"/>
        <pt x="1571" y="160" on="1"/>
        <pt x="1571" y="0" on="1"/>
        <pt x="1137" y="0" on="1"/>
        <pt x="1081" y="0" on="0"/>
        <pt x="1000" y="23" on="0"/>
        <pt x="932" y="71" on="0"/>
        <pt x="881" y="129" on="1"/>
        <pt x="806" y="0" on="0"/>
        <pt x="592" y="0" on="1"/>
        <pt x="31" y="0" on="1"/>
        <pt x="14" y="0" on="0"/>
        <pt x="-51" y="20" on="0"/>
        <pt x="-70" y="33" on="1"/>
        <pt x="-70" y="160" on="1"/>
        <pt x="180" y="160" on="1"/>
        <pt x="180" y="621" on="1"/>
        <pt x="180" y="778" on="0"/>
        <pt x="342" y="932" on="0"/>
        <pt x="510" y="932" on="1"/>
      </contour>
      <contour>
        <pt x="362" y="160" on="1"/>
        <pt x="606" y="160" on="1"/>
        <pt x="675" y="160" on="0"/>
        <pt x="739" y="240" on="0"/>
        <pt x="739" y="326" on="1"/>
        <pt x="739" y="772" on="1"/>
        <pt x="496" y="772" on="1"/>
        <pt x="429" y="772" on="0"/>
        <pt x="362" y="695" on="0"/>
        <pt x="362" y="606" on="1"/>
      </contour>
      <contour>
        <pt x="922" y="932" on="1"/>
        <pt x="1004" y="932" on="1"/>
        <pt x="1219" y="932" on="0"/>
        <pt x="1219" y="1130" on="1"/>
        <pt x="1219" y="1211" on="0"/>
        <pt x="1140" y="1303" on="0"/>
        <pt x="1069" y="1303" on="1"/>
        <pt x="922" y="1303" on="0"/>
        <pt x="922" y="1116" on="1"/>
      </contour>
    </TTGlyph>
    <TTGlyph name="glyph00134" xMin="-70" yMin="0" xMax="1401" yMax="1462">
      <contour>
        <pt x="739" y="932" on="1"/>
        <pt x="739" y="1100" on="1"/>
        <pt x="739" y="1270" on="0"/>
        <pt x="917" y="1462" on="0"/>
        <pt x="1079" y="1462" on="1"/>
        <pt x="1222" y="1462" on="0"/>
        <pt x="1401" y="1274" on="0"/>
        <pt x="1401" y="1126" on="1"/>
        <pt x="1401" y="961" on="0"/>
        <pt x="1188" y="772" on="0"/>
        <pt x="997" y="772" on="1"/>
        <pt x="922" y="772" on="1"/>
        <pt x="922" y="311" on="1"/>
        <pt x="922" y="153" on="0"/>
        <pt x="760" y="0" on="0"/>
        <pt x="592" y="0" on="1"/>
        <pt x="31" y="0" on="1"/>
        <pt x="14" y="0" on="0"/>
        <pt x="-51" y="20" on="0"/>
        <pt x="-70" y="33" on="1"/>
        <pt x="-70" y="160" on="1"/>
        <pt x="180" y="160" on="1"/>
        <pt x="180" y="621" on="1"/>
        <pt x="180" y="778" on="0"/>
        <pt x="342" y="932" on="0"/>
        <pt x="510" y="932" on="1"/>
      </contour>
      <contour>
        <pt x="362" y="160" on="1"/>
        <pt x="606" y="160" on="1"/>
        <pt x="733" y="160" on="0"/>
        <pt x="739" y="309" on="1"/>
        <pt x="739" y="772" on="1"/>
        <pt x="496" y="772" on="1"/>
        <pt x="429" y="772" on="0"/>
        <pt x="362" y="695" on="0"/>
        <pt x="362" y="606" on="1"/>
      </contour>
      <contour>
        <pt x="922" y="932" on="1"/>
        <pt x="1004" y="932" on="1"/>
        <pt x="1219" y="932" on="0"/>
        <pt x="1219" y="1130" on="1"/>
        <pt x="1219" y="1211" on="0"/>
        <pt x="1140" y="1303" on="0"/>
        <pt x="1069" y="1303" on="1"/>
        <pt x="922" y="1303" on="0"/>
        <pt x="922" y="1116" on="1"/>
      </contour>
    </TTGlyph>
    <TTGlyph name="glyph00135" xMin="160" yMin="0" xMax="1184" yMax="1462">
      <contour>
        <pt x="934" y="1462" on="1"/>
        <pt x="934" y="160" on="1"/>
        <pt x="1184" y="160" on="1"/>
        <pt x="1184" y="0" on="1"/>
        <pt x="752" y="0" on="1"/>
        <pt x="752" y="891" on="1"/>
        <pt x="342" y="891" on="1"/>
        <pt x="342" y="586" on="1"/>
        <pt x="160" y="586" on="1"/>
        <pt x="160" y="1317" on="1"/>
        <pt x="342" y="1317" on="1"/>
        <pt x="342" y="1051" on="1"/>
        <pt x="752" y="1051" on="1"/>
        <pt x="752" y="1462" on="1"/>
      </contour>
    </TTGlyph>
    <TTGlyph name="glyph00136" xMin="-70" yMin="0" xMax="1184" yMax="1462">
      <contour>
        <pt x="31" y="0" on="1"/>
        <pt x="14" y="0" on="0"/>
        <pt x="-51" y="20" on="0"/>
        <pt x="-70" y="33" on="1"/>
        <pt x="-70" y="160" on="1"/>
        <pt x="752" y="160" on="1"/>
        <pt x="752" y="891" on="1"/>
        <pt x="342" y="891" on="1"/>
        <pt x="342" y="586" on="1"/>
        <pt x="160" y="586" on="1"/>
        <pt x="160" y="1317" on="1"/>
        <pt x="342" y="1317" on="1"/>
        <pt x="342" y="1051" on="1"/>
        <pt x="752" y="1051" on="1"/>
        <pt x="752" y="1462" on="1"/>
        <pt x="934" y="1462" on="1"/>
        <pt x="934" y="276" on="1"/>
        <pt x="987" y="160" on="0"/>
        <pt x="1145" y="160" on="1"/>
        <pt x="1184" y="160" on="1"/>
        <pt x="1184" y="0" on="1"/>
        <pt x="1114" y="0" on="1"/>
        <pt x="1049" y="0" on="0"/>
        <pt x="956" y="47" on="0"/>
        <pt x="905" y="115" on="1"/>
        <pt x="846" y="0" on="0"/>
        <pt x="684" y="0" on="1"/>
      </contour>
    </TTGlyph>
    <TTGlyph name="glyph00137" xMin="-70" yMin="0" xMax="934" yMax="1462">
      <contour>
        <pt x="31" y="0" on="1"/>
        <pt x="14" y="0" on="0"/>
        <pt x="-51" y="20" on="0"/>
        <pt x="-70" y="33" on="1"/>
        <pt x="-70" y="160" on="1"/>
        <pt x="752" y="160" on="1"/>
        <pt x="752" y="891" on="1"/>
        <pt x="342" y="891" on="1"/>
        <pt x="342" y="586" on="1"/>
        <pt x="160" y="586" on="1"/>
        <pt x="160" y="1317" on="1"/>
        <pt x="342" y="1317" on="1"/>
        <pt x="342" y="1051" on="1"/>
        <pt x="752" y="1051" on="1"/>
        <pt x="752" y="1462" on="1"/>
        <pt x="934" y="1462" on="1"/>
        <pt x="934" y="240" on="1"/>
        <pt x="934" y="125" on="0"/>
        <pt x="800" y="0" on="0"/>
        <pt x="684" y="0" on="1"/>
      </contour>
    </TTGlyph>
    <TTGlyph name="glyph00138" xMin="94" yMin="0" xMax="1253" yMax="1462">
      <contour>
        <pt x="795" y="723" on="1"/>
        <pt x="795" y="160" on="1"/>
        <pt x="1253" y="160" on="1"/>
        <pt x="1253" y="0" on="1"/>
        <pt x="612" y="0" on="1"/>
        <pt x="612" y="723" on="1"/>
        <pt x="528" y="723" on="1"/>
        <pt x="321" y="723" on="0"/>
        <pt x="94" y="924" on="0"/>
        <pt x="94" y="1100" on="1"/>
        <pt x="94" y="1264" on="0"/>
        <pt x="294" y="1462" on="0"/>
        <pt x="455" y="1462" on="1"/>
        <pt x="614" y="1462" on="0"/>
        <pt x="795" y="1269" on="0"/>
        <pt x="795" y="1098" on="1"/>
        <pt x="795" y="883" on="1"/>
        <pt x="1104" y="883" on="1"/>
        <pt x="1104" y="723" on="1"/>
      </contour>
      <contour>
        <pt x="276" y="1108" on="1"/>
        <pt x="276" y="996" on="0"/>
        <pt x="409" y="883" on="0"/>
        <pt x="535" y="883" on="1"/>
        <pt x="612" y="883" on="1"/>
        <pt x="612" y="1112" on="1"/>
        <pt x="612" y="1203" on="0"/>
        <pt x="533" y="1303" on="0"/>
        <pt x="453" y="1303" on="1"/>
        <pt x="371" y="1303" on="0"/>
        <pt x="276" y="1196" on="0"/>
      </contour>
    </TTGlyph>
    <TTGlyph name="glyph00139" xMin="-70" yMin="0" xMax="1253" yMax="1462">
      <contour>
        <pt x="1253" y="0" on="1"/>
        <pt x="1014" y="0" on="1"/>
        <pt x="937" y="0" on="0"/>
        <pt x="830" y="47" on="0"/>
        <pt x="768" y="117" on="1"/>
        <pt x="737" y="57" on="0"/>
        <pt x="619" y="0" on="0"/>
        <pt x="545" y="0" on="1"/>
        <pt x="31" y="0" on="1"/>
        <pt x="14" y="0" on="0"/>
        <pt x="-51" y="20" on="0"/>
        <pt x="-70" y="33" on="1"/>
        <pt x="-70" y="160" on="1"/>
        <pt x="612" y="160" on="1"/>
        <pt x="612" y="723" on="1"/>
        <pt x="528" y="723" on="1"/>
        <pt x="321" y="723" on="0"/>
        <pt x="94" y="924" on="0"/>
        <pt x="94" y="1100" on="1"/>
        <pt x="94" y="1264" on="0"/>
        <pt x="294" y="1462" on="0"/>
        <pt x="455" y="1462" on="1"/>
        <pt x="614" y="1462" on="0"/>
        <pt x="795" y="1269" on="0"/>
        <pt x="795" y="1098" on="1"/>
        <pt x="795" y="883" on="1"/>
        <pt x="1104" y="883" on="1"/>
        <pt x="1104" y="723" on="1"/>
        <pt x="795" y="723" on="1"/>
        <pt x="795" y="276" on="1"/>
        <pt x="846" y="160" on="0"/>
        <pt x="1006" y="160" on="1"/>
        <pt x="1253" y="160" on="1"/>
      </contour>
      <contour>
        <pt x="276" y="1108" on="1"/>
        <pt x="276" y="996" on="0"/>
        <pt x="409" y="883" on="0"/>
        <pt x="535" y="883" on="1"/>
        <pt x="612" y="883" on="1"/>
        <pt x="612" y="1112" on="1"/>
        <pt x="612" y="1203" on="0"/>
        <pt x="533" y="1303" on="0"/>
        <pt x="453" y="1303" on="1"/>
        <pt x="371" y="1303" on="0"/>
        <pt x="276" y="1196" on="0"/>
      </contour>
    </TTGlyph>
    <TTGlyph name="glyph00140" xMin="-70" yMin="0" xMax="1104" yMax="1462">
      <contour>
        <pt x="795" y="723" on="1"/>
        <pt x="795" y="240" on="1"/>
        <pt x="795" y="125" on="0"/>
        <pt x="661" y="0" on="0"/>
        <pt x="545" y="0" on="1"/>
        <pt x="31" y="0" on="1"/>
        <pt x="14" y="0" on="0"/>
        <pt x="-51" y="20" on="0"/>
        <pt x="-70" y="33" on="1"/>
        <pt x="-70" y="160" on="1"/>
        <pt x="612" y="160" on="1"/>
        <pt x="612" y="723" on="1"/>
        <pt x="528" y="723" on="1"/>
        <pt x="321" y="723" on="0"/>
        <pt x="94" y="924" on="0"/>
        <pt x="94" y="1100" on="1"/>
        <pt x="94" y="1264" on="0"/>
        <pt x="294" y="1462" on="0"/>
        <pt x="455" y="1462" on="1"/>
        <pt x="614" y="1462" on="0"/>
        <pt x="795" y="1269" on="0"/>
        <pt x="795" y="1098" on="1"/>
        <pt x="795" y="883" on="1"/>
        <pt x="1104" y="883" on="1"/>
        <pt x="1104" y="723" on="1"/>
      </contour>
      <contour>
        <pt x="276" y="1108" on="1"/>
        <pt x="276" y="996" on="0"/>
        <pt x="409" y="883" on="0"/>
        <pt x="535" y="883" on="1"/>
        <pt x="612" y="883" on="1"/>
        <pt x="612" y="1112" on="1"/>
        <pt x="612" y="1203" on="0"/>
        <pt x="533" y="1303" on="0"/>
        <pt x="453" y="1303" on="1"/>
        <pt x="371" y="1303" on="0"/>
        <pt x="276" y="1196" on="0"/>
      </contour>
    </TTGlyph>
    <TTGlyph name="glyph00141" xMin="102" yMin="0" xMax="1137" yMax="1462">
      <contour>
        <pt x="102" y="1462" on="1"/>
        <pt x="965" y="1462" on="1"/>
        <pt x="965" y="1303" on="1"/>
        <pt x="625" y="1303" on="1"/>
        <pt x="625" y="160" on="1"/>
        <pt x="1137" y="160" on="1"/>
        <pt x="1137" y="0" on="1"/>
        <pt x="442" y="0" on="1"/>
        <pt x="442" y="1303" on="1"/>
        <pt x="102" y="1303" on="1"/>
      </contour>
    </TTGlyph>
    <TTGlyph name="glyph00142" xMin="-70" yMin="0" xMax="1137" yMax="1462">
      <contour>
        <pt x="102" y="1462" on="1"/>
        <pt x="965" y="1462" on="1"/>
        <pt x="965" y="1303" on="1"/>
        <pt x="625" y="1303" on="1"/>
        <pt x="625" y="276" on="1"/>
        <pt x="676" y="160" on="0"/>
        <pt x="836" y="160" on="1"/>
        <pt x="1137" y="160" on="1"/>
        <pt x="1137" y="0" on="1"/>
        <pt x="844" y="0" on="1"/>
        <pt x="767" y="0" on="0"/>
        <pt x="660" y="47" on="0"/>
        <pt x="598" y="117" on="1"/>
        <pt x="567" y="57" on="0"/>
        <pt x="449" y="0" on="0"/>
        <pt x="375" y="0" on="1"/>
        <pt x="31" y="0" on="1"/>
        <pt x="14" y="0" on="0"/>
        <pt x="-51" y="20" on="0"/>
        <pt x="-70" y="33" on="1"/>
        <pt x="-70" y="160" on="1"/>
        <pt x="442" y="160" on="1"/>
        <pt x="442" y="1303" on="1"/>
        <pt x="102" y="1303" on="1"/>
      </contour>
    </TTGlyph>
    <TTGlyph name="glyph00143" xMin="-70" yMin="0" xMax="965" yMax="1462">
      <contour>
        <pt x="102" y="1462" on="1"/>
        <pt x="965" y="1462" on="1"/>
        <pt x="965" y="1303" on="1"/>
        <pt x="625" y="1303" on="1"/>
        <pt x="625" y="240" on="1"/>
        <pt x="625" y="125" on="0"/>
        <pt x="491" y="0" on="0"/>
        <pt x="375" y="0" on="1"/>
        <pt x="31" y="0" on="1"/>
        <pt x="14" y="0" on="0"/>
        <pt x="-51" y="20" on="0"/>
        <pt x="-70" y="33" on="1"/>
        <pt x="-70" y="160" on="1"/>
        <pt x="442" y="160" on="1"/>
        <pt x="442" y="1303" on="1"/>
        <pt x="102" y="1303" on="1"/>
      </contour>
    </TTGlyph>
    <TTGlyph name="glyph00144" xMin="80" yMin="0" xMax="1249" yMax="1462">
      <contour>
        <pt x="498" y="1462" on="1"/>
        <pt x="680" y="1462" on="1"/>
        <pt x="1077" y="160" on="1"/>
        <pt x="1249" y="160" on="1"/>
        <pt x="1249" y="0" on="1"/>
        <pt x="80" y="0" on="1"/>
        <pt x="80" y="90" on="1"/>
      </contour>
      <contour>
        <pt x="287" y="160" on="1"/>
        <pt x="889" y="160" on="1"/>
        <pt x="657" y="932" on="1"/>
        <pt x="602" y="1114" on="0"/>
        <pt x="586" y="1210" on="1"/>
        <pt x="562" y="1088" on="0"/>
        <pt x="539" y="998" on="0"/>
      </contour>
    </TTGlyph>
    <TTGlyph name="glyph00145" xMin="-70" yMin="0" xMax="1249" yMax="1462">
      <contour>
        <pt x="1249" y="0" on="1"/>
        <pt x="-70" y="0" on="1"/>
        <pt x="-70" y="160" on="1"/>
        <pt x="100" y="160" on="1"/>
        <pt x="498" y="1462" on="1"/>
        <pt x="680" y="1462" on="1"/>
        <pt x="1077" y="160" on="1"/>
        <pt x="1249" y="160" on="1"/>
      </contour>
      <contour>
        <pt x="287" y="160" on="1"/>
        <pt x="889" y="160" on="1"/>
        <pt x="657" y="932" on="1"/>
        <pt x="602" y="1114" on="0"/>
        <pt x="586" y="1210" on="1"/>
        <pt x="562" y="1088" on="0"/>
        <pt x="539" y="998" on="0"/>
      </contour>
    </TTGlyph>
    <TTGlyph name="glyph00146" xMin="-70" yMin="0" xMax="1100" yMax="1462">
      <contour>
        <pt x="31" y="0" on="1"/>
        <pt x="14" y="0" on="0"/>
        <pt x="-51" y="20" on="0"/>
        <pt x="-70" y="33" on="1"/>
        <pt x="-70" y="160" on="1"/>
        <pt x="100" y="160" on="1"/>
        <pt x="498" y="1462" on="1"/>
        <pt x="680" y="1462" on="1"/>
        <pt x="1100" y="90" on="1"/>
        <pt x="1100" y="0" on="1"/>
      </contour>
      <contour>
        <pt x="287" y="160" on="1"/>
        <pt x="889" y="160" on="1"/>
        <pt x="657" y="932" on="1"/>
        <pt x="602" y="1114" on="0"/>
        <pt x="586" y="1210" on="1"/>
        <pt x="562" y="1088" on="0"/>
        <pt x="539" y="998" on="0"/>
      </contour>
    </TTGlyph>
    <TTGlyph name="glyph00147" xMin="100" yMin="0" xMax="1178" yMax="1462">
      <contour>
        <pt x="100" y="1462" on="1"/>
        <pt x="664" y="1462" on="1"/>
        <pt x="664" y="1071" on="1"/>
        <pt x="811" y="1050" on="0"/>
        <pt x="967" y="878" on="0"/>
        <pt x="967" y="743" on="1"/>
        <pt x="967" y="607" on="0"/>
        <pt x="803" y="432" on="0"/>
        <pt x="664" y="414" on="1"/>
        <pt x="664" y="160" on="1"/>
        <pt x="1178" y="160" on="1"/>
        <pt x="1178" y="0" on="1"/>
        <pt x="481" y="0" on="1"/>
        <pt x="481" y="416" on="1"/>
        <pt x="337" y="436" on="0"/>
        <pt x="178" y="605" on="0"/>
        <pt x="178" y="745" on="1"/>
        <pt x="178" y="878" on="0"/>
        <pt x="336" y="1050" on="0"/>
        <pt x="481" y="1071" on="1"/>
        <pt x="481" y="1303" on="1"/>
        <pt x="100" y="1303" on="1"/>
      </contour>
      <contour>
        <pt x="571" y="918" on="1"/>
        <pt x="475" y="918" on="0"/>
        <pt x="362" y="827" on="0"/>
        <pt x="362" y="743" on="1"/>
        <pt x="362" y="661" on="0"/>
        <pt x="472" y="569" on="0"/>
        <pt x="575" y="569" on="1"/>
        <pt x="676" y="569" on="0"/>
        <pt x="782" y="662" on="0"/>
        <pt x="782" y="743" on="1"/>
        <pt x="782" y="825" on="0"/>
        <pt x="674" y="918" on="0"/>
      </contour>
    </TTGlyph>
    <TTGlyph name="glyph00148" xMin="-70" yMin="0" xMax="1178" yMax="1462">
      <contour>
        <pt x="100" y="1462" on="1"/>
        <pt x="664" y="1462" on="1"/>
        <pt x="664" y="1071" on="1"/>
        <pt x="811" y="1050" on="0"/>
        <pt x="967" y="878" on="0"/>
        <pt x="967" y="743" on="1"/>
        <pt x="967" y="607" on="0"/>
        <pt x="803" y="432" on="0"/>
        <pt x="664" y="414" on="1"/>
        <pt x="664" y="276" on="1"/>
        <pt x="716" y="160" on="0"/>
        <pt x="874" y="160" on="1"/>
        <pt x="1178" y="160" on="1"/>
        <pt x="1178" y="0" on="1"/>
        <pt x="883" y="0" on="1"/>
        <pt x="806" y="0" on="0"/>
        <pt x="699" y="47" on="0"/>
        <pt x="637" y="117" on="1"/>
        <pt x="606" y="57" on="0"/>
        <pt x="488" y="0" on="0"/>
        <pt x="414" y="0" on="1"/>
        <pt x="31" y="0" on="1"/>
        <pt x="14" y="0" on="0"/>
        <pt x="-51" y="20" on="0"/>
        <pt x="-70" y="33" on="1"/>
        <pt x="-70" y="160" on="1"/>
        <pt x="481" y="160" on="1"/>
        <pt x="481" y="416" on="1"/>
        <pt x="337" y="436" on="0"/>
        <pt x="178" y="605" on="0"/>
        <pt x="178" y="745" on="1"/>
        <pt x="178" y="878" on="0"/>
        <pt x="336" y="1050" on="0"/>
        <pt x="481" y="1071" on="1"/>
        <pt x="481" y="1303" on="1"/>
        <pt x="100" y="1303" on="1"/>
      </contour>
      <contour>
        <pt x="571" y="918" on="1"/>
        <pt x="475" y="918" on="0"/>
        <pt x="362" y="827" on="0"/>
        <pt x="362" y="743" on="1"/>
        <pt x="362" y="661" on="0"/>
        <pt x="472" y="569" on="0"/>
        <pt x="575" y="569" on="1"/>
        <pt x="676" y="569" on="0"/>
        <pt x="782" y="662" on="0"/>
        <pt x="782" y="743" on="1"/>
        <pt x="782" y="825" on="0"/>
        <pt x="674" y="918" on="0"/>
      </contour>
    </TTGlyph>
    <TTGlyph name="glyph00149" xMin="-70" yMin="0" xMax="967" yMax="1462">
      <contour>
        <pt x="100" y="1462" on="1"/>
        <pt x="664" y="1462" on="1"/>
        <pt x="664" y="1071" on="1"/>
        <pt x="811" y="1050" on="0"/>
        <pt x="967" y="878" on="0"/>
        <pt x="967" y="743" on="1"/>
        <pt x="967" y="607" on="0"/>
        <pt x="803" y="432" on="0"/>
        <pt x="664" y="414" on="1"/>
        <pt x="664" y="240" on="1"/>
        <pt x="664" y="125" on="0"/>
        <pt x="530" y="0" on="0"/>
        <pt x="414" y="0" on="1"/>
        <pt x="31" y="0" on="1"/>
        <pt x="14" y="0" on="0"/>
        <pt x="-51" y="20" on="0"/>
        <pt x="-70" y="33" on="1"/>
        <pt x="-70" y="160" on="1"/>
        <pt x="481" y="160" on="1"/>
        <pt x="481" y="416" on="1"/>
        <pt x="337" y="436" on="0"/>
        <pt x="178" y="605" on="0"/>
        <pt x="178" y="745" on="1"/>
        <pt x="178" y="878" on="0"/>
        <pt x="336" y="1050" on="0"/>
        <pt x="481" y="1071" on="1"/>
        <pt x="481" y="1303" on="1"/>
        <pt x="100" y="1303" on="1"/>
      </contour>
      <contour>
        <pt x="571" y="918" on="1"/>
        <pt x="475" y="918" on="0"/>
        <pt x="362" y="827" on="0"/>
        <pt x="362" y="743" on="1"/>
        <pt x="362" y="661" on="0"/>
        <pt x="472" y="569" on="0"/>
        <pt x="575" y="569" on="1"/>
        <pt x="676" y="569" on="0"/>
        <pt x="782" y="662" on="0"/>
        <pt x="782" y="743" on="1"/>
        <pt x="782" y="825" on="0"/>
        <pt x="674" y="918" on="0"/>
      </contour>
    </TTGlyph>
    <TTGlyph name="glyph00150" xMin="160" yMin="0" xMax="1184" yMax="1462">
      <contour>
        <pt x="934" y="1462" on="1"/>
        <pt x="934" y="160" on="1"/>
        <pt x="1184" y="160" on="1"/>
        <pt x="1184" y="0" on="1"/>
        <pt x="752" y="0" on="1"/>
        <pt x="752" y="1303" on="1"/>
        <pt x="475" y="1303" on="1"/>
        <pt x="409" y="1303" on="0"/>
        <pt x="342" y="1225" on="0"/>
        <pt x="342" y="1137" on="1"/>
        <pt x="342" y="829" on="1"/>
        <pt x="160" y="829" on="1"/>
        <pt x="160" y="1151" on="1"/>
        <pt x="160" y="1309" on="0"/>
        <pt x="321" y="1462" on="0"/>
        <pt x="489" y="1462" on="1"/>
      </contour>
    </TTGlyph>
    <TTGlyph name="glyph00151" xMin="-70" yMin="0" xMax="1184" yMax="1462">
      <contour>
        <pt x="934" y="1462" on="1"/>
        <pt x="934" y="276" on="1"/>
        <pt x="987" y="160" on="0"/>
        <pt x="1145" y="160" on="1"/>
        <pt x="1184" y="160" on="1"/>
        <pt x="1184" y="0" on="1"/>
        <pt x="1114" y="0" on="1"/>
        <pt x="1049" y="0" on="0"/>
        <pt x="956" y="47" on="0"/>
        <pt x="905" y="115" on="1"/>
        <pt x="846" y="0" on="0"/>
        <pt x="684" y="0" on="1"/>
        <pt x="31" y="0" on="1"/>
        <pt x="14" y="0" on="0"/>
        <pt x="-51" y="20" on="0"/>
        <pt x="-70" y="33" on="1"/>
        <pt x="-70" y="160" on="1"/>
        <pt x="752" y="160" on="1"/>
        <pt x="752" y="1303" on="1"/>
        <pt x="475" y="1303" on="1"/>
        <pt x="409" y="1303" on="0"/>
        <pt x="342" y="1225" on="0"/>
        <pt x="342" y="1137" on="1"/>
        <pt x="342" y="829" on="1"/>
        <pt x="160" y="829" on="1"/>
        <pt x="160" y="1151" on="1"/>
        <pt x="160" y="1309" on="0"/>
        <pt x="321" y="1462" on="0"/>
        <pt x="489" y="1462" on="1"/>
      </contour>
    </TTGlyph>
    <TTGlyph name="glyph00152" xMin="-70" yMin="0" xMax="934" yMax="1462">
      <contour>
        <pt x="934" y="1462" on="1"/>
        <pt x="934" y="240" on="1"/>
        <pt x="934" y="125" on="0"/>
        <pt x="800" y="0" on="0"/>
        <pt x="684" y="0" on="1"/>
        <pt x="31" y="0" on="1"/>
        <pt x="14" y="0" on="0"/>
        <pt x="-51" y="20" on="0"/>
        <pt x="-70" y="33" on="1"/>
        <pt x="-70" y="160" on="1"/>
        <pt x="752" y="160" on="1"/>
        <pt x="752" y="1303" on="1"/>
        <pt x="475" y="1303" on="1"/>
        <pt x="409" y="1303" on="0"/>
        <pt x="342" y="1225" on="0"/>
        <pt x="342" y="1137" on="1"/>
        <pt x="342" y="829" on="1"/>
        <pt x="160" y="829" on="1"/>
        <pt x="160" y="1151" on="1"/>
        <pt x="160" y="1309" on="0"/>
        <pt x="321" y="1462" on="0"/>
        <pt x="489" y="1462" on="1"/>
      </contour>
    </TTGlyph>
    <TTGlyph name="glyph00153" xMin="160" yMin="0" xMax="1184" yMax="1462">
      <contour>
        <pt x="342" y="1462" on="1"/>
        <pt x="342" y="1145" on="1"/>
        <pt x="934" y="1145" on="1"/>
        <pt x="934" y="160" on="1"/>
        <pt x="1184" y="160" on="1"/>
        <pt x="1184" y="0" on="1"/>
        <pt x="752" y="0" on="1"/>
        <pt x="752" y="985" on="1"/>
        <pt x="342" y="985" on="1"/>
        <pt x="342" y="674" on="1"/>
        <pt x="160" y="674" on="1"/>
        <pt x="160" y="1462" on="1"/>
      </contour>
    </TTGlyph>
    <TTGlyph name="glyph00154" xMin="-70" yMin="0" xMax="1184" yMax="1462">
      <contour>
        <pt x="342" y="1462" on="1"/>
        <pt x="342" y="1145" on="1"/>
        <pt x="934" y="1145" on="1"/>
        <pt x="934" y="276" on="1"/>
        <pt x="987" y="160" on="0"/>
        <pt x="1145" y="160" on="1"/>
        <pt x="1184" y="160" on="1"/>
        <pt x="1184" y="0" on="1"/>
        <pt x="1114" y="0" on="1"/>
        <pt x="1049" y="0" on="0"/>
        <pt x="956" y="47" on="0"/>
        <pt x="905" y="115" on="1"/>
        <pt x="846" y="0" on="0"/>
        <pt x="684" y="0" on="1"/>
        <pt x="31" y="0" on="1"/>
        <pt x="14" y="0" on="0"/>
        <pt x="-51" y="20" on="0"/>
        <pt x="-70" y="33" on="1"/>
        <pt x="-70" y="160" on="1"/>
        <pt x="752" y="160" on="1"/>
        <pt x="752" y="985" on="1"/>
        <pt x="342" y="985" on="1"/>
        <pt x="342" y="674" on="1"/>
        <pt x="160" y="674" on="1"/>
        <pt x="160" y="1462" on="1"/>
      </contour>
    </TTGlyph>
    <TTGlyph name="glyph00155" xMin="-70" yMin="0" xMax="934" yMax="1462">
      <contour>
        <pt x="342" y="1462" on="1"/>
        <pt x="342" y="1145" on="1"/>
        <pt x="934" y="1145" on="1"/>
        <pt x="934" y="240" on="1"/>
        <pt x="934" y="125" on="0"/>
        <pt x="800" y="0" on="0"/>
        <pt x="684" y="0" on="1"/>
        <pt x="31" y="0" on="1"/>
        <pt x="14" y="0" on="0"/>
        <pt x="-51" y="20" on="0"/>
        <pt x="-70" y="33" on="1"/>
        <pt x="-70" y="160" on="1"/>
        <pt x="752" y="160" on="1"/>
        <pt x="752" y="985" on="1"/>
        <pt x="342" y="985" on="1"/>
        <pt x="342" y="674" on="1"/>
        <pt x="160" y="674" on="1"/>
        <pt x="160" y="1462" on="1"/>
      </contour>
    </TTGlyph>
    <TTGlyph name="glyph00156" xMin="180" yMin="0" xMax="1145" yMax="1462">
      <contour>
        <pt x="201" y="1462" on="1"/>
        <pt x="895" y="1462" on="1"/>
        <pt x="895" y="276" on="1"/>
        <pt x="948" y="160" on="0"/>
        <pt x="1106" y="160" on="1"/>
        <pt x="1145" y="160" on="1"/>
        <pt x="1145" y="0" on="1"/>
        <pt x="1075" y="0" on="1"/>
        <pt x="1010" y="0" on="0"/>
        <pt x="917" y="47" on="0"/>
        <pt x="866" y="115" on="1"/>
        <pt x="807" y="0" on="0"/>
        <pt x="645" y="0" on="1"/>
        <pt x="180" y="0" on="1"/>
        <pt x="180" y="571" on="1"/>
        <pt x="180" y="729" on="0"/>
        <pt x="342" y="883" on="0"/>
        <pt x="510" y="883" on="1"/>
        <pt x="713" y="883" on="1"/>
        <pt x="713" y="1303" on="1"/>
        <pt x="201" y="1303" on="1"/>
      </contour>
      <contour>
        <pt x="362" y="160" on="1"/>
        <pt x="713" y="160" on="1"/>
        <pt x="713" y="723" on="1"/>
        <pt x="496" y="723" on="1"/>
        <pt x="429" y="723" on="0"/>
        <pt x="362" y="646" on="0"/>
        <pt x="362" y="557" on="1"/>
      </contour>
    </TTGlyph>
    <TTGlyph name="glyph00157" xMin="-70" yMin="0" xMax="1145" yMax="1462">
      <contour>
        <pt x="201" y="1462" on="1"/>
        <pt x="895" y="1462" on="1"/>
        <pt x="895" y="276" on="1"/>
        <pt x="948" y="160" on="0"/>
        <pt x="1106" y="160" on="1"/>
        <pt x="1145" y="160" on="1"/>
        <pt x="1145" y="0" on="1"/>
        <pt x="1075" y="0" on="1"/>
        <pt x="1010" y="0" on="0"/>
        <pt x="917" y="47" on="0"/>
        <pt x="866" y="115" on="1"/>
        <pt x="807" y="0" on="0"/>
        <pt x="645" y="0" on="1"/>
        <pt x="31" y="0" on="1"/>
        <pt x="14" y="0" on="0"/>
        <pt x="-51" y="20" on="0"/>
        <pt x="-70" y="33" on="1"/>
        <pt x="-70" y="160" on="1"/>
        <pt x="180" y="160" on="1"/>
        <pt x="180" y="571" on="1"/>
        <pt x="180" y="729" on="0"/>
        <pt x="342" y="883" on="0"/>
        <pt x="510" y="883" on="1"/>
        <pt x="713" y="883" on="1"/>
        <pt x="713" y="1303" on="1"/>
        <pt x="201" y="1303" on="1"/>
      </contour>
      <contour>
        <pt x="362" y="160" on="1"/>
        <pt x="713" y="160" on="1"/>
        <pt x="713" y="723" on="1"/>
        <pt x="496" y="723" on="1"/>
        <pt x="429" y="723" on="0"/>
        <pt x="362" y="646" on="0"/>
        <pt x="362" y="557" on="1"/>
      </contour>
    </TTGlyph>
    <TTGlyph name="glyph00158" xMin="-70" yMin="0" xMax="895" yMax="1462">
      <contour>
        <pt x="201" y="1462" on="1"/>
        <pt x="895" y="1462" on="1"/>
        <pt x="895" y="240" on="1"/>
        <pt x="895" y="125" on="0"/>
        <pt x="761" y="0" on="0"/>
        <pt x="645" y="0" on="1"/>
        <pt x="31" y="0" on="1"/>
        <pt x="14" y="0" on="0"/>
        <pt x="-51" y="20" on="0"/>
        <pt x="-70" y="33" on="1"/>
        <pt x="-70" y="160" on="1"/>
        <pt x="180" y="160" on="1"/>
        <pt x="180" y="571" on="1"/>
        <pt x="180" y="729" on="0"/>
        <pt x="342" y="883" on="0"/>
        <pt x="510" y="883" on="1"/>
        <pt x="713" y="883" on="1"/>
        <pt x="713" y="1303" on="1"/>
        <pt x="201" y="1303" on="1"/>
      </contour>
      <contour>
        <pt x="362" y="160" on="1"/>
        <pt x="713" y="160" on="1"/>
        <pt x="713" y="723" on="1"/>
        <pt x="496" y="723" on="1"/>
        <pt x="429" y="723" on="0"/>
        <pt x="362" y="646" on="0"/>
        <pt x="362" y="557" on="1"/>
      </contour>
    </TTGlyph>
    <TTGlyph name="glyph00159" xMin="139" yMin="0" xMax="1137" yMax="1462">
      <contour>
        <pt x="1137" y="0" on="1"/>
        <pt x="442" y="0" on="1"/>
        <pt x="442" y="416" on="1"/>
        <pt x="298" y="436" on="0"/>
        <pt x="139" y="605" on="0"/>
        <pt x="139" y="745" on="1"/>
        <pt x="139" y="878" on="0"/>
        <pt x="297" y="1050" on="0"/>
        <pt x="442" y="1071" on="1"/>
        <pt x="442" y="1462" on="1"/>
        <pt x="625" y="1462" on="1"/>
        <pt x="625" y="1071" on="1"/>
        <pt x="772" y="1050" on="0"/>
        <pt x="928" y="878" on="0"/>
        <pt x="928" y="743" on="1"/>
        <pt x="928" y="607" on="0"/>
        <pt x="764" y="432" on="0"/>
        <pt x="625" y="414" on="1"/>
        <pt x="625" y="160" on="1"/>
        <pt x="1137" y="160" on="1"/>
      </contour>
      <contour>
        <pt x="532" y="918" on="1"/>
        <pt x="435" y="918" on="0"/>
        <pt x="324" y="825" on="0"/>
        <pt x="324" y="743" on="1"/>
        <pt x="324" y="659" on="0"/>
        <pt x="437" y="569" on="0"/>
        <pt x="537" y="569" on="1"/>
        <pt x="637" y="569" on="0"/>
        <pt x="743" y="662" on="0"/>
        <pt x="743" y="743" on="1"/>
        <pt x="743" y="825" on="0"/>
        <pt x="635" y="918" on="0"/>
      </contour>
    </TTGlyph>
    <TTGlyph name="glyph00160" xMin="-70" yMin="0" xMax="1137" yMax="1462">
      <contour>
        <pt x="1137" y="0" on="1"/>
        <pt x="844" y="0" on="1"/>
        <pt x="767" y="0" on="0"/>
        <pt x="660" y="47" on="0"/>
        <pt x="598" y="117" on="1"/>
        <pt x="567" y="57" on="0"/>
        <pt x="449" y="0" on="0"/>
        <pt x="375" y="0" on="1"/>
        <pt x="31" y="0" on="1"/>
        <pt x="14" y="0" on="0"/>
        <pt x="-51" y="20" on="0"/>
        <pt x="-70" y="33" on="1"/>
        <pt x="-70" y="160" on="1"/>
        <pt x="442" y="160" on="1"/>
        <pt x="442" y="416" on="1"/>
        <pt x="298" y="436" on="0"/>
        <pt x="139" y="605" on="0"/>
        <pt x="139" y="745" on="1"/>
        <pt x="139" y="878" on="0"/>
        <pt x="297" y="1050" on="0"/>
        <pt x="442" y="1071" on="1"/>
        <pt x="442" y="1462" on="1"/>
        <pt x="625" y="1462" on="1"/>
        <pt x="625" y="1071" on="1"/>
        <pt x="772" y="1050" on="0"/>
        <pt x="928" y="878" on="0"/>
        <pt x="928" y="743" on="1"/>
        <pt x="928" y="607" on="0"/>
        <pt x="764" y="432" on="0"/>
        <pt x="625" y="414" on="1"/>
        <pt x="625" y="276" on="1"/>
        <pt x="676" y="160" on="0"/>
        <pt x="836" y="160" on="1"/>
        <pt x="1137" y="160" on="1"/>
      </contour>
      <contour>
        <pt x="532" y="918" on="1"/>
        <pt x="435" y="918" on="0"/>
        <pt x="324" y="825" on="0"/>
        <pt x="324" y="743" on="1"/>
        <pt x="324" y="659" on="0"/>
        <pt x="437" y="569" on="0"/>
        <pt x="537" y="569" on="1"/>
        <pt x="637" y="569" on="0"/>
        <pt x="743" y="662" on="0"/>
        <pt x="743" y="743" on="1"/>
        <pt x="743" y="825" on="0"/>
        <pt x="635" y="918" on="0"/>
      </contour>
    </TTGlyph>
    <TTGlyph name="glyph00161" xMin="-70" yMin="0" xMax="928" yMax="1462">
      <contour>
        <pt x="31" y="0" on="1"/>
        <pt x="14" y="0" on="0"/>
        <pt x="-51" y="20" on="0"/>
        <pt x="-70" y="33" on="1"/>
        <pt x="-70" y="160" on="1"/>
        <pt x="442" y="160" on="1"/>
        <pt x="442" y="416" on="1"/>
        <pt x="298" y="436" on="0"/>
        <pt x="139" y="605" on="0"/>
        <pt x="139" y="745" on="1"/>
        <pt x="139" y="878" on="0"/>
        <pt x="297" y="1050" on="0"/>
        <pt x="442" y="1071" on="1"/>
        <pt x="442" y="1462" on="1"/>
        <pt x="625" y="1462" on="1"/>
        <pt x="625" y="1071" on="1"/>
        <pt x="772" y="1050" on="0"/>
        <pt x="928" y="878" on="0"/>
        <pt x="928" y="743" on="1"/>
        <pt x="928" y="607" on="0"/>
        <pt x="764" y="432" on="0"/>
        <pt x="625" y="414" on="1"/>
        <pt x="625" y="240" on="1"/>
        <pt x="625" y="125" on="0"/>
        <pt x="491" y="0" on="0"/>
        <pt x="375" y="0" on="1"/>
      </contour>
      <contour>
        <pt x="532" y="918" on="1"/>
        <pt x="435" y="918" on="0"/>
        <pt x="324" y="825" on="0"/>
        <pt x="324" y="743" on="1"/>
        <pt x="324" y="659" on="0"/>
        <pt x="437" y="569" on="0"/>
        <pt x="537" y="569" on="1"/>
        <pt x="637" y="569" on="0"/>
        <pt x="743" y="662" on="0"/>
        <pt x="743" y="743" on="1"/>
        <pt x="743" y="825" on="0"/>
        <pt x="635" y="918" on="0"/>
      </contour>
    </TTGlyph>
    <TTGlyph name="glyph00162" xMin="100" yMin="0" xMax="1153" yMax="1462">
      <contour>
        <pt x="100" y="1462" on="1"/>
        <pt x="983" y="1462" on="1"/>
        <pt x="983" y="1303" on="1"/>
        <pt x="633" y="1303" on="1"/>
        <pt x="633" y="1071" on="1"/>
        <pt x="780" y="1050" on="0"/>
        <pt x="936" y="880" on="0"/>
        <pt x="936" y="743" on="1"/>
        <pt x="936" y="607" on="0"/>
        <pt x="773" y="432" on="0"/>
        <pt x="633" y="414" on="1"/>
        <pt x="633" y="160" on="1"/>
        <pt x="1153" y="160" on="1"/>
        <pt x="1153" y="0" on="1"/>
        <pt x="451" y="0" on="1"/>
        <pt x="451" y="416" on="1"/>
        <pt x="305" y="436" on="0"/>
        <pt x="147" y="609" on="0"/>
        <pt x="147" y="745" on="1"/>
        <pt x="147" y="878" on="0"/>
        <pt x="305" y="1049" on="0"/>
        <pt x="451" y="1071" on="1"/>
        <pt x="451" y="1303" on="1"/>
        <pt x="100" y="1303" on="1"/>
      </contour>
      <contour>
        <pt x="541" y="918" on="1"/>
        <pt x="443" y="918" on="0"/>
        <pt x="332" y="826" on="0"/>
        <pt x="332" y="743" on="1"/>
        <pt x="332" y="659" on="0"/>
        <pt x="445" y="569" on="0"/>
        <pt x="545" y="569" on="1"/>
        <pt x="645" y="569" on="0"/>
        <pt x="752" y="662" on="0"/>
        <pt x="752" y="743" on="1"/>
        <pt x="752" y="825" on="0"/>
        <pt x="643" y="918" on="0"/>
      </contour>
    </TTGlyph>
    <TTGlyph name="glyph00163" xMin="-70" yMin="0" xMax="1153" yMax="1462">
      <contour>
        <pt x="100" y="1462" on="1"/>
        <pt x="983" y="1462" on="1"/>
        <pt x="983" y="1303" on="1"/>
        <pt x="633" y="1303" on="1"/>
        <pt x="633" y="1071" on="1"/>
        <pt x="780" y="1050" on="0"/>
        <pt x="936" y="880" on="0"/>
        <pt x="936" y="743" on="1"/>
        <pt x="936" y="607" on="0"/>
        <pt x="773" y="432" on="0"/>
        <pt x="633" y="414" on="1"/>
        <pt x="633" y="276" on="1"/>
        <pt x="686" y="160" on="0"/>
        <pt x="844" y="160" on="1"/>
        <pt x="1153" y="160" on="1"/>
        <pt x="1153" y="0" on="1"/>
        <pt x="852" y="0" on="1"/>
        <pt x="775" y="0" on="0"/>
        <pt x="668" y="47" on="0"/>
        <pt x="606" y="117" on="1"/>
        <pt x="575" y="57" on="0"/>
        <pt x="457" y="0" on="0"/>
        <pt x="383" y="0" on="1"/>
        <pt x="31" y="0" on="1"/>
        <pt x="14" y="0" on="0"/>
        <pt x="-51" y="20" on="0"/>
        <pt x="-70" y="33" on="1"/>
        <pt x="-70" y="160" on="1"/>
        <pt x="451" y="160" on="1"/>
        <pt x="451" y="416" on="1"/>
        <pt x="305" y="436" on="0"/>
        <pt x="147" y="609" on="0"/>
        <pt x="147" y="745" on="1"/>
        <pt x="147" y="878" on="0"/>
        <pt x="305" y="1049" on="0"/>
        <pt x="451" y="1071" on="1"/>
        <pt x="451" y="1303" on="1"/>
        <pt x="100" y="1303" on="1"/>
      </contour>
      <contour>
        <pt x="541" y="918" on="1"/>
        <pt x="443" y="918" on="0"/>
        <pt x="332" y="826" on="0"/>
        <pt x="332" y="743" on="1"/>
        <pt x="332" y="659" on="0"/>
        <pt x="445" y="569" on="0"/>
        <pt x="545" y="569" on="1"/>
        <pt x="645" y="569" on="0"/>
        <pt x="752" y="662" on="0"/>
        <pt x="752" y="743" on="1"/>
        <pt x="752" y="825" on="0"/>
        <pt x="643" y="918" on="0"/>
      </contour>
    </TTGlyph>
    <TTGlyph name="glyph00164" xMin="-70" yMin="0" xMax="983" yMax="1462">
      <contour>
        <pt x="100" y="1462" on="1"/>
        <pt x="983" y="1462" on="1"/>
        <pt x="983" y="1303" on="1"/>
        <pt x="633" y="1303" on="1"/>
        <pt x="633" y="1071" on="1"/>
        <pt x="780" y="1050" on="0"/>
        <pt x="936" y="880" on="0"/>
        <pt x="936" y="743" on="1"/>
        <pt x="936" y="607" on="0"/>
        <pt x="773" y="432" on="0"/>
        <pt x="633" y="414" on="1"/>
        <pt x="633" y="240" on="1"/>
        <pt x="633" y="125" on="0"/>
        <pt x="499" y="0" on="0"/>
        <pt x="383" y="0" on="1"/>
        <pt x="31" y="0" on="1"/>
        <pt x="14" y="0" on="0"/>
        <pt x="-51" y="20" on="0"/>
        <pt x="-70" y="33" on="1"/>
        <pt x="-70" y="160" on="1"/>
        <pt x="451" y="160" on="1"/>
        <pt x="451" y="416" on="1"/>
        <pt x="305" y="436" on="0"/>
        <pt x="147" y="609" on="0"/>
        <pt x="147" y="745" on="1"/>
        <pt x="147" y="878" on="0"/>
        <pt x="305" y="1049" on="0"/>
        <pt x="451" y="1071" on="1"/>
        <pt x="451" y="1303" on="1"/>
        <pt x="100" y="1303" on="1"/>
      </contour>
      <contour>
        <pt x="541" y="918" on="1"/>
        <pt x="443" y="918" on="0"/>
        <pt x="332" y="826" on="0"/>
        <pt x="332" y="743" on="1"/>
        <pt x="332" y="659" on="0"/>
        <pt x="445" y="569" on="0"/>
        <pt x="545" y="569" on="1"/>
        <pt x="645" y="569" on="0"/>
        <pt x="752" y="662" on="0"/>
        <pt x="752" y="743" on="1"/>
        <pt x="752" y="825" on="0"/>
        <pt x="643" y="918" on="0"/>
      </contour>
    </TTGlyph>
    <TTGlyph name="glyph00165" xMin="176" yMin="-557" xMax="997" yMax="573">
      <contour>
        <pt x="997" y="0" on="1"/>
        <pt x="899" y="0" on="1"/>
        <pt x="823" y="0" on="0"/>
        <pt x="718" y="44" on="0"/>
        <pt x="651" y="119" on="1"/>
        <pt x="580" y="-27" on="1"/>
        <pt x="383" y="-393" on="1"/>
        <pt x="401" y="-399" on="0"/>
        <pt x="430" y="-399" on="1"/>
        <pt x="496" y="-399" on="0"/>
        <pt x="617" y="-321" on="0"/>
        <pt x="726" y="-167" on="0"/>
        <pt x="750" y="-90" on="1"/>
        <pt x="885" y="-90" on="1"/>
        <pt x="830" y="-320" on="0"/>
        <pt x="571" y="-557" on="0"/>
        <pt x="387" y="-557" on="1"/>
        <pt x="296" y="-557" on="0"/>
        <pt x="176" y="-488" on="0"/>
        <pt x="176" y="-434" on="1"/>
        <pt x="176" y="-413" on="0"/>
        <pt x="261" y="-258" on="1"/>
        <pt x="310" y="-170" on="1"/>
        <pt x="514" y="197" on="0"/>
        <pt x="676" y="573" on="1"/>
        <pt x="864" y="573" on="1"/>
        <pt x="805" y="430" on="0"/>
        <pt x="707" y="231" on="1"/>
        <pt x="766" y="160" on="0"/>
        <pt x="891" y="160" on="1"/>
        <pt x="997" y="160" on="1"/>
      </contour>
    </TTGlyph>
    <TTGlyph name="glyph00166" xMin="-70" yMin="-557" xMax="997" yMax="573">
      <contour>
        <pt x="750" y="-90" on="1"/>
        <pt x="885" y="-90" on="1"/>
        <pt x="830" y="-320" on="0"/>
        <pt x="571" y="-557" on="0"/>
        <pt x="387" y="-557" on="1"/>
        <pt x="296" y="-557" on="0"/>
        <pt x="176" y="-488" on="0"/>
        <pt x="176" y="-434" on="1"/>
        <pt x="176" y="-413" on="0"/>
        <pt x="261" y="-258" on="1"/>
        <pt x="386" y="-31" on="0"/>
        <pt x="401" y="-2" on="1"/>
        <pt x="401" y="0" on="1"/>
        <pt x="31" y="0" on="1"/>
        <pt x="14" y="0" on="0"/>
        <pt x="-51" y="20" on="0"/>
        <pt x="-70" y="33" on="1"/>
        <pt x="-70" y="160" on="1"/>
        <pt x="483" y="160" on="1"/>
        <pt x="584" y="359" on="0"/>
        <pt x="676" y="573" on="1"/>
        <pt x="864" y="573" on="1"/>
        <pt x="805" y="430" on="0"/>
        <pt x="707" y="231" on="1"/>
        <pt x="766" y="160" on="0"/>
        <pt x="891" y="160" on="1"/>
        <pt x="997" y="160" on="1"/>
        <pt x="997" y="0" on="1"/>
        <pt x="899" y="0" on="1"/>
        <pt x="823" y="0" on="0"/>
        <pt x="718" y="44" on="0"/>
        <pt x="651" y="119" on="1"/>
        <pt x="580" y="-27" on="1"/>
        <pt x="383" y="-393" on="1"/>
        <pt x="401" y="-399" on="0"/>
        <pt x="430" y="-399" on="1"/>
        <pt x="496" y="-399" on="0"/>
        <pt x="617" y="-321" on="0"/>
        <pt x="726" y="-167" on="0"/>
      </contour>
    </TTGlyph>
    <TTGlyph name="glyph00167" xMin="-70" yMin="-557" xMax="885" yMax="573">
      <contour>
        <pt x="483" y="160" on="1"/>
        <pt x="584" y="359" on="0"/>
        <pt x="676" y="573" on="1"/>
        <pt x="864" y="573" on="1"/>
        <pt x="810" y="437" on="0"/>
        <pt x="665" y="147" on="1"/>
        <pt x="580" y="-27" on="1"/>
        <pt x="383" y="-393" on="1"/>
        <pt x="401" y="-399" on="0"/>
        <pt x="430" y="-399" on="1"/>
        <pt x="496" y="-399" on="0"/>
        <pt x="617" y="-321" on="0"/>
        <pt x="726" y="-167" on="0"/>
        <pt x="750" y="-90" on="1"/>
        <pt x="885" y="-90" on="1"/>
        <pt x="830" y="-320" on="0"/>
        <pt x="571" y="-557" on="0"/>
        <pt x="387" y="-557" on="1"/>
        <pt x="296" y="-557" on="0"/>
        <pt x="176" y="-488" on="0"/>
        <pt x="176" y="-434" on="1"/>
        <pt x="176" y="-413" on="0"/>
        <pt x="261" y="-258" on="1"/>
        <pt x="386" y="-31" on="0"/>
        <pt x="401" y="-2" on="1"/>
        <pt x="401" y="0" on="1"/>
        <pt x="31" y="0" on="1"/>
        <pt x="14" y="0" on="0"/>
        <pt x="-51" y="20" on="0"/>
        <pt x="-70" y="33" on="1"/>
        <pt x="-70" y="160" on="1"/>
      </contour>
    </TTGlyph>
    <TTGlyph name="glyph00168" xMin="176" yMin="-557" xMax="997" yMax="573">
      <contour>
        <pt x="997" y="0" on="1"/>
        <pt x="899" y="0" on="1"/>
        <pt x="823" y="0" on="0"/>
        <pt x="718" y="44" on="0"/>
        <pt x="651" y="119" on="1"/>
        <pt x="578" y="-29" on="1"/>
        <pt x="614" y="-29" on="1"/>
        <pt x="726" y="-29" on="0"/>
        <pt x="850" y="-127" on="0"/>
        <pt x="850" y="-211" on="1"/>
        <pt x="850" y="-289" on="0"/>
        <pt x="723" y="-454" on="0"/>
        <pt x="514" y="-557" on="0"/>
        <pt x="399" y="-557" on="1"/>
        <pt x="297" y="-557" on="0"/>
        <pt x="176" y="-487" on="0"/>
        <pt x="176" y="-434" on="1"/>
        <pt x="176" y="-418" on="0"/>
        <pt x="244" y="-288" on="0"/>
        <pt x="319" y="-155" on="1"/>
        <pt x="407" y="2" on="0"/>
        <pt x="650" y="495" on="0"/>
        <pt x="676" y="573" on="1"/>
        <pt x="864" y="573" on="1"/>
        <pt x="809" y="434" on="0"/>
        <pt x="707" y="229" on="1"/>
        <pt x="767" y="160" on="0"/>
        <pt x="891" y="160" on="1"/>
        <pt x="997" y="160" on="1"/>
      </contour>
      <contour>
        <pt x="383" y="-393" on="1"/>
        <pt x="401" y="-399" on="0"/>
        <pt x="435" y="-399" on="1"/>
        <pt x="515" y="-399" on="0"/>
        <pt x="668" y="-292" on="0"/>
        <pt x="668" y="-229" on="1"/>
        <pt x="668" y="-188" on="0"/>
        <pt x="610" y="-166" on="0"/>
        <pt x="559" y="-166" on="1"/>
        <pt x="506" y="-166" on="1"/>
        <pt x="446" y="-279" on="1"/>
      </contour>
    </TTGlyph>
    <TTGlyph name="glyph00169" xMin="-70" yMin="-557" xMax="997" yMax="573">
      <contour>
        <pt x="997" y="0" on="1"/>
        <pt x="899" y="0" on="1"/>
        <pt x="823" y="0" on="0"/>
        <pt x="718" y="44" on="0"/>
        <pt x="651" y="119" on="1"/>
        <pt x="578" y="-29" on="1"/>
        <pt x="614" y="-29" on="1"/>
        <pt x="726" y="-29" on="0"/>
        <pt x="850" y="-127" on="0"/>
        <pt x="850" y="-211" on="1"/>
        <pt x="850" y="-289" on="0"/>
        <pt x="723" y="-454" on="0"/>
        <pt x="514" y="-557" on="0"/>
        <pt x="399" y="-557" on="1"/>
        <pt x="297" y="-557" on="0"/>
        <pt x="176" y="-487" on="0"/>
        <pt x="176" y="-434" on="1"/>
        <pt x="176" y="-418" on="0"/>
        <pt x="244" y="-288" on="0"/>
        <pt x="319" y="-155" on="1"/>
        <pt x="401" y="-2" on="1"/>
        <pt x="401" y="0" on="1"/>
        <pt x="31" y="0" on="1"/>
        <pt x="14" y="0" on="0"/>
        <pt x="-51" y="20" on="0"/>
        <pt x="-70" y="33" on="1"/>
        <pt x="-70" y="160" on="1"/>
        <pt x="483" y="160" on="1"/>
        <pt x="633" y="460" on="0"/>
        <pt x="676" y="573" on="1"/>
        <pt x="864" y="573" on="1"/>
        <pt x="809" y="434" on="0"/>
        <pt x="707" y="229" on="1"/>
        <pt x="767" y="160" on="0"/>
        <pt x="891" y="160" on="1"/>
        <pt x="997" y="160" on="1"/>
      </contour>
      <contour>
        <pt x="383" y="-393" on="1"/>
        <pt x="401" y="-399" on="0"/>
        <pt x="435" y="-399" on="1"/>
        <pt x="515" y="-399" on="0"/>
        <pt x="668" y="-292" on="0"/>
        <pt x="668" y="-229" on="1"/>
        <pt x="668" y="-188" on="0"/>
        <pt x="610" y="-166" on="0"/>
        <pt x="559" y="-166" on="1"/>
        <pt x="506" y="-166" on="1"/>
        <pt x="446" y="-279" on="1"/>
      </contour>
    </TTGlyph>
    <TTGlyph name="glyph00170" xMin="-70" yMin="-557" xMax="864" yMax="573">
      <contour>
        <pt x="401" y="0" on="1"/>
        <pt x="31" y="0" on="1"/>
        <pt x="14" y="0" on="0"/>
        <pt x="-51" y="20" on="0"/>
        <pt x="-70" y="33" on="1"/>
        <pt x="-70" y="160" on="1"/>
        <pt x="483" y="160" on="1"/>
        <pt x="633" y="460" on="0"/>
        <pt x="676" y="573" on="1"/>
        <pt x="864" y="573" on="1"/>
        <pt x="810" y="437" on="0"/>
        <pt x="658" y="129" on="0"/>
        <pt x="578" y="-29" on="1"/>
        <pt x="614" y="-29" on="1"/>
        <pt x="726" y="-29" on="0"/>
        <pt x="850" y="-127" on="0"/>
        <pt x="850" y="-211" on="1"/>
        <pt x="850" y="-289" on="0"/>
        <pt x="723" y="-454" on="0"/>
        <pt x="514" y="-557" on="0"/>
        <pt x="399" y="-557" on="1"/>
        <pt x="297" y="-557" on="0"/>
        <pt x="176" y="-487" on="0"/>
        <pt x="176" y="-434" on="1"/>
        <pt x="176" y="-418" on="0"/>
        <pt x="244" y="-288" on="0"/>
        <pt x="319" y="-155" on="1"/>
        <pt x="401" y="-2" on="1"/>
      </contour>
      <contour>
        <pt x="383" y="-393" on="1"/>
        <pt x="401" y="-399" on="0"/>
        <pt x="435" y="-399" on="1"/>
        <pt x="515" y="-399" on="0"/>
        <pt x="668" y="-292" on="0"/>
        <pt x="668" y="-229" on="1"/>
        <pt x="668" y="-188" on="0"/>
        <pt x="610" y="-166" on="0"/>
        <pt x="559" y="-166" on="1"/>
        <pt x="506" y="-166" on="1"/>
        <pt x="446" y="-279" on="1"/>
      </contour>
    </TTGlyph>
    <TTGlyph name="glyph00171" xMin="80" yMin="-557" xMax="870" yMax="664">
      <contour>
        <pt x="492" y="664" on="1"/>
        <pt x="492" y="160" on="1"/>
        <pt x="870" y="160" on="1"/>
        <pt x="870" y="0" on="1"/>
        <pt x="492" y="0" on="1"/>
        <pt x="492" y="-557" on="1"/>
        <pt x="309" y="-557" on="1"/>
        <pt x="309" y="0" on="1"/>
        <pt x="80" y="0" on="1"/>
        <pt x="80" y="160" on="1"/>
        <pt x="309" y="160" on="1"/>
        <pt x="309" y="664" on="1"/>
      </contour>
    </TTGlyph>
    <TTGlyph name="glyph00172" xMin="-70" yMin="-557" xMax="870" yMax="664">
      <contour>
        <pt x="492" y="664" on="1"/>
        <pt x="492" y="160" on="1"/>
        <pt x="870" y="160" on="1"/>
        <pt x="870" y="0" on="1"/>
        <pt x="492" y="0" on="1"/>
        <pt x="492" y="-557" on="1"/>
        <pt x="309" y="-557" on="1"/>
        <pt x="309" y="0" on="1"/>
        <pt x="31" y="0" on="1"/>
        <pt x="14" y="0" on="0"/>
        <pt x="-51" y="20" on="0"/>
        <pt x="-70" y="33" on="1"/>
        <pt x="-70" y="160" on="1"/>
        <pt x="309" y="160" on="1"/>
        <pt x="309" y="664" on="1"/>
      </contour>
    </TTGlyph>
    <TTGlyph name="glyph00173" xMin="-70" yMin="-557" xMax="721" yMax="664">
      <contour>
        <pt x="492" y="664" on="1"/>
        <pt x="492" y="160" on="1"/>
        <pt x="721" y="160" on="1"/>
        <pt x="721" y="0" on="1"/>
        <pt x="492" y="0" on="1"/>
        <pt x="492" y="-557" on="1"/>
        <pt x="309" y="-557" on="1"/>
        <pt x="309" y="0" on="1"/>
        <pt x="31" y="0" on="1"/>
        <pt x="14" y="0" on="0"/>
        <pt x="-51" y="20" on="0"/>
        <pt x="-70" y="33" on="1"/>
        <pt x="-70" y="160" on="1"/>
        <pt x="309" y="160" on="1"/>
        <pt x="309" y="664" on="1"/>
      </contour>
    </TTGlyph>
    <TTGlyph name="glyph00174" xMin="80" yMin="0" xMax="924" yMax="160">
      <contour>
        <pt x="924" y="0" on="1"/>
        <pt x="80" y="0" on="1"/>
        <pt x="80" y="160" on="1"/>
        <pt x="924" y="160" on="1"/>
      </contour>
    </TTGlyph>
    <TTGlyph name="glyph00175" xMin="-70" yMin="0" xMax="924" yMax="160">
      <contour>
        <pt x="31" y="0" on="1"/>
        <pt x="14" y="0" on="0"/>
        <pt x="-51" y="20" on="0"/>
        <pt x="-70" y="33" on="1"/>
        <pt x="-70" y="160" on="1"/>
        <pt x="924" y="160" on="1"/>
        <pt x="924" y="0" on="1"/>
      </contour>
    </TTGlyph>
    <TTGlyph name="glyph00176" xMin="-70" yMin="0" xMax="774" yMax="160">
      <contour>
        <pt x="31" y="0" on="1"/>
        <pt x="14" y="0" on="0"/>
        <pt x="-51" y="20" on="0"/>
        <pt x="-70" y="33" on="1"/>
        <pt x="-70" y="160" on="1"/>
        <pt x="774" y="160" on="1"/>
        <pt x="774" y="0" on="1"/>
      </contour>
    </TTGlyph>
    <TTGlyph name="uni07C0" xMin="111" yMin="-20" xMax="995" yMax="1462">
      <contour>
        <pt x="995" y="721" on="1"/>
        <pt x="995" y="364" on="0"/>
        <pt x="777" y="-20" on="0"/>
        <pt x="567" y="-20" on="1"/>
        <pt x="343" y="-20" on="0"/>
        <pt x="111" y="349" on="0"/>
        <pt x="111" y="721" on="1"/>
        <pt x="111" y="1093" on="0"/>
        <pt x="329" y="1462" on="0"/>
        <pt x="551" y="1462" on="1"/>
        <pt x="770" y="1462" on="0"/>
        <pt x="995" y="1081" on="0"/>
      </contour>
      <contour>
        <pt x="291" y="717" on="1"/>
        <pt x="291" y="414" on="0"/>
        <pt x="419" y="139" on="0"/>
        <pt x="559" y="139" on="1"/>
        <pt x="688" y="139" on="0"/>
        <pt x="813" y="423" on="0"/>
        <pt x="813" y="717" on="1"/>
        <pt x="813" y="1010" on="0"/>
        <pt x="692" y="1303" on="0"/>
        <pt x="551" y="1303" on="1"/>
        <pt x="413" y="1303" on="0"/>
        <pt x="291" y="1021" on="0"/>
      </contour>
    </TTGlyph>
    <TTGlyph name="uni07C1" xMin="184" yMin="0" xMax="1018" yMax="1462">
      <contour>
        <pt x="655" y="160" on="1"/>
        <pt x="985" y="160" on="1"/>
        <pt x="985" y="0" on="1"/>
        <pt x="184" y="0" on="1"/>
        <pt x="184" y="160" on="1"/>
        <pt x="473" y="160" on="1"/>
        <pt x="473" y="1462" on="1"/>
        <pt x="741" y="1462" on="1"/>
        <pt x="1018" y="940" on="1"/>
        <pt x="874" y="862" on="1"/>
        <pt x="727" y="1141" on="1"/>
        <pt x="679" y="1237" on="0"/>
        <pt x="651" y="1307" on="1"/>
        <pt x="655" y="1199" on="0"/>
        <pt x="655" y="1083" on="1"/>
      </contour>
    </TTGlyph>
    <TTGlyph name="uni07C2" xMin="240" yMin="0" xMax="971" yMax="1462">
      <contour>
        <pt x="971" y="1462" on="1"/>
        <pt x="971" y="764" on="1"/>
        <pt x="422" y="764" on="1"/>
        <pt x="422" y="0" on="1"/>
        <pt x="240" y="0" on="1"/>
        <pt x="240" y="1462" on="1"/>
        <pt x="422" y="1462" on="1"/>
        <pt x="422" y="924" on="1"/>
        <pt x="788" y="924" on="1"/>
        <pt x="788" y="1462" on="1"/>
      </contour>
    </TTGlyph>
    <TTGlyph name="uni07C3" xMin="303" yMin="0" xMax="850" yMax="1462">
      <contour>
        <pt x="850" y="1462" on="1"/>
        <pt x="850" y="0" on="1"/>
        <pt x="303" y="0" on="1"/>
        <pt x="303" y="160" on="1"/>
        <pt x="668" y="160" on="1"/>
        <pt x="668" y="578" on="1"/>
        <pt x="303" y="578" on="1"/>
        <pt x="303" y="737" on="1"/>
        <pt x="668" y="737" on="1"/>
        <pt x="668" y="1462" on="1"/>
      </contour>
    </TTGlyph>
    <TTGlyph name="uni07C4" xMin="203" yMin="0" xMax="811" yMax="1462">
      <contour>
        <pt x="811" y="1462" on="1"/>
        <pt x="811" y="684" on="1"/>
        <pt x="385" y="684" on="1"/>
        <pt x="385" y="160" on="1"/>
        <pt x="811" y="160" on="1"/>
        <pt x="811" y="0" on="1"/>
        <pt x="203" y="0" on="1"/>
        <pt x="203" y="844" on="1"/>
        <pt x="629" y="844" on="1"/>
        <pt x="629" y="1462" on="1"/>
      </contour>
    </TTGlyph>
    <TTGlyph name="uni07C5" xMin="293" yMin="0" xMax="872" yMax="1462">
      <contour>
        <pt x="872" y="684" on="1"/>
        <pt x="475" y="684" on="1"/>
        <pt x="475" y="0" on="1"/>
        <pt x="293" y="0" on="1"/>
        <pt x="293" y="1462" on="1"/>
        <pt x="475" y="1462" on="1"/>
        <pt x="475" y="844" on="1"/>
        <pt x="872" y="844" on="1"/>
      </contour>
    </TTGlyph>
    <TTGlyph name="uni07C6" xMin="203" yMin="0" xMax="872" yMax="1462">
      <contour>
        <pt x="385" y="1462" on="1"/>
        <pt x="385" y="844" on="1"/>
        <pt x="872" y="844" on="1"/>
        <pt x="872" y="0" on="1"/>
        <pt x="690" y="0" on="1"/>
        <pt x="690" y="684" on="1"/>
        <pt x="203" y="684" on="1"/>
        <pt x="203" y="1462" on="1"/>
      </contour>
    </TTGlyph>
    <TTGlyph name="uni07C7" xMin="211" yMin="0" xMax="1014" yMax="1462">
      <contour>
        <pt x="393" y="446" on="1"/>
        <pt x="393" y="331" on="0"/>
        <pt x="389" y="223" on="1"/>
        <pt x="424" y="311" on="0"/>
        <pt x="469" y="387" on="1"/>
        <pt x="870" y="1092" on="1"/>
        <pt x="1014" y="1014" on="1"/>
        <pt x="436" y="0" on="1"/>
        <pt x="211" y="0" on="1"/>
        <pt x="211" y="1462" on="1"/>
        <pt x="393" y="1462" on="1"/>
      </contour>
    </TTGlyph>
    <TTGlyph name="uni07C8" xMin="211" yMin="0" xMax="995" yMax="1462">
      <contour>
        <pt x="393" y="1069" on="1"/>
        <pt x="995" y="1069" on="1"/>
        <pt x="995" y="979" on="1"/>
        <pt x="436" y="0" on="1"/>
        <pt x="211" y="0" on="1"/>
        <pt x="211" y="1462" on="1"/>
        <pt x="393" y="1462" on="1"/>
      </contour>
      <contour>
        <pt x="389" y="223" on="1"/>
        <pt x="424" y="311" on="0"/>
        <pt x="469" y="387" on="1"/>
        <pt x="768" y="909" on="1"/>
        <pt x="393" y="909" on="1"/>
        <pt x="393" y="446" on="1"/>
        <pt x="393" y="331" on="0"/>
      </contour>
    </TTGlyph>
    <TTGlyph name="uni07C9" xMin="195" yMin="-23" xMax="940" yMax="1462">
      <contour>
        <pt x="475" y="-23" on="1"/>
        <pt x="475" y="803" on="1"/>
        <pt x="344" y="826" on="0"/>
        <pt x="195" y="1001" on="0"/>
        <pt x="195" y="1130" on="1"/>
        <pt x="195" y="1279" on="0"/>
        <pt x="397" y="1462" on="0"/>
        <pt x="565" y="1462" on="1"/>
        <pt x="738" y="1462" on="0"/>
        <pt x="940" y="1283" on="0"/>
        <pt x="940" y="1126" on="1"/>
        <pt x="940" y="997" on="0"/>
        <pt x="788" y="826" on="0"/>
        <pt x="657" y="803" on="1"/>
        <pt x="657" y="-23" on="1"/>
      </contour>
      <contour>
        <pt x="567" y="1313" on="1"/>
        <pt x="480" y="1313" on="0"/>
        <pt x="379" y="1213" on="0"/>
        <pt x="379" y="1137" on="1"/>
        <pt x="379" y="1047" on="0"/>
        <pt x="479" y="946" on="0"/>
        <pt x="567" y="946" on="1"/>
        <pt x="653" y="946" on="0"/>
        <pt x="756" y="1045" on="0"/>
        <pt x="756" y="1128" on="1"/>
        <pt x="756" y="1210" on="0"/>
        <pt x="653" y="1313" on="0"/>
      </contour>
    </TTGlyph>
    <TTGlyph name="uni07CA" xMin="180" yMin="0" xMax="362" yMax="1462">
      <contour>
        <pt x="362" y="1462" on="1"/>
        <pt x="362" y="0" on="1"/>
        <pt x="180" y="0" on="1"/>
        <pt x="180" y="1462" on="1"/>
      </contour>
    </TTGlyph>
    <TTGlyph name="uni07CB" xMin="141" yMin="-20" xMax="1210" yMax="1094">
      <contour>
        <pt x="1210" y="555" on="1"/>
        <pt x="1210" y="391" on="0"/>
        <pt x="1074" y="128" on="0"/>
        <pt x="828" y="-20" on="0"/>
        <pt x="674" y="-20" on="1"/>
        <pt x="517" y="-20" on="0"/>
        <pt x="273" y="119" on="0"/>
        <pt x="141" y="375" on="0"/>
        <pt x="141" y="541" on="1"/>
        <pt x="141" y="697" on="0"/>
        <pt x="282" y="951" on="0"/>
        <pt x="530" y="1094" on="0"/>
        <pt x="680" y="1094" on="1"/>
        <pt x="835" y="1094" on="0"/>
        <pt x="1079" y="955" on="0"/>
        <pt x="1210" y="709" on="0"/>
      </contour>
      <contour>
        <pt x="328" y="526" on="1"/>
        <pt x="328" y="415" on="0"/>
        <pt x="412" y="238" on="0"/>
        <pt x="571" y="139" on="0"/>
        <pt x="678" y="139" on="1"/>
        <pt x="779" y="139" on="0"/>
        <pt x="938" y="243" on="0"/>
        <pt x="1024" y="428" on="0"/>
        <pt x="1024" y="541" on="1"/>
        <pt x="1024" y="718" on="0"/>
        <pt x="837" y="934" on="0"/>
        <pt x="676" y="934" on="1"/>
        <pt x="522" y="934" on="0"/>
        <pt x="328" y="706" on="0"/>
      </contour>
    </TTGlyph>
    <TTGlyph name="uni07CC" xMin="8" yMin="0" xMax="887" yMax="1462">
      <contour>
        <pt x="8" y="1462" on="1"/>
        <pt x="188" y="1462" on="1"/>
        <pt x="365" y="1079" on="1"/>
        <pt x="416" y="965" on="0"/>
        <pt x="446" y="883" on="1"/>
        <pt x="462" y="927" on="0"/>
        <pt x="503" y="1023" on="0"/>
        <pt x="707" y="1462" on="1"/>
        <pt x="887" y="1462" on="1"/>
        <pt x="539" y="717" on="1"/>
        <pt x="539" y="0" on="1"/>
        <pt x="356" y="0" on="1"/>
        <pt x="356" y="717" on="1"/>
      </contour>
    </TTGlyph>
    <TTGlyph name="uni07CD" xMin="63" yMin="0" xMax="1204" yMax="1051">
      <contour>
        <pt x="543" y="1051" on="1"/>
        <pt x="725" y="1051" on="1"/>
        <pt x="1204" y="0" on="1"/>
        <pt x="1008" y="0" on="1"/>
        <pt x="851" y="347" on="0"/>
        <pt x="680" y="724" on="0"/>
        <pt x="633" y="866" on="1"/>
        <pt x="571" y="690" on="0"/>
        <pt x="502" y="539" on="1"/>
        <pt x="260" y="0" on="1"/>
        <pt x="63" y="0" on="1"/>
      </contour>
    </TTGlyph>
    <TTGlyph name="uni07CE" xMin="180" yMin="0" xMax="1034" yMax="1051">
      <contour>
        <pt x="362" y="1051" on="1"/>
        <pt x="362" y="160" on="1"/>
        <pt x="852" y="160" on="1"/>
        <pt x="852" y="1051" on="1"/>
        <pt x="1034" y="1051" on="1"/>
        <pt x="1034" y="0" on="1"/>
        <pt x="180" y="0" on="1"/>
        <pt x="180" y="1051" on="1"/>
      </contour>
    </TTGlyph>
    <TTGlyph name="uni07CF" xMin="100" yMin="0" xMax="948" yMax="1051">
      <contour>
        <pt x="948" y="0" on="1"/>
        <pt x="100" y="0" on="1"/>
        <pt x="100" y="160" on="1"/>
        <pt x="766" y="160" on="1"/>
        <pt x="766" y="891" on="1"/>
        <pt x="100" y="891" on="1"/>
        <pt x="100" y="1051" on="1"/>
        <pt x="948" y="1051" on="1"/>
      </contour>
    </TTGlyph>
    <TTGlyph name="uni07D0" xMin="127" yMin="0" xMax="1194" yMax="1462">
      <contour>
        <pt x="1092" y="0" on="1"/>
        <pt x="227" y="0" on="1"/>
        <pt x="227" y="160" on="1"/>
        <pt x="569" y="160" on="1"/>
        <pt x="569" y="625" on="1"/>
        <pt x="362" y="645" on="0"/>
        <pt x="127" y="862" on="0"/>
        <pt x="127" y="1038" on="1"/>
        <pt x="127" y="1166" on="0"/>
        <pt x="255" y="1358" on="0"/>
        <pt x="499" y="1462" on="0"/>
        <pt x="664" y="1462" on="1"/>
        <pt x="911" y="1462" on="0"/>
        <pt x="1194" y="1237" on="0"/>
        <pt x="1194" y="1038" on="1"/>
        <pt x="1194" y="863" on="0"/>
        <pt x="959" y="641" on="0"/>
        <pt x="752" y="623" on="1"/>
        <pt x="752" y="160" on="1"/>
        <pt x="1092" y="160" on="1"/>
      </contour>
      <contour>
        <pt x="662" y="1303" on="1"/>
        <pt x="498" y="1303" on="0"/>
        <pt x="309" y="1160" on="0"/>
        <pt x="309" y="1040" on="1"/>
        <pt x="309" y="919" on="0"/>
        <pt x="500" y="780" on="0"/>
        <pt x="670" y="780" on="1"/>
        <pt x="825" y="780" on="0"/>
        <pt x="1012" y="923" on="0"/>
        <pt x="1012" y="1038" on="1"/>
        <pt x="1012" y="1161" on="0"/>
        <pt x="823" y="1303" on="0"/>
      </contour>
    </TTGlyph>
    <TTGlyph name="uni07D1" xMin="102" yMin="0" xMax="967" yMax="1370">
      <contour>
        <pt x="967" y="0" on="1"/>
        <pt x="102" y="0" on="1"/>
        <pt x="102" y="160" on="1"/>
        <pt x="967" y="160" on="1"/>
      </contour>
      <contour>
        <pt x="430" y="750" on="1"/>
        <pt x="416" y="772" on="1"/>
        <pt x="439" y="884" on="0"/>
        <pt x="533" y="1209" on="0"/>
        <pt x="592" y="1370" on="1"/>
        <pt x="725" y="1370" on="1"/>
        <pt x="694" y="1223" on="0"/>
        <pt x="634" y="858" on="0"/>
        <pt x="623" y="750" on="1"/>
      </contour>
    </TTGlyph>
    <TTGlyph name="uni07D2" xMin="94" yMin="0" xMax="1223" yMax="1462">
      <contour>
        <pt x="1040" y="0" on="1"/>
        <pt x="1040" y="770" on="1"/>
        <pt x="795" y="770" on="1"/>
        <pt x="795" y="500" on="1"/>
        <pt x="612" y="500" on="1"/>
        <pt x="612" y="772" on="1"/>
        <pt x="481" y="772" on="1"/>
        <pt x="300" y="772" on="0"/>
        <pt x="94" y="957" on="0"/>
        <pt x="94" y="1126" on="1"/>
        <pt x="94" y="1279" on="0"/>
        <pt x="292" y="1462" on="0"/>
        <pt x="451" y="1462" on="1"/>
        <pt x="612" y="1462" on="0"/>
        <pt x="795" y="1270" on="0"/>
        <pt x="795" y="1096" on="1"/>
        <pt x="795" y="932" on="1"/>
        <pt x="1223" y="932" on="1"/>
        <pt x="1223" y="0" on="1"/>
      </contour>
      <contour>
        <pt x="276" y="1122" on="1"/>
        <pt x="276" y="1034" on="0"/>
        <pt x="387" y="932" on="0"/>
        <pt x="494" y="932" on="1"/>
        <pt x="612" y="932" on="1"/>
        <pt x="612" y="1114" on="1"/>
        <pt x="612" y="1204" on="0"/>
        <pt x="523" y="1303" on="0"/>
        <pt x="444" y="1303" on="1"/>
        <pt x="367" y="1303" on="0"/>
        <pt x="276" y="1206" on="0"/>
      </contour>
    </TTGlyph>
    <TTGlyph name="uni07D3" xMin="180" yMin="0" xMax="719" yMax="1462">
      <contour>
        <pt x="719" y="721" on="1"/>
        <pt x="362" y="721" on="1"/>
        <pt x="362" y="0" on="1"/>
        <pt x="180" y="0" on="1"/>
        <pt x="180" y="1462" on="1"/>
        <pt x="719" y="1462" on="1"/>
        <pt x="719" y="1303" on="1"/>
        <pt x="362" y="1303" on="1"/>
        <pt x="362" y="881" on="1"/>
        <pt x="719" y="881" on="1"/>
      </contour>
    </TTGlyph>
    <TTGlyph name="uni07D4" xMin="139" yMin="0" xMax="678" yMax="1462">
      <contour>
        <pt x="139" y="1462" on="1"/>
        <pt x="678" y="1462" on="1"/>
        <pt x="678" y="0" on="1"/>
        <pt x="496" y="0" on="1"/>
        <pt x="496" y="721" on="1"/>
        <pt x="139" y="721" on="1"/>
        <pt x="139" y="881" on="1"/>
        <pt x="496" y="881" on="1"/>
        <pt x="496" y="1303" on="1"/>
        <pt x="139" y="1303" on="1"/>
      </contour>
    </TTGlyph>
    <TTGlyph name="uni07D5" xMin="180" yMin="0" xMax="1010" yMax="1462">
      <contour>
        <pt x="362" y="1462" on="1"/>
        <pt x="362" y="883" on="1"/>
        <pt x="547" y="883" on="1"/>
        <pt x="774" y="883" on="0"/>
        <pt x="1010" y="653" on="0"/>
        <pt x="1010" y="440" on="1"/>
        <pt x="1010" y="317" on="0"/>
        <pt x="898" y="114" on="0"/>
        <pt x="692" y="0" on="0"/>
        <pt x="553" y="0" on="1"/>
        <pt x="180" y="0" on="1"/>
        <pt x="180" y="1462" on="1"/>
      </contour>
      <contour>
        <pt x="362" y="723" on="1"/>
        <pt x="362" y="160" on="1"/>
        <pt x="559" y="160" on="1"/>
        <pt x="684" y="160" on="0"/>
        <pt x="823" y="309" on="0"/>
        <pt x="823" y="440" on="1"/>
        <pt x="823" y="572" on="0"/>
        <pt x="680" y="723" on="0"/>
        <pt x="545" y="723" on="1"/>
      </contour>
    </TTGlyph>
    <TTGlyph name="uni07D6" xMin="80" yMin="0" xMax="895" yMax="1462">
      <contour>
        <pt x="592" y="0" on="1"/>
        <pt x="592" y="254" on="1"/>
        <pt x="592" y="483" on="0"/>
        <pt x="503" y="809" on="0"/>
        <pt x="296" y="1108" on="0"/>
        <pt x="80" y="1303" on="1"/>
        <pt x="80" y="1462" on="1"/>
        <pt x="895" y="1462" on="1"/>
        <pt x="895" y="1303" on="1"/>
        <pt x="299" y="1303" on="1"/>
        <pt x="774" y="882" on="0"/>
        <pt x="774" y="254" on="1"/>
        <pt x="774" y="0" on="1"/>
      </contour>
    </TTGlyph>
    <TTGlyph name="uni07D7" xMin="72" yMin="0" xMax="592" yMax="1462">
      <contour>
        <pt x="410" y="1016" on="1"/>
        <pt x="410" y="1131" on="0"/>
        <pt x="414" y="1239" on="1"/>
        <pt x="408" y="1223" on="0"/>
        <pt x="384" y="1172" on="0"/>
        <pt x="348" y="1099" on="0"/>
        <pt x="215" y="864" on="1"/>
        <pt x="72" y="942" on="1"/>
        <pt x="367" y="1462" on="1"/>
        <pt x="592" y="1462" on="1"/>
        <pt x="592" y="0" on="1"/>
        <pt x="410" y="0" on="1"/>
      </contour>
    </TTGlyph>
    <TTGlyph name="uni07D8" xMin="180" yMin="0" xMax="1442" yMax="1065">
      <contour>
        <pt x="180" y="489" on="1"/>
        <pt x="180" y="726" on="0"/>
        <pt x="352" y="952" on="0"/>
        <pt x="506" y="952" on="1"/>
        <pt x="591" y="952" on="0"/>
        <pt x="716" y="884" on="0"/>
        <pt x="745" y="831" on="1"/>
        <pt x="778" y="940" on="0"/>
        <pt x="947" y="1065" on="0"/>
        <pt x="1065" y="1065" on="1"/>
        <pt x="1251" y="1065" on="0"/>
        <pt x="1442" y="830" on="0"/>
        <pt x="1442" y="608" on="1"/>
        <pt x="1442" y="0" on="1"/>
        <pt x="180" y="0" on="1"/>
      </contour>
      <contour>
        <pt x="860" y="160" on="1"/>
        <pt x="1260" y="160" on="1"/>
        <pt x="1260" y="631" on="1"/>
        <pt x="1260" y="905" on="0"/>
        <pt x="1063" y="905" on="1"/>
        <pt x="964" y="905" on="0"/>
        <pt x="860" y="755" on="0"/>
        <pt x="860" y="616" on="1"/>
      </contour>
      <contour>
        <pt x="362" y="160" on="1"/>
        <pt x="678" y="160" on="1"/>
        <pt x="678" y="516" on="1"/>
        <pt x="678" y="663" on="0"/>
        <pt x="600" y="793" on="0"/>
        <pt x="520" y="793" on="1"/>
        <pt x="437" y="793" on="0"/>
        <pt x="362" y="657" on="0"/>
        <pt x="362" y="502" on="1"/>
      </contour>
    </TTGlyph>
    <TTGlyph name="uni07D9" xMin="80" yMin="0" xMax="721" yMax="1462">
      <contour>
        <pt x="80" y="1051" on="1"/>
        <pt x="309" y="1051" on="1"/>
        <pt x="309" y="1462" on="1"/>
        <pt x="492" y="1462" on="1"/>
        <pt x="492" y="1051" on="1"/>
        <pt x="721" y="1051" on="1"/>
        <pt x="721" y="891" on="1"/>
        <pt x="492" y="891" on="1"/>
        <pt x="492" y="0" on="1"/>
        <pt x="309" y="0" on="1"/>
        <pt x="309" y="891" on="1"/>
        <pt x="80" y="891" on="1"/>
      </contour>
    </TTGlyph>
    <TTGlyph name="uni07DA" xMin="80" yMin="0" xMax="1251" yMax="1462">
      <contour>
        <pt x="80" y="1051" on="1"/>
        <pt x="309" y="1051" on="1"/>
        <pt x="309" y="1462" on="1"/>
        <pt x="492" y="1462" on="1"/>
        <pt x="492" y="1051" on="1"/>
        <pt x="840" y="1051" on="1"/>
        <pt x="840" y="1462" on="1"/>
        <pt x="1022" y="1462" on="1"/>
        <pt x="1022" y="1051" on="1"/>
        <pt x="1251" y="1051" on="1"/>
        <pt x="1251" y="891" on="1"/>
        <pt x="1022" y="891" on="1"/>
        <pt x="1022" y="0" on="1"/>
        <pt x="309" y="0" on="1"/>
        <pt x="309" y="891" on="1"/>
        <pt x="80" y="891" on="1"/>
      </contour>
      <contour>
        <pt x="492" y="891" on="1"/>
        <pt x="492" y="160" on="1"/>
        <pt x="840" y="160" on="1"/>
        <pt x="840" y="891" on="1"/>
      </contour>
    </TTGlyph>
    <TTGlyph name="uni07DB" xMin="180" yMin="0" xMax="1270" yMax="1051">
      <contour>
        <pt x="1270" y="0" on="1"/>
        <pt x="180" y="0" on="1"/>
        <pt x="180" y="739" on="1"/>
        <pt x="180" y="897" on="0"/>
        <pt x="342" y="1051" on="0"/>
        <pt x="510" y="1051" on="1"/>
        <pt x="1270" y="1051" on="1"/>
      </contour>
      <contour>
        <pt x="362" y="160" on="1"/>
        <pt x="1087" y="160" on="1"/>
        <pt x="1087" y="891" on="1"/>
        <pt x="496" y="891" on="1"/>
        <pt x="429" y="891" on="0"/>
        <pt x="362" y="814" on="0"/>
        <pt x="362" y="725" on="1"/>
      </contour>
    </TTGlyph>
    <TTGlyph name="uni07DC" xMin="80" yMin="0" xMax="1100" yMax="1462">
      <contour>
        <pt x="682" y="0" on="1"/>
        <pt x="500" y="0" on="1"/>
        <pt x="80" y="1372" on="1"/>
        <pt x="80" y="1462" on="1"/>
        <pt x="1100" y="1462" on="1"/>
        <pt x="1100" y="1372" on="1"/>
      </contour>
      <contour>
        <pt x="893" y="1303" on="1"/>
        <pt x="291" y="1303" on="1"/>
        <pt x="522" y="530" on="1"/>
        <pt x="580" y="341" on="0"/>
        <pt x="594" y="252" on="1"/>
        <pt x="628" y="424" on="0"/>
        <pt x="659" y="526" on="1"/>
      </contour>
    </TTGlyph>
    <TTGlyph name="uni07DD" xMin="180" yMin="0" xMax="1401" yMax="1462">
      <contour>
        <pt x="739" y="932" on="1"/>
        <pt x="739" y="1100" on="1"/>
        <pt x="739" y="1270" on="0"/>
        <pt x="917" y="1462" on="0"/>
        <pt x="1079" y="1462" on="1"/>
        <pt x="1222" y="1462" on="0"/>
        <pt x="1401" y="1274" on="0"/>
        <pt x="1401" y="1126" on="1"/>
        <pt x="1401" y="961" on="0"/>
        <pt x="1188" y="772" on="0"/>
        <pt x="997" y="772" on="1"/>
        <pt x="922" y="772" on="1"/>
        <pt x="922" y="311" on="1"/>
        <pt x="922" y="153" on="0"/>
        <pt x="760" y="0" on="0"/>
        <pt x="592" y="0" on="1"/>
        <pt x="180" y="0" on="1"/>
        <pt x="180" y="621" on="1"/>
        <pt x="180" y="778" on="0"/>
        <pt x="342" y="932" on="0"/>
        <pt x="510" y="932" on="1"/>
      </contour>
      <contour>
        <pt x="362" y="160" on="1"/>
        <pt x="606" y="160" on="1"/>
        <pt x="675" y="160" on="0"/>
        <pt x="739" y="240" on="0"/>
        <pt x="739" y="326" on="1"/>
        <pt x="739" y="772" on="1"/>
        <pt x="496" y="772" on="1"/>
        <pt x="429" y="772" on="0"/>
        <pt x="362" y="695" on="0"/>
        <pt x="362" y="606" on="1"/>
      </contour>
      <contour>
        <pt x="922" y="932" on="1"/>
        <pt x="1004" y="932" on="1"/>
        <pt x="1219" y="932" on="0"/>
        <pt x="1219" y="1130" on="1"/>
        <pt x="1219" y="1211" on="0"/>
        <pt x="1140" y="1303" on="0"/>
        <pt x="1069" y="1303" on="1"/>
        <pt x="922" y="1303" on="0"/>
        <pt x="922" y="1116" on="1"/>
      </contour>
    </TTGlyph>
    <TTGlyph name="uni07DE" xMin="160" yMin="0" xMax="934" yMax="1462">
      <contour>
        <pt x="934" y="1462" on="1"/>
        <pt x="934" y="0" on="1"/>
        <pt x="752" y="0" on="1"/>
        <pt x="752" y="891" on="1"/>
        <pt x="342" y="891" on="1"/>
        <pt x="342" y="586" on="1"/>
        <pt x="160" y="586" on="1"/>
        <pt x="160" y="1317" on="1"/>
        <pt x="342" y="1317" on="1"/>
        <pt x="342" y="1051" on="1"/>
        <pt x="752" y="1051" on="1"/>
        <pt x="752" y="1462" on="1"/>
      </contour>
    </TTGlyph>
    <TTGlyph name="uni07DF" xMin="94" yMin="0" xMax="1104" yMax="1462">
      <contour>
        <pt x="795" y="723" on="1"/>
        <pt x="795" y="0" on="1"/>
        <pt x="612" y="0" on="1"/>
        <pt x="612" y="723" on="1"/>
        <pt x="528" y="723" on="1"/>
        <pt x="321" y="723" on="0"/>
        <pt x="94" y="924" on="0"/>
        <pt x="94" y="1100" on="1"/>
        <pt x="94" y="1264" on="0"/>
        <pt x="294" y="1462" on="0"/>
        <pt x="455" y="1462" on="1"/>
        <pt x="614" y="1462" on="0"/>
        <pt x="795" y="1269" on="0"/>
        <pt x="795" y="1098" on="1"/>
        <pt x="795" y="883" on="1"/>
        <pt x="1104" y="883" on="1"/>
        <pt x="1104" y="723" on="1"/>
      </contour>
      <contour>
        <pt x="276" y="1108" on="1"/>
        <pt x="276" y="996" on="0"/>
        <pt x="409" y="883" on="0"/>
        <pt x="535" y="883" on="1"/>
        <pt x="612" y="883" on="1"/>
        <pt x="612" y="1112" on="1"/>
        <pt x="612" y="1203" on="0"/>
        <pt x="533" y="1303" on="0"/>
        <pt x="453" y="1303" on="1"/>
        <pt x="371" y="1303" on="0"/>
        <pt x="276" y="1196" on="0"/>
      </contour>
    </TTGlyph>
    <TTGlyph name="uni07E0" xMin="102" yMin="0" xMax="965" yMax="1462">
      <contour>
        <pt x="102" y="1462" on="1"/>
        <pt x="965" y="1462" on="1"/>
        <pt x="965" y="1303" on="1"/>
        <pt x="625" y="1303" on="1"/>
        <pt x="625" y="0" on="1"/>
        <pt x="442" y="0" on="1"/>
        <pt x="442" y="1303" on="1"/>
        <pt x="102" y="1303" on="1"/>
      </contour>
    </TTGlyph>
    <TTGlyph name="uni07E1" xMin="80" yMin="0" xMax="1100" yMax="1462">
      <contour>
        <pt x="498" y="1462" on="1"/>
        <pt x="680" y="1462" on="1"/>
        <pt x="1100" y="90" on="1"/>
        <pt x="1100" y="0" on="1"/>
        <pt x="80" y="0" on="1"/>
        <pt x="80" y="90" on="1"/>
      </contour>
      <contour>
        <pt x="287" y="160" on="1"/>
        <pt x="889" y="160" on="1"/>
        <pt x="657" y="932" on="1"/>
        <pt x="602" y="1114" on="0"/>
        <pt x="586" y="1210" on="1"/>
        <pt x="562" y="1088" on="0"/>
        <pt x="539" y="998" on="0"/>
      </contour>
    </TTGlyph>
    <TTGlyph name="uni07E2" xMin="100" yMin="0" xMax="967" yMax="1462">
      <contour>
        <pt x="100" y="1462" on="1"/>
        <pt x="664" y="1462" on="1"/>
        <pt x="664" y="1071" on="1"/>
        <pt x="811" y="1050" on="0"/>
        <pt x="967" y="878" on="0"/>
        <pt x="967" y="743" on="1"/>
        <pt x="967" y="607" on="0"/>
        <pt x="803" y="432" on="0"/>
        <pt x="664" y="414" on="1"/>
        <pt x="664" y="0" on="1"/>
        <pt x="481" y="0" on="1"/>
        <pt x="481" y="416" on="1"/>
        <pt x="337" y="436" on="0"/>
        <pt x="178" y="605" on="0"/>
        <pt x="178" y="745" on="1"/>
        <pt x="178" y="878" on="0"/>
        <pt x="336" y="1050" on="0"/>
        <pt x="481" y="1071" on="1"/>
        <pt x="481" y="1303" on="1"/>
        <pt x="100" y="1303" on="1"/>
      </contour>
      <contour>
        <pt x="571" y="918" on="1"/>
        <pt x="475" y="918" on="0"/>
        <pt x="362" y="827" on="0"/>
        <pt x="362" y="743" on="1"/>
        <pt x="362" y="661" on="0"/>
        <pt x="472" y="569" on="0"/>
        <pt x="575" y="569" on="1"/>
        <pt x="676" y="569" on="0"/>
        <pt x="782" y="662" on="0"/>
        <pt x="782" y="743" on="1"/>
        <pt x="782" y="825" on="0"/>
        <pt x="674" y="918" on="0"/>
      </contour>
    </TTGlyph>
    <TTGlyph name="uni07E3" xMin="160" yMin="0" xMax="934" yMax="1462">
      <contour>
        <pt x="934" y="1462" on="1"/>
        <pt x="934" y="0" on="1"/>
        <pt x="752" y="0" on="1"/>
        <pt x="752" y="1303" on="1"/>
        <pt x="475" y="1303" on="1"/>
        <pt x="409" y="1303" on="0"/>
        <pt x="342" y="1225" on="0"/>
        <pt x="342" y="1137" on="1"/>
        <pt x="342" y="829" on="1"/>
        <pt x="160" y="829" on="1"/>
        <pt x="160" y="1151" on="1"/>
        <pt x="160" y="1309" on="0"/>
        <pt x="321" y="1462" on="0"/>
        <pt x="489" y="1462" on="1"/>
      </contour>
    </TTGlyph>
    <TTGlyph name="uni07E4" xMin="160" yMin="0" xMax="934" yMax="1462">
      <contour>
        <pt x="342" y="1462" on="1"/>
        <pt x="342" y="1145" on="1"/>
        <pt x="934" y="1145" on="1"/>
        <pt x="934" y="0" on="1"/>
        <pt x="752" y="0" on="1"/>
        <pt x="752" y="985" on="1"/>
        <pt x="342" y="985" on="1"/>
        <pt x="342" y="674" on="1"/>
        <pt x="160" y="674" on="1"/>
        <pt x="160" y="1462" on="1"/>
      </contour>
    </TTGlyph>
    <TTGlyph name="uni07E5" xMin="180" yMin="0" xMax="895" yMax="1462">
      <contour>
        <pt x="201" y="1462" on="1"/>
        <pt x="895" y="1462" on="1"/>
        <pt x="895" y="0" on="1"/>
        <pt x="180" y="0" on="1"/>
        <pt x="180" y="571" on="1"/>
        <pt x="180" y="729" on="0"/>
        <pt x="342" y="883" on="0"/>
        <pt x="510" y="883" on="1"/>
        <pt x="713" y="883" on="1"/>
        <pt x="713" y="1303" on="1"/>
        <pt x="201" y="1303" on="1"/>
      </contour>
      <contour>
        <pt x="362" y="160" on="1"/>
        <pt x="713" y="160" on="1"/>
        <pt x="713" y="723" on="1"/>
        <pt x="496" y="723" on="1"/>
        <pt x="429" y="723" on="0"/>
        <pt x="362" y="646" on="0"/>
        <pt x="362" y="557" on="1"/>
      </contour>
    </TTGlyph>
    <TTGlyph name="uni07E6" xMin="139" yMin="0" xMax="928" yMax="1462">
      <contour>
        <pt x="442" y="0" on="1"/>
        <pt x="442" y="416" on="1"/>
        <pt x="298" y="436" on="0"/>
        <pt x="139" y="605" on="0"/>
        <pt x="139" y="745" on="1"/>
        <pt x="139" y="878" on="0"/>
        <pt x="297" y="1050" on="0"/>
        <pt x="442" y="1071" on="1"/>
        <pt x="442" y="1462" on="1"/>
        <pt x="625" y="1462" on="1"/>
        <pt x="625" y="1071" on="1"/>
        <pt x="772" y="1050" on="0"/>
        <pt x="928" y="878" on="0"/>
        <pt x="928" y="743" on="1"/>
        <pt x="928" y="607" on="0"/>
        <pt x="764" y="432" on="0"/>
        <pt x="625" y="414" on="1"/>
        <pt x="625" y="0" on="1"/>
      </contour>
      <contour>
        <pt x="532" y="918" on="1"/>
        <pt x="435" y="918" on="0"/>
        <pt x="324" y="825" on="0"/>
        <pt x="324" y="743" on="1"/>
        <pt x="324" y="659" on="0"/>
        <pt x="437" y="569" on="0"/>
        <pt x="537" y="569" on="1"/>
        <pt x="637" y="569" on="0"/>
        <pt x="743" y="662" on="0"/>
        <pt x="743" y="743" on="1"/>
        <pt x="743" y="825" on="0"/>
        <pt x="635" y="918" on="0"/>
      </contour>
    </TTGlyph>
    <TTGlyph name="uni07E7" xMin="100" yMin="0" xMax="983" yMax="1462">
      <contour>
        <pt x="100" y="1462" on="1"/>
        <pt x="983" y="1462" on="1"/>
        <pt x="983" y="1303" on="1"/>
        <pt x="633" y="1303" on="1"/>
        <pt x="633" y="1071" on="1"/>
        <pt x="780" y="1050" on="0"/>
        <pt x="936" y="880" on="0"/>
        <pt x="936" y="743" on="1"/>
        <pt x="936" y="607" on="0"/>
        <pt x="773" y="432" on="0"/>
        <pt x="633" y="414" on="1"/>
        <pt x="633" y="0" on="1"/>
        <pt x="451" y="0" on="1"/>
        <pt x="451" y="416" on="1"/>
        <pt x="305" y="436" on="0"/>
        <pt x="147" y="609" on="0"/>
        <pt x="147" y="745" on="1"/>
        <pt x="147" y="878" on="0"/>
        <pt x="305" y="1049" on="0"/>
        <pt x="451" y="1071" on="1"/>
        <pt x="451" y="1303" on="1"/>
        <pt x="100" y="1303" on="1"/>
      </contour>
      <contour>
        <pt x="541" y="918" on="1"/>
        <pt x="443" y="918" on="0"/>
        <pt x="332" y="826" on="0"/>
        <pt x="332" y="743" on="1"/>
        <pt x="332" y="659" on="0"/>
        <pt x="445" y="569" on="0"/>
        <pt x="545" y="569" on="1"/>
        <pt x="645" y="569" on="0"/>
        <pt x="752" y="662" on="0"/>
        <pt x="752" y="743" on="1"/>
        <pt x="752" y="825" on="0"/>
        <pt x="643" y="918" on="0"/>
      </contour>
    </TTGlyph>
    <TTGlyph name="uni07E8" xMin="100" yMin="-557" xMax="885" yMax="573">
      <contour>
        <pt x="750" y="-90" on="1"/>
        <pt x="885" y="-90" on="1"/>
        <pt x="830" y="-320" on="0"/>
        <pt x="571" y="-557" on="0"/>
        <pt x="387" y="-557" on="1"/>
        <pt x="296" y="-557" on="0"/>
        <pt x="176" y="-488" on="0"/>
        <pt x="176" y="-434" on="1"/>
        <pt x="176" y="-413" on="0"/>
        <pt x="261" y="-258" on="1"/>
        <pt x="386" y="-31" on="0"/>
        <pt x="401" y="-2" on="1"/>
        <pt x="401" y="0" on="1"/>
        <pt x="100" y="0" on="1"/>
        <pt x="100" y="160" on="1"/>
        <pt x="483" y="160" on="1"/>
        <pt x="584" y="359" on="0"/>
        <pt x="676" y="573" on="1"/>
        <pt x="864" y="573" on="1"/>
        <pt x="810" y="437" on="0"/>
        <pt x="665" y="147" on="1"/>
        <pt x="580" y="-27" on="1"/>
        <pt x="383" y="-393" on="1"/>
        <pt x="401" y="-399" on="0"/>
        <pt x="430" y="-399" on="1"/>
        <pt x="496" y="-399" on="0"/>
        <pt x="617" y="-321" on="0"/>
        <pt x="726" y="-167" on="0"/>
      </contour>
    </TTGlyph>
    <TTGlyph name="uni07E9" xMin="100" yMin="-557" xMax="864" yMax="573">
      <contour>
        <pt x="401" y="0" on="1"/>
        <pt x="100" y="0" on="1"/>
        <pt x="100" y="160" on="1"/>
        <pt x="483" y="160" on="1"/>
        <pt x="633" y="460" on="0"/>
        <pt x="676" y="573" on="1"/>
        <pt x="864" y="573" on="1"/>
        <pt x="810" y="437" on="0"/>
        <pt x="658" y="129" on="0"/>
        <pt x="578" y="-29" on="1"/>
        <pt x="614" y="-29" on="1"/>
        <pt x="726" y="-29" on="0"/>
        <pt x="850" y="-127" on="0"/>
        <pt x="850" y="-211" on="1"/>
        <pt x="850" y="-289" on="0"/>
        <pt x="723" y="-454" on="0"/>
        <pt x="514" y="-557" on="0"/>
        <pt x="399" y="-557" on="1"/>
        <pt x="297" y="-557" on="0"/>
        <pt x="176" y="-487" on="0"/>
        <pt x="176" y="-434" on="1"/>
        <pt x="176" y="-418" on="0"/>
        <pt x="244" y="-288" on="0"/>
        <pt x="319" y="-155" on="1"/>
        <pt x="401" y="-2" on="1"/>
      </contour>
      <contour>
        <pt x="383" y="-393" on="1"/>
        <pt x="401" y="-399" on="0"/>
        <pt x="435" y="-399" on="1"/>
        <pt x="515" y="-399" on="0"/>
        <pt x="668" y="-292" on="0"/>
        <pt x="668" y="-229" on="1"/>
        <pt x="668" y="-188" on="0"/>
        <pt x="610" y="-166" on="0"/>
        <pt x="559" y="-166" on="1"/>
        <pt x="506" y="-166" on="1"/>
        <pt x="446" y="-279" on="1"/>
      </contour>
    </TTGlyph>
    <TTGlyph name="uni07EA" xMin="80" yMin="-557" xMax="721" yMax="664">
      <contour>
        <pt x="492" y="664" on="1"/>
        <pt x="492" y="160" on="1"/>
        <pt x="721" y="160" on="1"/>
        <pt x="721" y="0" on="1"/>
        <pt x="492" y="0" on="1"/>
        <pt x="492" y="-557" on="1"/>
        <pt x="309" y="-557" on="1"/>
        <pt x="309" y="0" on="1"/>
        <pt x="80" y="0" on="1"/>
        <pt x="80" y="160" on="1"/>
        <pt x="309" y="160" on="1"/>
        <pt x="309" y="664" on="1"/>
      </contour>
    </TTGlyph>
    <TTGlyph name="uni07EB" xMin="104" yMin="1663" xMax="887" yMax="1808">
      <contour>
        <pt x="104" y="1808" on="1"/>
        <pt x="887" y="1808" on="1"/>
        <pt x="887" y="1663" on="1"/>
        <pt x="104" y="1663" on="1"/>
      </contour>
    </TTGlyph>
    <TTGlyph name="uni07EC" xMin="29" yMin="1638" xMax="958" yMax="1962">
      <contour>
        <pt x="651" y="1790" on="1"/>
        <pt x="674" y="1790" on="0"/>
        <pt x="755" y="1857" on="0"/>
        <pt x="854" y="1962" on="1"/>
        <pt x="958" y="1860" on="1"/>
        <pt x="925" y="1828" on="1"/>
        <pt x="810" y="1707" on="0"/>
        <pt x="700" y="1640" on="0"/>
        <pt x="649" y="1640" on="1"/>
        <pt x="614" y="1640" on="0"/>
        <pt x="559" y="1659" on="0"/>
        <pt x="506" y="1698" on="1"/>
        <pt x="401" y="1782" on="1"/>
        <pt x="387" y="1793" on="0"/>
        <pt x="361" y="1810" on="0"/>
        <pt x="336" y="1810" on="1"/>
        <pt x="313" y="1810" on="0"/>
        <pt x="232" y="1743" on="0"/>
        <pt x="133" y="1638" on="1"/>
        <pt x="29" y="1741" on="1"/>
        <pt x="62" y="1773" on="1"/>
        <pt x="174" y="1891" on="0"/>
        <pt x="286" y="1960" on="0"/>
        <pt x="340" y="1960" on="1"/>
        <pt x="379" y="1960" on="0"/>
        <pt x="437" y="1940" on="0"/>
        <pt x="483" y="1903" on="1"/>
        <pt x="588" y="1819" on="1"/>
        <pt x="602" y="1808" on="0"/>
        <pt x="628" y="1790" on="0"/>
      </contour>
    </TTGlyph>
    <TTGlyph name="uni07ED" xMin="381" yMin="1647" xMax="610" yMax="1892">
      <contour>
        <pt x="496" y="1647" on="1"/>
        <pt x="441" y="1647" on="0"/>
        <pt x="381" y="1712" on="0"/>
        <pt x="381" y="1769" on="1"/>
        <pt x="381" y="1834" on="0"/>
        <pt x="448" y="1892" on="0"/>
        <pt x="496" y="1892" on="1"/>
        <pt x="548" y="1892" on="0"/>
        <pt x="610" y="1829" on="0"/>
        <pt x="610" y="1769" on="1"/>
        <pt x="610" y="1711" on="0"/>
        <pt x="548" y="1647" on="0"/>
      </contour>
    </TTGlyph>
    <TTGlyph name="uni07EE" xMin="150" yMin="1638" xMax="842" yMax="2128">
      <contour>
        <pt x="150" y="1661" on="1"/>
        <pt x="217" y="1762" on="0"/>
        <pt x="360" y="2030" on="0"/>
        <pt x="401" y="2128" on="1"/>
        <pt x="586" y="2128" on="1"/>
        <pt x="639" y="1986" on="0"/>
        <pt x="842" y="1661" on="1"/>
        <pt x="842" y="1638" on="1"/>
        <pt x="715" y="1638" on="1"/>
        <pt x="632" y="1713" on="0"/>
        <pt x="492" y="1937" on="1"/>
        <pt x="383" y="1742" on="0"/>
        <pt x="272" y="1638" on="1"/>
        <pt x="150" y="1638" on="1"/>
      </contour>
    </TTGlyph>
    <TTGlyph name="uni07EF" xMin="104" yMin="1651" xMax="936" yMax="2169">
      <contour>
        <pt x="887" y="1651" on="1"/>
        <pt x="104" y="1651" on="1"/>
        <pt x="104" y="1796" on="1"/>
        <pt x="739" y="1796" on="1"/>
        <pt x="718" y="1819" on="0"/>
        <pt x="652" y="1895" on="0"/>
        <pt x="506" y="2077" on="1"/>
        <pt x="614" y="2169" on="1"/>
        <pt x="936" y="1769" on="1"/>
      </contour>
    </TTGlyph>
    <TTGlyph name="uni07F0" xMin="31" yMin="1638" xMax="961" yMax="1962">
      <contour>
        <pt x="649" y="1960" on="1"/>
        <pt x="698" y="1960" on="0"/>
        <pt x="800" y="1903" on="0"/>
        <pt x="886" y="1816" on="1"/>
        <pt x="961" y="1741" on="1"/>
        <pt x="856" y="1638" on="1"/>
        <pt x="758" y="1743" on="0"/>
        <pt x="677" y="1810" on="0"/>
        <pt x="653" y="1810" on="1"/>
        <pt x="631" y="1810" on="0"/>
        <pt x="604" y="1795" on="0"/>
        <pt x="483" y="1698" on="1"/>
        <pt x="432" y="1660" on="0"/>
        <pt x="377" y="1640" on="0"/>
        <pt x="340" y="1640" on="1"/>
        <pt x="288" y="1640" on="0"/>
        <pt x="175" y="1711" on="0"/>
        <pt x="64" y="1828" on="1"/>
        <pt x="31" y="1860" on="1"/>
        <pt x="135" y="1962" on="1"/>
        <pt x="233" y="1857" on="0"/>
        <pt x="314" y="1790" on="0"/>
        <pt x="338" y="1790" on="1"/>
        <pt x="361" y="1790" on="0"/>
        <pt x="387" y="1808" on="0"/>
        <pt x="401" y="1819" on="1"/>
        <pt x="506" y="1903" on="1"/>
        <pt x="552" y="1940" on="0"/>
        <pt x="609" y="1960" on="0"/>
      </contour>
    </TTGlyph>
    <TTGlyph name="uni07F1" xMin="55" yMin="1651" xMax="887" yMax="2169">
      <contour>
        <pt x="55" y="1769" on="1"/>
        <pt x="377" y="2169" on="1"/>
        <pt x="485" y="2077" on="1"/>
        <pt x="351" y="1908" on="0"/>
        <pt x="293" y="1840" on="0"/>
        <pt x="252" y="1796" on="1"/>
        <pt x="887" y="1796" on="1"/>
        <pt x="887" y="1651" on="1"/>
        <pt x="104" y="1651" on="1"/>
      </contour>
    </TTGlyph>
    <TTGlyph name="uni07F2" xMin="381" yMin="-377" xMax="610" yMax="-131">
      <contour>
        <pt x="496" y="-377" on="1"/>
        <pt x="448" y="-377" on="0"/>
        <pt x="381" y="-319" on="0"/>
        <pt x="381" y="-254" on="1"/>
        <pt x="381" y="-189" on="0"/>
        <pt x="448" y="-131" on="0"/>
        <pt x="496" y="-131" on="1"/>
        <pt x="548" y="-131" on="0"/>
        <pt x="610" y="-194" on="0"/>
        <pt x="610" y="-254" on="1"/>
        <pt x="610" y="-313" on="0"/>
        <pt x="549" y="-377" on="0"/>
      </contour>
    </TTGlyph>
    <TTGlyph name="uni07F3" xMin="127" yMin="1647" xMax="862" yMax="1892">
      <contour>
        <pt x="242" y="1647" on="1"/>
        <pt x="187" y="1647" on="0"/>
        <pt x="127" y="1712" on="0"/>
        <pt x="127" y="1769" on="1"/>
        <pt x="127" y="1834" on="0"/>
        <pt x="194" y="1892" on="0"/>
        <pt x="242" y="1892" on="1"/>
        <pt x="294" y="1892" on="0"/>
        <pt x="356" y="1829" on="0"/>
        <pt x="356" y="1769" on="1"/>
        <pt x="356" y="1711" on="0"/>
        <pt x="294" y="1647" on="0"/>
      </contour>
      <contour>
        <pt x="748" y="1647" on="1"/>
        <pt x="693" y="1647" on="0"/>
        <pt x="633" y="1712" on="0"/>
        <pt x="633" y="1769" on="1"/>
        <pt x="633" y="1834" on="0"/>
        <pt x="700" y="1892" on="0"/>
        <pt x="748" y="1892" on="1"/>
        <pt x="800" y="1892" on="0"/>
        <pt x="862" y="1829" on="0"/>
        <pt x="862" y="1769" on="1"/>
        <pt x="862" y="1711" on="0"/>
        <pt x="800" y="1647" on="0"/>
      </contour>
    </TTGlyph>
    <TTGlyph name="uni07F4" xMin="168" yMin="750" xMax="477" yMax="1370">
      <contour>
        <pt x="463" y="1370" on="1"/>
        <pt x="477" y="1348" on="1"/>
        <pt x="452" y="1227" on="0"/>
        <pt x="356" y="900" on="0"/>
        <pt x="301" y="750" on="1"/>
        <pt x="168" y="750" on="1"/>
        <pt x="232" y="1054" on="0"/>
        <pt x="270" y="1370" on="1"/>
      </contour>
    </TTGlyph>
    <TTGlyph name="uni07F5" xMin="168" yMin="750" xMax="477" yMax="1370">
      <contour>
        <pt x="182" y="750" on="1"/>
        <pt x="168" y="772" on="1"/>
        <pt x="219" y="1015" on="0"/>
        <pt x="344" y="1370" on="1"/>
        <pt x="477" y="1370" on="1"/>
        <pt x="446" y="1223" on="0"/>
        <pt x="386" y="858" on="0"/>
        <pt x="375" y="750" on="1"/>
      </contour>
    </TTGlyph>
    <TTGlyph name="uni07F6" xMin="80" yMin="0" xMax="1032" yMax="1462">
      <contour>
        <pt x="1032" y="0" on="1"/>
        <pt x="80" y="0" on="1"/>
        <pt x="80" y="90" on="1"/>
        <pt x="331" y="287" on="0"/>
        <pt x="641" y="611" on="0"/>
        <pt x="729" y="758" on="1"/>
        <pt x="678" y="741" on="0"/>
        <pt x="625" y="741" on="1"/>
        <pt x="427" y="741" on="0"/>
        <pt x="199" y="931" on="0"/>
        <pt x="199" y="1102" on="1"/>
        <pt x="199" y="1264" on="0"/>
        <pt x="435" y="1462" on="0"/>
        <pt x="629" y="1462" on="1"/>
        <pt x="821" y="1462" on="0"/>
        <pt x="1032" y="1267" on="0"/>
        <pt x="1032" y="1087" on="1"/>
        <pt x="1032" y="984" on="0"/>
        <pt x="958" y="769" on="0"/>
        <pt x="808" y="544" on="0"/>
        <pt x="604" y="330" on="0"/>
        <pt x="410" y="160" on="1"/>
        <pt x="1032" y="160" on="1"/>
      </contour>
      <contour>
        <pt x="614" y="1303" on="1"/>
        <pt x="507" y="1303" on="0"/>
        <pt x="383" y="1188" on="0"/>
        <pt x="383" y="1102" on="1"/>
        <pt x="383" y="1006" on="0"/>
        <pt x="509" y="897" on="0"/>
        <pt x="621" y="897" on="1"/>
        <pt x="731" y="897" on="0"/>
        <pt x="848" y="1010" on="0"/>
        <pt x="848" y="1110" on="1"/>
        <pt x="848" y="1197" on="0"/>
        <pt x="722" y="1303" on="0"/>
      </contour>
    </TTGlyph>
    <TTGlyph name="uni07F7" xMin="102" yMin="-86" xMax="1843" yMax="1505">
      <contour>
        <pt x="102" y="375" on="1"/>
        <pt x="102" y="505" on="0"/>
        <pt x="222" y="708" on="0"/>
        <pt x="438" y="819" on="0"/>
        <pt x="569" y="819" on="1"/>
        <pt x="483" y="916" on="0"/>
        <pt x="483" y="1075" on="1"/>
        <pt x="483" y="1203" on="0"/>
        <pt x="608" y="1399" on="0"/>
        <pt x="830" y="1505" on="0"/>
        <pt x="963" y="1505" on="1"/>
        <pt x="1193" y="1505" on="0"/>
        <pt x="1454" y="1274" on="0"/>
        <pt x="1454" y="1063" on="1"/>
        <pt x="1454" y="984" on="0"/>
        <pt x="1406" y="857" on="0"/>
        <pt x="1372" y="819" on="1"/>
        <pt x="1510" y="819" on="0"/>
        <pt x="1723" y="714" on="0"/>
        <pt x="1843" y="513" on="0"/>
        <pt x="1843" y="375" on="1"/>
        <pt x="1843" y="162" on="0"/>
        <pt x="1591" y="-86" on="0"/>
        <pt x="1370" y="-86" on="1"/>
        <pt x="1089" y="-86" on="0"/>
        <pt x="969" y="84" on="1"/>
        <pt x="904" y="-4" on="0"/>
        <pt x="700" y="-86" on="0"/>
        <pt x="582" y="-86" on="1"/>
        <pt x="358" y="-86" on="0"/>
        <pt x="102" y="157" on="0"/>
      </contour>
      <contour>
        <pt x="1053" y="379" on="1"/>
        <pt x="1053" y="230" on="0"/>
        <pt x="1209" y="66" on="0"/>
        <pt x="1354" y="66" on="1"/>
        <pt x="1498" y="66" on="0"/>
        <pt x="1663" y="226" on="0"/>
        <pt x="1663" y="373" on="1"/>
        <pt x="1663" y="518" on="0"/>
        <pt x="1503" y="674" on="0"/>
        <pt x="1354" y="674" on="1"/>
        <pt x="1276" y="674" on="0"/>
        <pt x="1221" y="653" on="1"/>
        <pt x="1128" y="782" on="1"/>
        <pt x="1207" y="829" on="0"/>
        <pt x="1274" y="962" on="0"/>
        <pt x="1274" y="1053" on="1"/>
        <pt x="1274" y="1198" on="0"/>
        <pt x="1114" y="1354" on="0"/>
        <pt x="965" y="1354" on="1"/>
        <pt x="817" y="1354" on="0"/>
        <pt x="664" y="1197" on="0"/>
        <pt x="664" y="1053" on="1"/>
        <pt x="664" y="862" on="0"/>
        <pt x="817" y="774" on="1"/>
        <pt x="729" y="647" on="1"/>
        <pt x="672" y="674" on="0"/>
        <pt x="584" y="674" on="1"/>
        <pt x="436" y="674" on="0"/>
        <pt x="283" y="517" on="0"/>
        <pt x="283" y="373" on="1"/>
        <pt x="283" y="227" on="0"/>
        <pt x="441" y="66" on="0"/>
        <pt x="584" y="66" on="1"/>
        <pt x="729" y="66" on="0"/>
        <pt x="893" y="230" on="0"/>
        <pt x="893" y="379" on="1"/>
      </contour>
      <contour>
        <pt x="1231" y="371" on="1"/>
        <pt x="1231" y="440" on="0"/>
        <pt x="1297" y="508" on="0"/>
        <pt x="1356" y="508" on="1"/>
        <pt x="1417" y="508" on="0"/>
        <pt x="1485" y="437" on="0"/>
        <pt x="1485" y="371" on="1"/>
        <pt x="1485" y="306" on="0"/>
        <pt x="1417" y="231" on="0"/>
        <pt x="1356" y="231" on="1"/>
        <pt x="1297" y="231" on="0"/>
        <pt x="1231" y="302" on="0"/>
      </contour>
      <contour>
        <pt x="842" y="1051" on="1"/>
        <pt x="842" y="1120" on="0"/>
        <pt x="908" y="1188" on="0"/>
        <pt x="967" y="1188" on="1"/>
        <pt x="1028" y="1188" on="0"/>
        <pt x="1096" y="1117" on="0"/>
        <pt x="1096" y="1051" on="1"/>
        <pt x="1096" y="986" on="0"/>
        <pt x="1028" y="911" on="0"/>
        <pt x="967" y="911" on="1"/>
        <pt x="908" y="911" on="0"/>
        <pt x="842" y="982" on="0"/>
      </contour>
      <contour>
        <pt x="461" y="371" on="1"/>
        <pt x="461" y="440" on="0"/>
        <pt x="527" y="508" on="0"/>
        <pt x="586" y="508" on="1"/>
        <pt x="647" y="508" on="0"/>
        <pt x="715" y="437" on="0"/>
        <pt x="715" y="371" on="1"/>
        <pt x="715" y="306" on="0"/>
        <pt x="647" y="231" on="0"/>
        <pt x="586" y="231" on="1"/>
        <pt x="527" y="231" on="0"/>
        <pt x="461" y="302" on="0"/>
      </contour>
    </TTGlyph>
    <TTGlyph name="uni07F8" xMin="102" yMin="0" xMax="883" yMax="1012">
      <contour>
        <pt x="365" y="874" on="1"/>
        <pt x="365" y="942" on="0"/>
        <pt x="430" y="1012" on="0"/>
        <pt x="489" y="1012" on="1"/>
        <pt x="550" y="1012" on="0"/>
        <pt x="618" y="940" on="0"/>
        <pt x="618" y="874" on="1"/>
        <pt x="618" y="810" on="0"/>
        <pt x="550" y="735" on="0"/>
        <pt x="489" y="735" on="1"/>
        <pt x="431" y="735" on="0"/>
        <pt x="365" y="808" on="0"/>
      </contour>
      <contour>
        <pt x="883" y="0" on="1"/>
        <pt x="102" y="0" on="1"/>
        <pt x="102" y="160" on="1"/>
        <pt x="883" y="160" on="1"/>
      </contour>
    </TTGlyph>
    <TTGlyph name="uni07F9" xMin="102" yMin="-20" xMax="883" yMax="1225">
      <contour>
        <pt x="365" y="627" on="1"/>
        <pt x="365" y="696" on="0"/>
        <pt x="431" y="764" on="0"/>
        <pt x="489" y="764" on="1"/>
        <pt x="550" y="764" on="0"/>
        <pt x="618" y="693" on="0"/>
        <pt x="618" y="627" on="1"/>
        <pt x="618" y="562" on="0"/>
        <pt x="550" y="487" on="0"/>
        <pt x="489" y="487" on="1"/>
        <pt x="437" y="487" on="0"/>
        <pt x="365" y="553" on="0"/>
      </contour>
      <contour>
        <pt x="883" y="1065" on="1"/>
        <pt x="102" y="1065" on="1"/>
        <pt x="102" y="1225" on="1"/>
        <pt x="883" y="1225" on="1"/>
      </contour>
      <contour>
        <pt x="365" y="119" on="1"/>
        <pt x="365" y="188" on="0"/>
        <pt x="431" y="256" on="0"/>
        <pt x="489" y="256" on="1"/>
        <pt x="550" y="256" on="0"/>
        <pt x="618" y="185" on="0"/>
        <pt x="618" y="119" on="1"/>
        <pt x="618" y="53" on="0"/>
        <pt x="548" y="-20" on="0"/>
        <pt x="489" y="-20" on="1"/>
        <pt x="437" y="-20" on="0"/>
        <pt x="365" y="45" on="0"/>
      </contour>
    </TTGlyph>
    <TTGlyph name="uni07FA" xMin="-70" yMin="0" xMax="924" yMax="160">
      <contour>
        <pt x="924" y="0" on="1"/>
        <pt x="-70" y="0" on="1"/>
        <pt x="-70" y="160" on="1"/>
        <pt x="924" y="160" on="1"/>
      </contour>
    </TTGlyph>
    <TTGlyph name="uni2E1C" xMin="133" yMin="110" xMax="1084" yMax="1060">
      <contour>
        <pt x="243" y="1060" on="1"/>
        <pt x="1084" y="220" on="1"/>
        <pt x="974" y="110" on="1"/>
        <pt x="133" y="950" on="1"/>
      </contour>
    </TTGlyph>
    <TTGlyph name="uni2E1D" xMin="153" yMin="110" xMax="1104" yMax="1060">
      <contour>
        <pt x="153" y="220" on="1"/>
        <pt x="994" y="1060" on="1"/>
        <pt x="1104" y="950" on="1"/>
        <pt x="263" y="110" on="1"/>
      </contour>
    </TTGlyph>
    <TTGlyph name="uniFD3E" xMin="17" yMin="-309" xMax="938" yMax="1761">
      <contour>
        <pt x="902" y="1537" on="1"/>
        <pt x="851" y="1519" on="1"/>
        <pt x="791" y="1496" on="0"/>
        <pt x="742" y="1410" on="0"/>
        <pt x="731" y="1319" on="1"/>
        <pt x="679" y="906" on="1"/>
        <pt x="675" y="878" on="0"/>
        <pt x="614" y="773" on="1"/>
        <pt x="593" y="736" on="1"/>
        <pt x="544" y="700" on="0"/>
        <pt x="452" y="654" on="0"/>
        <pt x="432" y="654" on="1"/>
        <pt x="364" y="654" on="0"/>
        <pt x="322" y="750" on="1"/>
        <pt x="411" y="770" on="0"/>
        <pt x="500" y="806" on="0"/>
        <pt x="558" y="838" on="1"/>
        <pt x="559" y="940" on="1"/>
        <pt x="559" y="1211" on="0"/>
        <pt x="573" y="1328" on="1"/>
        <pt x="593" y="1511" on="0"/>
        <pt x="769" y="1570" on="1"/>
        <pt x="877" y="1606" on="1"/>
      </contour>
      <contour>
        <pt x="296" y="750" on="1"/>
        <pt x="248" y="681" on="0"/>
        <pt x="164" y="600" on="1"/>
        <pt x="76" y="669" on="0"/>
        <pt x="17" y="734" on="1"/>
        <pt x="96" y="811" on="0"/>
        <pt x="160" y="884" on="1"/>
        <pt x="222" y="815" on="0"/>
      </contour>
      <contour>
        <pt x="604" y="671" on="1"/>
        <pt x="661" y="573" on="0"/>
        <pt x="688" y="452" on="1"/>
        <pt x="702" y="389" on="0"/>
        <pt x="731" y="133" on="1"/>
        <pt x="744" y="37" on="0"/>
        <pt x="796" y="-48" on="0"/>
        <pt x="851" y="-67" on="1"/>
        <pt x="902" y="-84" on="1"/>
        <pt x="877" y="-154" on="1"/>
        <pt x="769" y="-117" on="1"/>
        <pt x="593" y="-58" on="0"/>
        <pt x="573" y="125" on="1"/>
        <pt x="560" y="228" on="0"/>
        <pt x="555" y="454" on="1"/>
        <pt x="550" y="574" on="0"/>
        <pt x="540" y="633" on="1"/>
      </contour>
      <contour>
        <pt x="938" y="-241" on="1"/>
        <pt x="907" y="-281" on="0"/>
        <pt x="877" y="-309" on="1"/>
        <pt x="837" y="-278" on="0"/>
        <pt x="811" y="-248" on="1"/>
        <pt x="828" y="-233" on="0"/>
        <pt x="877" y="-180" on="1"/>
      </contour>
      <contour>
        <pt x="938" y="1700" on="1"/>
        <pt x="907" y="1660" on="0"/>
        <pt x="877" y="1632" on="1"/>
        <pt x="830" y="1671" on="0"/>
        <pt x="811" y="1693" on="1"/>
        <pt x="828" y="1708" on="0"/>
        <pt x="877" y="1761" on="1"/>
      </contour>
    </TTGlyph>
    <TTGlyph name="uniFD3F" xMin="87" yMin="-310" xMax="1008" yMax="1759">
      <contour>
        <pt x="123" y="-86" on="1"/>
        <pt x="174" y="-69" on="1"/>
        <pt x="229" y="-50" on="0"/>
        <pt x="282" y="36" on="0"/>
        <pt x="294" y="132" on="1"/>
        <pt x="347" y="544" on="1"/>
        <pt x="352" y="576" on="0"/>
        <pt x="412" y="678" on="1"/>
        <pt x="432" y="715" on="1"/>
        <pt x="475" y="747" on="0"/>
        <pt x="573" y="796" on="0"/>
        <pt x="593" y="796" on="1"/>
        <pt x="662" y="796" on="0"/>
        <pt x="703" y="701" on="1"/>
        <pt x="616" y="681" on="0"/>
        <pt x="531" y="648" on="0"/>
        <pt x="467" y="612" on="1"/>
        <pt x="466" y="549" on="1"/>
        <pt x="466" y="239" on="0"/>
        <pt x="452" y="123" on="1"/>
        <pt x="431" y="-62" on="0"/>
        <pt x="256" y="-119" on="1"/>
        <pt x="148" y="-156" on="1"/>
      </contour>
      <contour>
        <pt x="729" y="701" on="1"/>
        <pt x="780" y="774" on="0"/>
        <pt x="862" y="851" on="1"/>
        <pt x="946" y="784" on="0"/>
        <pt x="1008" y="717" on="1"/>
        <pt x="929" y="640" on="0"/>
        <pt x="865" y="567" on="1"/>
        <pt x="804" y="635" on="0"/>
      </contour>
      <contour>
        <pt x="422" y="779" on="1"/>
        <pt x="380" y="850" on="0"/>
        <pt x="329" y="1016" on="0"/>
        <pt x="315" y="1140" on="1"/>
        <pt x="294" y="1317" on="1"/>
        <pt x="282" y="1410" on="0"/>
        <pt x="234" y="1494" on="0"/>
        <pt x="174" y="1517" on="1"/>
        <pt x="123" y="1535" on="1"/>
        <pt x="148" y="1605" on="1"/>
        <pt x="256" y="1568" on="1"/>
        <pt x="431" y="1511" on="0"/>
        <pt x="452" y="1326" on="1"/>
        <pt x="465" y="1223" on="0"/>
        <pt x="470" y="997" on="1"/>
        <pt x="475" y="875" on="0"/>
        <pt x="485" y="818" on="1"/>
      </contour>
      <contour>
        <pt x="87" y="1691" on="1"/>
        <pt x="107" y="1720" on="0"/>
        <pt x="148" y="1759" on="1"/>
        <pt x="188" y="1729" on="0"/>
        <pt x="214" y="1698" on="1"/>
        <pt x="148" y="1630" on="1"/>
        <pt x="117" y="1663" on="1"/>
      </contour>
      <contour>
        <pt x="87" y="-250" on="1"/>
        <pt x="107" y="-221" on="0"/>
        <pt x="148" y="-182" on="1"/>
        <pt x="186" y="-211" on="0"/>
        <pt x="214" y="-242" on="1"/>
        <pt x="148" y="-310" on="1"/>
      </contour>
    </TTGlyph>
</ttFont>
